<?xml version="1.0" encoding="UTF-8"?>
<svg version="1.1" xmlns="http://www.w3.org/2000/svg" width="187" height="157">
<path d="M0 0 C61.71 0 123.42 0 187 0 C187 51.81 187 103.62 187 157 C125.29 157 63.58 157 0 157 C0 105.19 0 53.38 0 0 Z " fill="#FCFEFC" transform="translate(0,0)"/>
<path d="M0 0 C0.90447372 0.01159653 1.80894745 0.02319305 2.74082947 0.03514099 C3.43229568 0.05005081 4.1237619 0.06496063 4.83618164 0.08032227 C4.85952191 14.25761195 4.87709994 28.43489866 4.88799381 42.6122036 C4.89322126 49.19468221 4.90031643 55.77714794 4.91162109 62.35961914 C4.92245484 68.70732373 4.92845952 75.05501591 4.93105888 81.40272903 C4.93291225 83.82932353 4.93653117 86.25591732 4.9419117 88.68250656 C4.94912856 92.07082356 4.9501723 95.45908871 4.94970703 98.84741211 C4.95330231 99.85945206 4.95689758 100.871492 4.96060181 101.91419983 C4.95922714 102.83409195 4.95785248 103.75398407 4.95643616 104.70175171 C4.95735795 105.50371161 4.95827974 106.3056715 4.95922947 107.13193321 C4.83618164 109.08032227 4.83618164 109.08032227 3.83618164 111.08032227 C1.77434531 111.1618297 -0.28843185 111.21974167 -2.35131836 111.26782227 C-4.07415039 111.3200293 -4.07415039 111.3200293 -5.83178711 111.37329102 C-9.4553946 111.05468543 -11.3102098 110.29979559 -14.16381836 108.08032227 C-14.16381836 107.42032227 -14.16381836 106.76032227 -14.16381836 106.08032227 C-14.82381836 106.08032227 -15.48381836 106.08032227 -16.16381836 106.08032227 C-16.23338955 94.2059448 -16.2866659 82.33161599 -16.31925488 70.45707607 C-16.33489751 64.9429904 -16.35611037 59.42904437 -16.39013672 53.91503906 C-16.42277988 48.59174798 -16.44068193 43.26859106 -16.44845009 37.9452076 C-16.45398467 35.91626944 -16.46479238 33.88733846 -16.48100853 31.85845757 C-16.5028485 29.01224893 -16.50578252 26.16659171 -16.50439453 23.3203125 C-16.51518036 22.48521149 -16.52596619 21.65011047 -16.53707886 20.78970337 C-16.50429923 14.56025411 -15.33594219 9.9246507 -11.47241211 4.86547852 C-10.85495117 4.29700195 -10.23749023 3.72852539 -9.60131836 3.14282227 C-9.0019043 2.55629883 -8.40249023 1.96977539 -7.78491211 1.36547852 C-4.85138965 -0.07286558 -3.22937505 -0.05363544 0 0 Z " fill="#63A847" transform="translate(62.163818359375,9.919677734375)"/>
<path d="M0 0 C1.8871875 0.0309375 1.8871875 0.0309375 3.8125 0.0625 C3.85883116 9.90256632 3.89437319 19.7426067 3.91612434 29.58275986 C3.92656356 34.15189211 3.9407253 38.72094975 3.96337891 43.29003906 C3.98510233 47.69908634 3.99706759 52.10806184 4.00225449 56.51715851 C4.00595114 58.19968038 4.01316972 59.8821983 4.02396011 61.56468964 C4.03846842 63.92049158 4.04047823 66.27599653 4.03955078 68.63183594 C4.04674133 69.32811096 4.05393188 70.02438599 4.06134033 70.74176025 C4.04200486 75.27773474 3.54101478 78.2588324 0.375 81.5625 C-0.140625 82.0575 -0.65625 82.5525 -1.1875 83.0625 C-1.8990625 84.1453125 -1.8990625 84.1453125 -2.625 85.25 C-3.140625 85.848125 -3.65625 86.44625 -4.1875 87.0625 C-5.5075 87.0625 -6.8275 87.0625 -8.1875 87.0625 C-8.1875 87.7225 -8.1875 88.3825 -8.1875 89.0625 C-11.1575 89.5575 -11.1575 89.5575 -14.1875 90.0625 C-14.1875 90.7225 -14.1875 91.3825 -14.1875 92.0625 C-19.1375 92.0625 -24.0875 92.0625 -29.1875 92.0625 C-28.8575 90.7425 -28.5275 89.4225 -28.1875 88.0625 C-27.0428125 87.4746875 -27.0428125 87.4746875 -25.875 86.875 C-21.89812707 84.19292291 -20.83355313 80.44890974 -19.1875 76.0625 C-18.5275 76.0625 -17.8675 76.0625 -17.1875 76.0625 C-17.20415459 74.90524414 -17.20415459 74.90524414 -17.22114563 73.72460938 C-17.3216344 66.42795013 -17.39760904 59.13162982 -17.44656086 51.8344574 C-17.47257447 48.08350937 -17.50781849 44.33313657 -17.56469727 40.58251953 C-17.61931593 36.95795092 -17.64898238 33.33393299 -17.66188622 29.70898438 C-17.67107311 28.33112935 -17.68901288 26.95330199 -17.71615028 25.57568359 C-17.86867417 17.5066125 -17.78100722 11.25669054 -12.1875 5.0625 C-8.27261093 1.42724586 -5.33693692 -0.08749077 0 0 Z " fill="#0F5C9A" transform="translate(159.1875,39.9375)"/>
<path d="M0 0 C0.00142502 0.9343689 0.00285004 1.86873779 0.00431824 2.8314209 C0.02102452 11.65885167 0.06390857 20.4858236 0.13209057 29.31301117 C0.16630751 33.85066776 0.19146227 38.38798957 0.19555664 42.92578125 C0.19985102 47.30923413 0.22840736 51.69193248 0.27343178 56.07514954 C0.28637054 57.7431447 0.29072733 59.41123033 0.28615379 61.07926941 C0.0235214 73.50629984 0.0235214 73.50629984 6 84 C6.54951828 84.47642944 7.09903656 84.95285889 7.66520691 85.44372559 C9 87 9 87 9 91 C0.98573769 91.48817841 -4.94912244 90.98837518 -12 87 C-12 86.34 -12 85.68 -12 85 C-12.9590625 84.5978125 -12.9590625 84.5978125 -13.9375 84.1875 C-16 83 -16 83 -17 80 C-17.66 80 -18.32 80 -19 80 C-19 79.01 -19 78.02 -19 77 C-19.66 77 -20.32 77 -21 77 C-21 55.88 -21 34.76 -21 13 C-20.34 13 -19.68 13 -19 13 C-18.9175 12.278125 -18.835 11.55625 -18.75 10.8125 C-17.80815144 7.28056792 -16.58625943 5.58625943 -14 3 C-9.09110349 0.31400002 -5.52059777 -0.12531823 0 0 Z " fill="#15609E" transform="translate(99,41)"/>
<path d="M0 0 C0.81483353 0.0112793 1.62966705 0.02255859 2.4691925 0.03417969 C3.0925499 0.04868164 3.71590729 0.06318359 4.3581543 0.078125 C4.36695366 1.46421715 4.36695366 1.46421715 4.37593079 2.87831116 C4.43392612 11.60297355 4.50604215 20.32738181 4.59386921 29.05179691 C4.63852397 33.53671013 4.67779078 38.02153353 4.70458984 42.5065918 C4.73067179 46.83802634 4.77110852 51.16911436 4.82134056 55.50033379 C4.83797627 57.14961868 4.84951103 58.79896347 4.8557682 60.44832039 C4.86544547 62.76547367 4.8935463 65.08174702 4.92578125 67.39868164 C4.93688431 68.7155043 4.94798737 70.03232697 4.95942688 71.38905334 C5.50135076 76.40299505 6.61664323 80.62235409 10.61987305 83.96875 C11.42038086 84.41734375 12.22088867 84.8659375 13.0456543 85.328125 C15.49487305 86.71875 15.49487305 86.71875 17.3581543 88.078125 C17.3581543 89.068125 17.3581543 90.058125 17.3581543 91.078125 C14.12946684 91.22396564 10.90163065 91.31236606 7.6706543 91.390625 C6.75864258 91.43251953 5.84663086 91.47441406 4.90698242 91.51757812 C-1.9510383 91.64226941 -1.9510383 91.64226941 -5.64575195 88.625 C-6.30446289 87.78453125 -6.96317383 86.9440625 -7.6418457 86.078125 C-8.3843457 85.7275 -9.1268457 85.376875 -9.8918457 85.015625 C-11.6418457 84.078125 -11.6418457 84.078125 -12.3918457 81.953125 C-12.4743457 81.334375 -12.5568457 80.715625 -12.6418457 80.078125 C-13.3018457 80.078125 -13.9618457 80.078125 -14.6418457 80.078125 C-15.70861144 76.87782778 -15.78790769 74.53805087 -15.81884766 71.1730957 C-15.83168289 69.95785721 -15.84451813 68.74261871 -15.85774231 67.49055481 C-15.86512924 66.17496078 -15.87251617 64.85936676 -15.88012695 63.50390625 C-15.88420248 62.83262381 -15.88827801 62.16134136 -15.89247704 61.46971703 C-15.91332363 57.91381516 -15.92762912 54.35795167 -15.93701172 50.80200195 C-15.94804914 47.14476771 -15.98242107 43.48814644 -16.02218342 39.83112812 C-16.04844455 37.00594522 -16.05671207 34.18090599 -16.0602932 31.3556118 C-16.0674805 29.3571287 -16.09388174 27.35874418 -16.12068176 25.36042786 C-16.09923446 16.3359844 -14.82271738 9.87105479 -8.4543457 3.078125 C-7.94516602 2.500625 -7.43598633 1.923125 -6.91137695 1.328125 C-4.29842026 -0.11102499 -2.94536096 -0.05279903 0 0 Z " fill="#65A94A" transform="translate(30.641845703125,40.921875)"/>
<path d="M0 0 C1.30517578 0.10441406 1.30517578 0.10441406 2.63671875 0.2109375 C3.51972656 0.26507813 4.40273437 0.31921875 5.3125 0.375 C5.97636719 0.44460937 6.64023438 0.51421875 7.32421875 0.5859375 C7.32421875 1.2459375 7.32421875 1.9059375 7.32421875 2.5859375 C7.98421875 2.5859375 8.64421875 2.5859375 9.32421875 2.5859375 C12.08042866 7.26798701 12.75797243 11.09976698 12.6875 16.43359375 C12.6879985 17.16791122 12.68849701 17.9022287 12.68901062 18.65879822 C12.68668184 20.20265425 12.67702435 21.74651492 12.66040039 23.2902832 C12.63675286 25.64504115 12.63985515 27.99866855 12.64648438 30.35351562 C12.64090832 31.85938171 12.63379889 33.36524305 12.625 34.87109375 C12.62636711 35.91971336 12.62636711 35.91971336 12.62776184 36.98951721 C12.57073843 40.94359231 12.17612436 44.06792139 10.32421875 47.5859375 C7.63918475 49.74888155 5.79692126 50.515535 2.38671875 51.0234375 C-1.48822385 50.46987427 -3.63003473 48.99420219 -6.67578125 46.5859375 C-9.14435463 41.64879073 -7.98866363 34.02106524 -8.02587891 28.52929688 C-8.04241548 26.74075284 -8.06967537 24.95227427 -8.10791016 23.1640625 C-8.16285159 20.58038177 -8.18457968 17.99824978 -8.19921875 15.4140625 C-8.22188812 14.62010071 -8.2445575 13.82613892 -8.26791382 13.00811768 C-8.2524351 8.91375071 -7.89681819 6.33473624 -5.31030273 3.07080078 C-2.67578125 0.5859375 -2.67578125 0.5859375 0 0 Z " fill="#0C5A9A" transform="translate(117.67578125,70.4140625)"/>
<path d="M0 0 C0.90447372 0.01159653 1.80894745 0.02319305 2.74082947 0.03514099 C3.43229568 0.05005081 4.1237619 0.06496063 4.83618164 0.08032227 C4.85952191 14.25761195 4.87709994 28.43489866 4.88799381 42.6122036 C4.89322126 49.19468221 4.90031643 55.77714794 4.91162109 62.35961914 C4.92245484 68.70732373 4.92845952 75.05501591 4.93105888 81.40272903 C4.93291225 83.82932353 4.93653117 86.25591732 4.9419117 88.68250656 C4.94912856 92.07082356 4.9501723 95.45908871 4.94970703 98.84741211 C4.95330231 99.85945206 4.95689758 100.871492 4.96060181 101.91419983 C4.95922714 102.83409195 4.95785248 103.75398407 4.95643616 104.70175171 C4.95735795 105.50371161 4.95827974 106.3056715 4.95922947 107.13193321 C4.83618164 109.08032227 4.83618164 109.08032227 3.83618164 111.08032227 C1.77434531 111.1618297 -0.28843185 111.21974167 -2.35131836 111.26782227 C-4.07415039 111.3200293 -4.07415039 111.3200293 -5.83178711 111.37329102 C-9.4553946 111.05468543 -11.3102098 110.29979559 -14.16381836 108.08032227 C-14.16381836 107.42032227 -14.16381836 106.76032227 -14.16381836 106.08032227 C-14.82381836 106.08032227 -15.48381836 106.08032227 -16.16381836 106.08032227 C-16.23338955 94.2059448 -16.2866659 82.33161599 -16.31925488 70.45707607 C-16.33489751 64.9429904 -16.35611037 59.42904437 -16.39013672 53.91503906 C-16.42277988 48.59174798 -16.44068193 43.26859106 -16.44845009 37.9452076 C-16.45398467 35.91626944 -16.46479238 33.88733846 -16.48100853 31.85845757 C-16.5028485 29.01224893 -16.50578252 26.16659171 -16.50439453 23.3203125 C-16.51518036 22.48521149 -16.52596619 21.65011047 -16.53707886 20.78970337 C-16.50429923 14.56025411 -15.33594219 9.9246507 -11.47241211 4.86547852 C-10.85495117 4.29700195 -10.23749023 3.72852539 -9.60131836 3.14282227 C-9.0019043 2.55629883 -8.40249023 1.96977539 -7.78491211 1.36547852 C-4.85138965 -0.07286558 -3.22937505 -0.05363544 0 0 Z M-2.16381836 1.08032227 C-2.16381836 1.74032227 -2.16381836 2.40032227 -2.16381836 3.08032227 C-2.90631836 2.99782227 -3.64881836 2.91532227 -4.41381836 2.83032227 C-7.23083665 2.84749013 -7.23083665 2.84749013 -9.28881836 4.64282227 C-13.8054974 10.51450502 -14.60665315 15.77150375 -14.55200195 22.94970703 C-14.55725891 23.80915924 -14.56251587 24.66861145 -14.56793213 25.55410767 C-14.58106689 28.37683632 -14.57241805 31.19899477 -14.56225586 34.02172852 C-14.56427828 35.99275317 -14.56719113 37.96377709 -14.57095337 39.93479919 C-14.57536772 44.05784252 -14.56897356 48.18069039 -14.55493164 52.30371094 C-14.5378291 57.58187932 -14.54769342 62.85959037 -14.56564903 68.13774204 C-14.57650125 72.20500623 -14.5730341 76.27216238 -14.56526566 80.33942986 C-14.56326821 82.285441 -14.56570688 84.23146204 -14.57270432 86.17746162 C-14.58034367 88.898682 -14.56868034 91.61916632 -14.55200195 94.34033203 C-14.55807465 95.13997879 -14.56414734 95.93962555 -14.57040405 96.76350403 C-14.51623884 101.54642084 -13.9545859 105.01118292 -11.16381836 109.08032227 C-6.23409846 110.48454831 -6.23409846 110.48454831 2.83618164 110.08032227 C2.83618164 74.11032227 2.83618164 38.14032227 2.83618164 1.08032227 C1.18618164 1.08032227 -0.46381836 1.08032227 -2.16381836 1.08032227 Z " fill="#8EBC7C" transform="translate(62.163818359375,9.919677734375)"/>
<path d="M0 0 C0.66 0.33 1.32 0.66 2 1 C3.19080426 4.57241279 3.16216094 7.83595718 3.16796875 11.5546875 C3.17129715 12.29324982 3.17462555 13.03181213 3.17805481 13.79275513 C3.18311412 15.35450621 3.18546344 16.91626808 3.18530273 18.47802734 C3.18748555 20.85923226 3.20564119 23.239971 3.22460938 25.62109375 C3.2275443 27.14062342 3.22952843 28.66015529 3.23046875 30.1796875 C3.23765427 30.88817841 3.24483978 31.59666931 3.25224304 32.32662964 C3.23392528 36.31954305 2.88138528 39.4509398 1 43 C-1.685034 45.16294405 -3.52729749 45.9295975 -6.9375 46.4375 C-10.8124426 45.88393677 -12.95425348 44.40826469 -16 42 C-17.63945963 38.72108075 -17.12030178 35.09386466 -17.09765625 31.4921875 C-17.0962413 30.65156769 -17.09482635 29.81094788 -17.09336853 28.94485474 C-17.08776237 26.25486725 -17.07520886 23.56496241 -17.0625 20.875 C-17.05748579 19.05338662 -17.05292275 17.23177193 -17.04882812 15.41015625 C-17.03779094 10.94007223 -17.0205222 6.47005014 -17 2 C-16.67 2 -16.34 2 -16 2 C-15.17362576 14.35134354 -14.87649496 26.6220506 -15 39 C-14.34 39 -13.68 39 -13 39 C-13 40.32 -13 41.64 -13 43 C-9.7 43 -6.4 43 -3 43 C-2.67 41.68 -2.34 40.36 -2 39 C-1.34 39 -0.68 39 0 39 C0 26.13 0 13.26 0 0 Z " fill="#437CA8" transform="translate(127,75)"/>
<path d="M0 0 C0.66 0.33 1.32 0.66 2 1 C1.52949219 1.35191406 1.05898438 1.70382812 0.57421875 2.06640625 C-0.04839844 2.56011719 -0.67101563 3.05382812 -1.3125 3.5625 C-1.92738281 4.03816406 -2.54226562 4.51382812 -3.17578125 5.00390625 C-8.0014594 10.28425215 -8.43755924 16.06110442 -8.37231445 22.86938477 C-8.37596512 23.72883698 -8.37961578 24.58828918 -8.38337708 25.4737854 C-8.39144067 28.29653072 -8.37790853 31.11869443 -8.36328125 33.94140625 C-8.36276219 35.91242981 -8.36328167 37.88345388 -8.36479187 39.85447693 C-8.36470234 43.97752652 -8.35431064 48.10037982 -8.33618164 52.22338867 C-8.31348038 57.50148264 -8.31295518 62.7792904 -8.31969929 68.05741978 C-8.32304445 72.12467481 -8.31639909 76.19186489 -8.30657005 80.25910759 C-8.30272834 82.20511472 -8.30156556 84.15112909 -8.3031559 86.09713936 C-8.30352777 88.81823566 -8.29087257 91.53896824 -8.2746582 94.26000977 C-8.27713562 95.05965652 -8.27961304 95.85930328 -8.28216553 96.68318176 C-8.23957936 101.17328279 -7.69489676 104.76850765 -6 109 C-6.99 108.67 -7.98 108.34 -9 108 C-9 107.34 -9 106.68 -9 106 C-9.66 106 -10.32 106 -11 106 C-11.06957119 94.12562254 -11.12284754 82.25129373 -11.15543652 70.37675381 C-11.17107915 64.86266813 -11.19229201 59.34872211 -11.22631836 53.8347168 C-11.25896152 48.51142571 -11.27686357 43.1882688 -11.28463173 37.86488533 C-11.29016631 35.83594718 -11.30097402 33.8070162 -11.31719017 31.7781353 C-11.33903014 28.93192667 -11.34196416 26.08626945 -11.34057617 23.23999023 C-11.351362 22.40488922 -11.36214783 21.56978821 -11.3732605 20.7093811 C-11.34039192 14.46302674 -10.336529 9.53310123 -5.95703125 4.78515625 C-5.24933594 4.21667969 -4.54164062 3.64820313 -3.8125 3.0625 C-2.73935547 2.18271484 -2.73935547 2.18271484 -1.64453125 1.28515625 C-1.10183594 0.86105469 -0.55914062 0.43695313 0 0 Z " fill="#A1CA93" transform="translate(57,10)"/>
<path d="M0 0 C0.66 0.33 1.32 0.66 2 1 C1.67657623 1.80176666 1.35315247 2.60353333 1.01992798 3.42959595 C-0.21911196 7.76703282 -0.3072959 11.6414741 -0.31884766 16.12646484 C-0.32889328 17.02466949 -0.3389389 17.92287415 -0.34928894 18.84829712 C-0.38005733 21.80250437 -0.39713847 24.75662124 -0.4140625 27.7109375 C-0.43277924 29.76503269 -0.45235303 31.81912024 -0.4727478 33.87319946 C-0.52402144 39.26865119 -0.56367275 44.66412783 -0.60089111 50.05969238 C-0.6409606 55.56980529 -0.69203953 61.07981498 -0.7421875 66.58984375 C-0.83889036 77.39315661 -0.92331325 88.19652781 -1 99 C-1.66 99 -2.32 99 -3 99 C-3.06949845 86.83031248 -3.12281059 74.66067214 -3.15543652 62.49082661 C-3.17109501 56.83992314 -3.19233687 51.18915542 -3.22631836 45.53833008 C-3.2589049 40.08537142 -3.27685163 34.63254337 -3.28463173 29.17949486 C-3.29017648 27.09866467 -3.30100393 25.01784165 -3.31719017 22.93706703 C-3.33895483 20.02339839 -3.3419673 17.11027 -3.34057617 14.1965332 C-3.351362 13.33554016 -3.36214783 12.47454712 -3.3732605 11.58746338 C-3.34887365 6.86972478 -2.98522121 3.88661885 0 0 Z " fill="#E6F7DF" transform="translate(47,17)"/>
<path d="M0 0 C1.8871875 0.0309375 1.8871875 0.0309375 3.8125 0.0625 C3.85883116 9.90256632 3.89437319 19.7426067 3.91612434 29.58275986 C3.92656356 34.15189211 3.9407253 38.72094975 3.96337891 43.29003906 C3.98510233 47.69908634 3.99706759 52.10806184 4.00225449 56.51715851 C4.00595114 58.19968038 4.01316972 59.8821983 4.02396011 61.56468964 C4.03846842 63.92049158 4.04047823 66.27599653 4.03955078 68.63183594 C4.04674133 69.32811096 4.05393188 70.02438599 4.06134033 70.74176025 C4.04612632 74.31086608 3.96756308 77.12723761 1.8125 80.0625 C0.3275 80.5575 0.3275 80.5575 -1.1875 81.0625 C-1.1875 79.0825 -1.1875 77.1025 -1.1875 75.0625 C-0.5275 75.0625 0.1325 75.0625 0.8125 75.0625 C1.1425 50.9725 1.4725 26.8825 1.8125 2.0625 C-1.8175 2.7225 -5.4475 3.3825 -9.1875 4.0625 C-6.53873473 0.0893521 -4.49238456 -0.07364565 0 0 Z " fill="#5D8CAE" transform="translate(159.1875,39.9375)"/>
<path d="M0 0 C2.97 0 5.94 0 9 0 C9.33 26.07 9.66 52.14 10 79 C9.34 79 8.68 79 8 79 C6.52011208 76.04022416 6.86989601 73.04021991 6.88647461 69.79638672 C6.88632858 69.0548233 6.88618256 68.31325989 6.8860321 67.54922485 C6.88673 65.09268287 6.89451666 62.63621627 6.90234375 60.1796875 C6.90420837 58.4786076 6.90563206 56.77752716 6.90663147 55.07644653 C6.91045322 50.59493533 6.9202806 46.11345643 6.93133545 41.63195801 C6.94155692 37.0606327 6.94613067 32.48930219 6.95117188 27.91796875 C6.96190315 18.94529829 6.97897549 9.97265183 7 1 C4.36 1.33 1.72 1.66 -1 2 C-0.67 1.34 -0.34 0.68 0 0 Z " fill="#8EBC7B" transform="translate(26,41)"/>
<path d="M0 0 C1.09561691 3.54078641 1.12057444 6.81899445 1.11352539 10.51269531 C1.11367142 11.15701508 1.11381744 11.80133484 1.1139679 12.46517944 C1.1132735 14.58619603 1.10550336 16.70712383 1.09765625 18.828125 C1.09579039 20.30214388 1.09436728 21.77616338 1.09336853 23.25018311 C1.08955661 27.12338992 1.07973765 30.99655903 1.06866455 34.86975098 C1.05842193 38.82462046 1.0538648 42.77949606 1.04882812 46.734375 C1.03811418 54.48960049 1.02105369 62.24479496 1 70 C0.67 69.01 0.34 68.02 0 67 C-0.66 67 -1.32 67 -2 67 C-2 45.88 -2 24.76 -2 3 C-1.34 3 -0.68 3 0 3 C0 2.01 0 1.02 0 0 Z " fill="#5A88B1" transform="translate(80,51)"/>
<path d="M0 0 C0.33 0 0.66 0 1 0 C1 20.13 1 40.26 1 61 C0.34 61 -0.32 61 -1 61 C-1.495 63.475 -1.495 63.475 -2 66 C-2.33 66 -2.66 66 -3 66 C-2.93361328 65.21737793 -2.86722656 64.43475586 -2.79882812 63.62841797 C-1.73302632 49.64268661 -1.65636041 35.63329633 -1.44775391 21.61376953 C-1.39630486 18.24503721 -1.33905556 14.87644078 -1.28125 11.5078125 C-1.26767456 10.46634064 -1.25409912 9.42486877 -1.2401123 8.35183716 C-1.21503601 6.92301712 -1.21503601 6.92301712 -1.18945312 5.46533203 C-1.17692505 4.62455109 -1.16439697 3.78377014 -1.15148926 2.91751099 C-1 1 -1 1 0 0 Z " fill="#9BBBD6" transform="translate(141,55)"/>
<path d="M0 0 C0.33 24.09 0.66 48.18 1 73 C0.34 73 -0.32 73 -1 73 C-1 49.9 -1 26.8 -1 3 C-3.64 3 -6.28 3 -9 3 C-9.33 3.99 -9.66 4.98 -10 6 C-10.99 6 -11.98 6 -13 6 C-13.33 7.32 -13.66 8.64 -14 10 C-14.66 9.67 -15.32 9.34 -16 9 C-14.73502412 5.09965772 -13.62588439 3.01438022 -10 1 C-6.53413742 0.20573983 -3.57008128 0 0 0 Z " fill="#1D6197" transform="translate(97,42)"/>
<path d="M0 0 C0 0.99 0 1.98 0 3 C-0.33 3.33 -0.66 3.66 -1 4 C-1.13830866 6.76483778 -1.21315882 9.50289556 -1.23828125 12.26953125 C-1.246353 13.10207932 -1.25442474 13.93462738 -1.26274109 14.79240417 C-1.27659853 16.55860298 -1.28731323 18.32482875 -1.29516602 20.09106445 C-1.31236335 22.79104556 -1.35623104 25.48979745 -1.40039062 28.18945312 C-1.41051855 29.90363681 -1.41903434 31.61783093 -1.42578125 33.33203125 C-1.44328934 34.13945267 -1.46079742 34.94687408 -1.47883606 35.77876282 C-1.4647263 39.43095624 -1.35653186 41.53516742 0.90161133 44.47924805 C3.88863996 46.64401842 5.49033994 47.12112355 9.125 47.0625 C10.40375 47.041875 11.6825 47.02125 13 47 C12.67 47.66 12.34 48.32 12 49 C10.04196493 49.05389087 8.08351091 49.09274217 6.125 49.125 C5.03445312 49.14820313 3.94390625 49.17140625 2.8203125 49.1953125 C0 49 0 49 -2 47 C-2 45.68 -2 44.36 -2 43 C-2.66 43 -3.32 43 -4 43 C-4.04954963 37.9646141 -4.08579037 32.9293711 -4.10986328 27.89379883 C-4.11990208 26.18185961 -4.13353595 24.46993745 -4.15087891 22.75805664 C-4.17522073 20.29308858 -4.18650438 17.82834785 -4.1953125 15.36328125 C-4.20563507 14.60163162 -4.21595764 13.83998199 -4.22659302 13.05525208 C-4.22745894 8.92591189 -3.94536318 5.67519138 -2 2 C-1.34 1.34 -0.68 0.68 0 0 Z " fill="#B6D1E6" transform="translate(112,73)"/>
<path d="M0 0 C1.32 0.33 2.64 0.66 4 1 C4 1.66 4 2.32 4 3 C4.66 3 5.32 3 6 3 C7.70516262 6.41032523 7.20666529 10.30465609 7.23828125 14.05859375 C7.246353 14.95868668 7.25442474 15.8587796 7.26274109 16.78614807 C7.27658152 18.69180371 7.28730386 20.59748414 7.29516602 22.50317383 C7.31241146 25.42251179 7.35630085 28.34072682 7.40039062 31.25976562 C7.41051459 33.10936666 7.41903162 34.95897733 7.42578125 36.80859375 C7.44328934 37.68366074 7.46079742 38.55872772 7.47883606 39.46031189 C7.45701787 45.5321912 7.45701787 45.5321912 4.97338867 48.07446289 C3.99656128 48.53260376 3.99656128 48.53260376 3 49 C2.34 48.67 1.68 48.34 1 48 C1.66 47.34 2.32 46.68 3 46 C4.39128387 42.26669398 4.16175728 38.31368724 4.16796875 34.3828125 C4.17129715 33.6480368 4.17462555 32.91326111 4.17805481 32.15621948 C4.1831073 30.60464095 4.18546365 29.0530516 4.18530273 27.50146484 C4.18748602 25.14011526 4.2056503 22.77923557 4.22460938 20.41796875 C4.22754438 18.90625159 4.22952846 17.39453222 4.23046875 15.8828125 C4.23765427 15.18261993 4.24483978 14.48242737 4.25224304 13.76101685 C4.23244347 9.46635642 3.56993655 5.99386881 2 2 C1.34 2 0.68 2 0 2 C0 1.34 0 0.68 0 0 Z " fill="#E5F6FE" transform="translate(125,71)"/>
<path d="M0 0 C1.47906892 -0.02689216 2.95827483 -0.04634621 4.4375 -0.0625 C5.26121094 -0.07410156 6.08492187 -0.08570313 6.93359375 -0.09765625 C9 0 9 0 10 1 C10.08627301 3.36711352 10.10755834 5.70383876 10.08520508 8.07080078 C10.08202271 8.81072769 10.07884033 9.5506546 10.07556152 10.31300354 C10.06291568 12.77385375 10.04203899 15.23453366 10.01953125 17.6953125 C10.0090957 18.95509226 10.0090957 18.95509226 9.99844933 20.24032211 C9.96098406 24.68991399 9.91694564 29.13938834 9.86791992 33.58886719 C9.81869924 38.17864534 9.7924206 42.76825077 9.77148914 47.3582325 C9.7510694 50.89126339 9.71317116 54.42395596 9.6706295 57.95678329 C9.65332833 59.6479235 9.64260338 61.33914465 9.63868141 63.0303688 C9.63156433 65.40513501 9.59955918 67.77838207 9.56176758 70.15283203 C9.5652269 70.84610092 9.56868622 71.53936981 9.57225037 72.25364685 C9.44723379 77.59414994 7.84520802 80.6420952 5 85 C4.34 85 3.68 85 3 85 C3 85.66 3 86.32 3 87 C2.34 86.67 1.68 86.34 1 86 C2.375 83.5 2.375 83.5 4 81 C4.66 81 5.32 81 6 81 C7.19609012 77.22984542 7.17296041 73.48435605 7.20532227 69.56933594 C7.21522186 68.82748047 7.22512146 68.085625 7.23532104 67.32128906 C7.26684147 64.87568321 7.29165595 62.43005795 7.31640625 59.984375 C7.33698395 58.2861481 7.35798064 56.58792623 7.37937927 54.88970947 C7.43451567 50.4247241 7.48396207 45.95969315 7.53222656 41.49462891 C7.58250322 36.93648228 7.63815709 32.37840166 7.69335938 27.8203125 C7.80083778 18.88026475 7.90230559 9.94015964 8 1 C5.36 1 2.72 1 0 1 C0 0.67 0 0.34 0 0 Z " fill="#E6FCFD" transform="translate(155,39)"/>
<path d="M0 0 C0.33 0.66 0.66 1.32 1 2 C-0.25 4 -0.25 4 -2 6 C-3.32 6 -4.64 6 -6 6 C-6 6.66 -6 7.32 -6 8 C-7.98 8.33 -9.96 8.66 -12 9 C-12 9.66 -12 10.32 -12 11 C-16.95 11 -21.9 11 -27 11 C-26 7 -26 7 -23.5625 5.375 C-22.716875 4.92125 -21.87125 4.4675 -21 4 C-20.34 3.34 -19.68 2.68 -19 2 C-19 3.65 -19 5.3 -19 7 C-17.68 7 -16.36 7 -15 7 C-15 5.02 -15 3.04 -15 1 C-14.34 1 -13.68 1 -13 1 C-13.33 2.98 -13.66 4.96 -14 7 C-12.22483971 6.60217121 -10.45490837 6.18096339 -8.6875 5.75 C-7.70136719 5.51796875 -6.71523437 5.2859375 -5.69921875 5.046875 C-2.65580355 3.86650557 -1.66584638 2.75177354 0 0 Z " fill="#33709F" transform="translate(157,121)"/>
<path d="M0 0 C1.45823212 -0.0270043 2.91660675 -0.04639787 4.375 -0.0625 C5.18710938 -0.07410156 5.99921875 -0.08570313 6.8359375 -0.09765625 C9 0 9 0 11 1 C11 26.41 11 51.82 11 78 C10.67 78 10.34 78 10 78 C10 52.92 10 27.84 10 2 C6.04 2.66 2.08 3.32 -2 4 C-1.34 2.68 -0.68 1.36 0 0 Z " fill="#BDD8EA" transform="translate(89,39)"/>
<path d="M0 0 C2 1 2 1 3.375 3.8125 C4.80314145 7.03734006 4.80314145 7.03734006 7.1875 9.125 C9 11 9 11 9 15 C7.08404032 15.08133791 5.16708068 15.13934367 3.25 15.1875 C2.18265625 15.22230469 1.1153125 15.25710937 0.015625 15.29296875 C-3.30027855 14.97082786 -4.59016673 14.22851086 -7 12 C-5.02 11.34 -3.04 10.68 -1 10 C-1 9.01 -1 8.02 -1 7 C-0.34 7 0.32 7 1 7 C0.67 4.69 0.34 2.38 0 0 Z " fill="#276AA2" transform="translate(99,117)"/>
<path d="M0 0 C1.65 0 3.3 0 5 0 C5 14.52 5 29.04 5 44 C4.67 44 4.34 44 4 44 C4 30.8 4 17.6 4 4 C-0.455 4.495 -0.455 4.495 -5 5 C-5.99 7.64 -6.98 10.28 -8 13 C-8.99 13 -9.98 13 -11 13 C-10.17857636 8.56431237 -8.17658845 5.17658845 -5 2 C-2.375 1.875 -2.375 1.875 0 2 C0 1.34 0 0.68 0 0 Z " fill="#6AA552" transform="translate(60,11)"/>
<path d="M0 0 C0.99 0.33 1.98 0.66 3 1 C2.35125916 1.6883342 1.70251831 2.3766684 1.03411865 3.08586121 C-1.40574647 6.58128444 -1.51358863 8.40171381 -1.54589844 12.6262207 C-1.55623611 13.27068649 -1.56657379 13.91515228 -1.57722473 14.57914734 C-1.60656319 16.69494972 -1.60814985 18.8097918 -1.609375 20.92578125 C-1.62436289 22.39838984 -1.64109132 23.87098165 -1.65948486 25.34355164 C-1.70310313 29.20851429 -1.72314492 33.07325021 -1.73822021 36.93841553 C-1.75781147 40.88681413 -1.79977912 44.83496858 -1.83984375 48.78320312 C-1.91508582 56.5220697 -1.96541325 64.2608336 -2 72 C-2.33 72 -2.66 72 -3 72 C-3.20072142 63.90704491 -3.38437591 55.81395493 -3.54658794 47.72014523 C-3.62244849 43.96137541 -3.70405924 40.20291841 -3.79907227 36.44458008 C-3.89064495 32.81378585 -3.96677171 29.18295881 -4.03244972 25.55160713 C-4.0601022 24.17010086 -4.0932064 22.78869202 -4.13199425 21.40745354 C-4.49884389 8.11105079 -4.49884389 8.11105079 -1 2 C-0.67 1.34 -0.34 0.68 0 0 Z " fill="#F0FEE7" transform="translate(17,45)"/>
<path d="M0 0 C0.33 0 0.66 0 1 0 C1.00586624 0.72805344 1.01173248 1.45610687 1.01777649 2.20622253 C1.07575084 9.07730558 1.14785476 15.9481118 1.23571491 22.81887341 C1.28038664 26.35098666 1.31964938 29.88298544 1.34643555 33.4152832 C1.3774908 37.47897322 1.43227834 41.54204542 1.48828125 45.60546875 C1.49467117 46.8702153 1.5010611 48.13496185 1.50764465 49.43803406 C1.52743881 50.61888077 1.54723297 51.79972748 1.56762695 53.01635742 C1.57873001 54.05338303 1.58983307 55.09040863 1.60127258 56.15885925 C2.05886629 59.41945301 3.22185202 61.26341434 5 64 C5.6875 67.3125 5.6875 67.3125 6 70 C4.5 68.625 4.5 68.625 3 67 C3 66.34 3 65.68 3 65 C2.34 65 1.68 65 1 65 C-0.08457182 61.74628455 -0.12046857 59.3910068 -0.11352539 55.96801758 C-0.11344986 54.72695755 -0.11337433 53.48589752 -0.11329651 52.20722961 C-0.10818991 50.85299642 -0.10297391 49.49876363 -0.09765625 48.14453125 C-0.09579083 46.75876415 -0.09436751 45.37299639 -0.09336853 43.98722839 C-0.0895531 40.3425209 -0.07973113 36.69785335 -0.06866455 33.05316162 C-0.0584295 29.33297262 -0.05386642 25.61277715 -0.04882812 21.89257812 C-0.03810798 14.59503389 -0.02104325 7.29752254 0 0 Z " fill="#84A973" transform="translate(15,56)"/>
<path d="M0 0 C2.5 1.375 2.5 1.375 5 3 C5 3.66 5 4.32 5 5 C11.95068039 7.79080349 18.54508438 8.63419196 26 9 C24.68753462 5.55905814 23.33411133 2.86459118 21 0 C23.375 0.25 23.375 0.25 26 1 C27.375 2.75 27.375 2.75 28 5 C27.625 7.75 27.625 7.75 27 10 C11.39408867 11.98170303 11.39408867 11.98170303 7 9 C5.5 7.625 5.5 7.625 4 6 C3.278125 5.319375 2.55625 4.63875 1.8125 3.9375 C0 2 0 2 0 0 Z " fill="#C9E1EF" transform="translate(82,123)"/>
<path d="M0 0 C0.99 0 1.98 0 3 0 C1.125 5.875 1.125 5.875 0 7 C-0.12263388 8.56448383 -0.17779522 10.13432772 -0.20532227 11.70336914 C-0.22526749 12.70433121 -0.24521271 13.70529327 -0.26576233 14.73658752 C-0.28247482 15.8251152 -0.29918732 16.91364288 -0.31640625 18.03515625 C-0.33718735 19.14354355 -0.35796844 20.25193085 -0.37937927 21.39390564 C-0.44499623 24.95003808 -0.50381596 28.50624703 -0.5625 32.0625 C-0.60567368 34.46680493 -0.64928758 36.87110199 -0.69335938 39.27539062 C-0.80068992 45.18351185 -0.90243331 51.09170991 -1 57 C-1.33 57 -1.66 57 -2 57 C-2 39.84 -2 22.68 -2 5 C-1.34 5 -0.68 5 0 5 C0 3.35 0 1.7 0 0 Z " fill="#EDFAFF" transform="translate(141,49)"/>
<path d="M0 0 C0.66 0.33 1.32 0.66 2 1 C1.52949219 1.35191406 1.05898438 1.70382812 0.57421875 2.06640625 C-0.04839844 2.56011719 -0.67101563 3.05382812 -1.3125 3.5625 C-1.92738281 4.03816406 -2.54226562 4.51382812 -3.17578125 5.00390625 C-7.63597298 9.88433018 -8.38302879 15.27483367 -8.51171875 21.68359375 C-8.52966995 22.38396255 -8.54762115 23.08433136 -8.56611633 23.80592346 C-8.61977555 26.01638989 -8.65396932 28.22664612 -8.6875 30.4375 C-8.72071257 31.94729461 -8.75520581 33.45706163 -8.79101562 34.96679688 C-8.87547395 38.64432933 -8.9424955 42.32193591 -9 46 C-9.33 46 -9.66 46 -10 46 C-10.04956835 41.24944568 -10.08579909 36.49904312 -10.10986328 31.74829102 C-10.11989896 30.13335547 -10.13353051 28.518438 -10.15087891 26.90356445 C-10.17523465 24.57759125 -10.18650747 22.25185905 -10.1953125 19.92578125 C-10.20563507 19.20787918 -10.21595764 18.48997711 -10.22659302 17.75032043 C-10.22774767 12.55020694 -9.7231008 8.78884159 -6.0546875 4.98046875 C-5.33539063 4.38878906 -4.61609375 3.79710937 -3.875 3.1875 C-3.15054688 2.58292969 -2.42609375 1.97835938 -1.6796875 1.35546875 C-0.84824219 0.68451172 -0.84824219 0.68451172 0 0 Z " fill="#98C388" transform="translate(57,10)"/>
<path d="M0 0 C1.875 0.1875 1.875 0.1875 4 1 C6.37583925 5.29980319 6.26010535 9.58254855 6.1953125 14.36328125 C6.1924826 15.15526413 6.18965271 15.94724701 6.18673706 16.76322937 C6.17558863 19.27980999 6.15049422 21.79602789 6.125 24.3125 C6.11496329 26.02408338 6.10583864 27.73567237 6.09765625 29.44726562 C6.07566681 33.63164906 6.04117408 37.81576314 6 42 C5.67 42 5.34 42 5 42 C4.98018066 41.00145996 4.96036133 40.00291992 4.93994141 38.97412109 C4.86355736 35.25024268 4.774892 31.52673839 4.68261719 27.80322266 C4.64446241 26.19522518 4.60958652 24.58714627 4.578125 22.97900391 C4.5321794 20.66018684 4.47423619 18.3419238 4.4140625 16.0234375 C4.40251129 15.31069672 4.39096008 14.59795593 4.37905884 13.86361694 C4.25352521 9.56588751 3.56115961 6.00423744 2 2 C1.34 2 0.68 2 0 2 C0 1.34 0 0.68 0 0 Z " fill="#B2D0E5" transform="translate(125,71)"/>
<path d="M0 0 C2.9719385 1.12451727 5.33440687 2.22293791 8 4 C8 4.99 8 5.98 8 7 C4.70849875 7.08685287 1.4172904 7.14033895 -1.875 7.1875 C-2.81214844 7.21263672 -3.74929687 7.23777344 -4.71484375 7.26367188 C-5.61074219 7.27333984 -6.50664063 7.28300781 -7.4296875 7.29296875 C-8.25710449 7.3086792 -9.08452148 7.32438965 -9.93701172 7.34057617 C-10.61779785 7.22818604 -11.29858398 7.1157959 -12 7 C-12.66 6.01 -13.32 5.02 -14 4 C-13.01 4.33 -12.02 4.66 -11 5 C-8.43365139 5.22718496 -5.88321893 5.41608184 -3.3125 5.5625 C-2.61060547 5.60568359 -1.90871094 5.64886719 -1.18554688 5.69335938 C0.54275206 5.7991736 2.2713511 5.90006581 4 6 C4 5.34 4 4.68 4 4 C2.68 3.34 1.36 2.68 0 2 C0 1.34 0 0.68 0 0 Z " fill="#A5C698" transform="translate(40,125)"/>
<path d="M0 0 C0.33 1.32 0.66 2.64 1 4 C-6.04335384 5.96290189 -11.77466796 5.99939172 -19 5 C-19 4.34 -19 3.68 -19 3 C-12.73 3 -6.46 3 0 3 C0 2.01 0 1.02 0 0 Z " fill="#F1FDEA" transform="translate(48,129)"/>
<path d="M0 0 C0.66 0 1.32 0 2 0 C1.01032746 2.63187642 0.46024489 3.77073303 -2.1015625 5.046875 C-7.58600777 6.5750486 -12.30309886 7.49972817 -18 7 C-18.99 6.34 -19.98 5.68 -21 5 C-16.05 5 -11.1 5 -6 5 C-6 4.34 -6 3.68 -6 3 C-4.02 2.67 -2.04 2.34 0 2 C0 1.34 0 0.68 0 0 Z " fill="#D3E9F4" transform="translate(151,127)"/>
<path d="M0 0 C4.6875 3.515625 4.6875 3.515625 6 5 C6 6.32 6 7.64 6 9 C4.08404032 9.08133791 2.16708068 9.13934367 0.25 9.1875 C-0.81734375 9.22230469 -1.8846875 9.25710937 -2.984375 9.29296875 C-6 9 -6 9 -10 6 C-3.07 6.495 -3.07 6.495 4 7 C2.68 5.35 1.36 3.7 0 2 C0 1.34 0 0.68 0 0 Z " fill="#5D89AD" transform="translate(102,123)"/>
<path d="M0 0 C0.66 0 1.32 0 2 0 C2 0.66 2 1.32 2 2 C1.34 2 0.68 2 0 2 C0 2.66 0 3.32 0 4 C3.96 4 7.92 4 12 4 C12 4.66 12 5.32 12 6 C7.05 6 2.1 6 -3 6 C-2 2 -2 2 0 0 Z " fill="#7299B5" transform="translate(133,126)"/>
<path d="M0 0 C2.36889021 4.73778043 3.04875255 6.63970918 2 12 C0.68 12 -0.64 12 -2 12 C-2.17835515 7.45194365 -1.99785435 4.1205746 0 0 Z " fill="#316FA0" transform="translate(140,116)"/>
<path d="M0 0 C0 0.66 0 1.32 0 2 C-0.66 2 -1.32 2 -2 2 C-2 2.66 -2 3.32 -2 4 C-3.98689731 5.35278115 -5.98745218 6.68568305 -8 8 C-8.33 8.66 -8.66 9.32 -9 10 C-9.66 10 -10.32 10 -11 10 C-9.04225352 3.22318527 -9.04225352 3.22318527 -6 1 C-3.87733361 0.29244454 -2.23416175 0 0 0 Z " fill="#3D75A2" transform="translate(154,43)"/>
<path d="M0 0 C0.33 0 0.66 0 1 0 C1.03738281 0.73605469 1.07476563 1.47210938 1.11328125 2.23046875 C1.48117568 7.69117626 1.85004429 11.40631458 5 16 C5.6875 19.3125 5.6875 19.3125 6 22 C4.5 20.625 4.5 20.625 3 19 C3 18.34 3 17.68 3 17 C2.34 17 1.68 17 1 17 C-0.18681726 13.43954823 -0.09689832 10.56191663 -0.0625 6.8125 C-0.05347656 5.54019531 -0.04445313 4.26789063 -0.03515625 2.95703125 C-0.02355469 1.98121094 -0.01195312 1.00539063 0 0 Z " fill="#92B982" transform="translate(15,104)"/>
<path d="M0 0 C0.99 0 1.98 0 3 0 C1.125 5.875 1.125 5.875 0 7 C-0.23678716 9.69235776 -0.42198025 12.36498156 -0.5625 15.0625 C-0.60568359 15.82111328 -0.64886719 16.57972656 -0.69335938 17.36132812 C-0.79973633 19.24065438 -0.90039934 21.12030244 -1 23 C-1.33 23 -1.66 23 -2 23 C-2 17.06 -2 11.12 -2 5 C-1.34 5 -0.68 5 0 5 C0 3.35 0 1.7 0 0 Z " fill="#DFEFF7" transform="translate(141,49)"/>
<path d="M0 0 C-0.66 1.65 -1.32 3.3 -2 5 C-2.99 5 -3.98 5 -5 5 C-5.33 6.32 -5.66 7.64 -6 9 C-6.66 8.67 -7.32 8.34 -8 8 C-6.65580512 3.85539913 -4.87800266 0 0 0 Z " fill="#4479A1" transform="translate(89,43)"/>
<path d="M0 0 C0.33 0.99 0.66 1.98 1 3 C1.66 3 2.32 3 3 3 C3.309375 3.8971875 3.309375 3.8971875 3.625 4.8125 C5.50926082 7.81018767 7.81132084 8.61361776 11 10 C9.3125 10.6875 9.3125 10.6875 7 11 C4.16023937 9.71534638 2.44368215 8.65495937 0.6875 6.0625 C0 4 0 4 0 0 Z " fill="#CDE8C1" transform="translate(15,118)"/>
<path d="M0 0 C3.3 0 6.6 0 10 0 C10 0.66 10 1.32 10 2 C10.66 2 11.32 2 12 2 C11.67 2.66 11.34 3.32 11 4 C5.06 3.01 5.06 3.01 -1 2 C-0.67 1.34 -0.34 0.68 0 0 Z " fill="#4D7EA4" transform="translate(115,71)"/>
<path d="M0 0 C0.33 0 0.66 0 1 0 C1.35233161 5.37305699 1.35233161 5.37305699 1 8 C-1 10 -1 10 -3 11 C-3.66 10.67 -4.32 10.34 -5 10 C-4.34 9.34 -3.68 8.68 -3 8 C-2.3574765 5.93125966 -2.3574765 5.93125966 -2 4 C-1.34 4 -0.68 4 0 4 C0 2.68 0 1.36 0 0 Z " fill="#D9EDF7" transform="translate(131,109)"/>
<path d="M0 0 C2.31 0.33 4.62 0.66 7 1 C6.67 1.99 6.34 2.98 6 4 C6.66 4 7.32 4 8 4 C8 4.66 8 5.32 8 6 C6.68 5.67 5.36 5.34 4 5 C4 4.34 4 3.68 4 3 C2.68 2.34 1.36 1.68 0 1 C0 0.67 0 0.34 0 0 Z " fill="#306C9D" transform="translate(83,123)"/>
<path d="M0 0 C2.375 0.25 2.375 0.25 5 1 C7.09862498 3.89810116 7 5.28378861 7 9 C6.34 9 5.68 9 5 9 C4.731875 8.2575 4.46375 7.515 4.1875 6.75 C3.05770579 4.13363446 1.79106798 2.19812889 0 0 Z " fill="#BFD9E8" transform="translate(103,123)"/>
<path d="M0 0 C4.455 0.99 4.455 0.99 9 2 C9 2.33 9 2.66 9 3 C8.06027344 3.09087891 8.06027344 3.09087891 7.1015625 3.18359375 C6.28429687 3.26738281 5.46703125 3.35117188 4.625 3.4375 C3.81289062 3.51871094 3.00078125 3.59992188 2.1640625 3.68359375 C-0.04272805 3.89090114 -0.04272805 3.89090114 -2 5 C-1.34 3.35 -0.68 1.7 0 0 Z " fill="#C7E0EE" transform="translate(115,68)"/>
<path d="M0 0 C0.6875 1.75 0.6875 1.75 1 4 C-0.3125 6.25 -0.3125 6.25 -2 8 C-2.66 8 -3.32 8 -4 8 C-4 8.66 -4 9.32 -4 10 C-4.66 9.67 -5.32 9.34 -6 9 C-4.625 6.5 -4.625 6.5 -3 4 C-2.34 4 -1.68 4 -1 4 C-0.67 2.68 -0.34 1.36 0 0 Z " fill="#D9EAF6" transform="translate(162,116)"/>
<path d="M0 0 C0.33 0 0.66 0 1 0 C1.36253776 5.43806647 1.36253776 5.43806647 -0.25 7.9375 C-2 9 -2 9 -4.1875 8.6875 C-4.785625 8.460625 -5.38375 8.23375 -6 8 C-5.01 8 -4.02 8 -3 8 C-2.67 6.68 -2.34 5.36 -2 4 C-1.34 4 -0.68 4 0 4 C0 2.68 0 1.36 0 0 Z " fill="#236295" transform="translate(127,110)"/>
<path d="M0 0 C2 1.375 2 1.375 4 3 C4 3.66 4 4.32 4 5 C0.7 5 -2.6 5 -6 5 C-6 4.67 -6 4.34 -6 4 C-4.02 4 -2.04 4 0 4 C0 2.68 0 1.36 0 0 Z " fill="#1D5E92" transform="translate(102,125)"/>
<path d="M0 0 C-0.75 2.4375 -0.75 2.4375 -2 5 C-4.125 5.8125 -4.125 5.8125 -6 6 C-6 5.01 -6 4.02 -6 3 C-5.34 3 -4.68 3 -4 3 C-4 2.34 -4 1.68 -4 1 C-2 0 -2 0 0 0 Z " fill="#C5E0F0" transform="translate(138,121)"/>
<path d="M0 0 C0.66 0.33 1.32 0.66 2 1 C0.824375 1.928125 0.824375 1.928125 -0.375 2.875 C-2.96837647 4.89858661 -2.96837647 4.89858661 -5 7 C-5 5.35 -5 3.7 -5 2 C-2.625 0.9375 -2.625 0.9375 0 0 Z " fill="#D4E9F8" transform="translate(149,42)"/>
<path d="M0 0 C0 1.65 0 3.3 0 5 C-1.32 5 -2.64 5 -4 5 C-4 3.68 -4 2.36 -4 1 C-1 0 -1 0 0 0 Z " fill="#045A9D" transform="translate(142,123)"/>
<path d="M0 0 C1 2 1 2 0.0625 5.125 C-0.288125 6.07375 -0.63875 7.0225 -1 8 C-1.99 7.67 -2.98 7.34 -4 7 C-2.92598892 4.08482708 -2.22189824 2.22189824 0 0 Z " fill="#75A95F" transform="translate(21,46)"/>
<path d="M0 0 C0.99 0.99 1.98 1.98 3 3 C0.03 5.475 0.03 5.475 -3 8 C-3 6.35 -3 4.7 -3 3 C-2.01 3 -1.02 3 0 3 C0 2.01 0 1.02 0 0 Z " fill="#D5EBF7" transform="translate(84,41)"/>
<path d="M0 0 C0.66 0.33 1.32 0.66 2 1 C0.515 4.465 0.515 4.465 -1 8 C-1.33 8 -1.66 8 -2 8 C-1.125 1.125 -1.125 1.125 0 0 Z " fill="#E9F8E1" transform="translate(47,17)"/>
<path d="M0 0 C1.65 0 3.3 0 5 0 C0.25 4.875 0.25 4.875 -2 6 C-1.49396008 3.83125748 -1.00016187 2.00032373 0 0 Z " fill="#EBF9E2" transform="translate(52,10)"/>
</svg>
