<?xml version="1.0" encoding="UTF-8"?>
<svg version="1.1" xmlns="http://www.w3.org/2000/svg" width="416" height="116">
<path d="M0 0 C1.21816406 0.03480469 1.21816406 0.03480469 2.4609375 0.0703125 C3.68683594 0.09738281 3.68683594 0.09738281 4.9375 0.125 C5.87722656 0.15980469 5.87722656 0.15980469 6.8359375 0.1953125 C6.90536522 8.63568668 6.95871164 17.0759421 6.99137402 25.51653099 C7.00704821 29.43560222 7.02831798 33.35447849 7.06225586 37.2734375 C7.09478751 41.05355375 7.1127773 44.83348217 7.12056923 48.61372757 C7.12612395 50.05788761 7.13697071 51.50203706 7.15312767 52.9461174 C7.17481714 54.96446507 7.17616217 56.98300067 7.17651367 59.00146484 C7.18317551 60.15174164 7.18983734 61.30201843 7.19670105 62.4871521 C7.07764908 63.38084503 6.95859711 64.27453796 6.8359375 65.1953125 C3.287324 67.56105484 2.259485 67.30396515 -1.8515625 66.8203125 C-2.84542969 66.70945312 -3.83929688 66.59859375 -4.86328125 66.484375 C-5.62253906 66.38898438 -6.38179687 66.29359375 -7.1640625 66.1953125 C-8.17409281 63.16522158 -8.30827896 61.07272951 -8.34106445 57.90112305 C-8.35389969 56.81957443 -8.36673492 55.73802582 -8.37995911 54.623703 C-8.38734604 53.45495132 -8.39473297 52.28619965 -8.40234375 51.08203125 C-8.4104155 49.87972366 -8.41848724 48.67741608 -8.42680359 47.43867493 C-8.44064222 44.89248089 -8.45136536 42.34626833 -8.45922852 39.80004883 C-8.47644813 35.90865927 -8.52033897 32.01811768 -8.56445312 28.12695312 C-8.57457947 25.65365208 -8.58309575 23.18034382 -8.58984375 20.70703125 C-8.60735184 19.54435226 -8.62485992 18.38167328 -8.64289856 17.1837616 C-8.62657862 11.09771562 -8.10602012 0.73159026 0 0 Z " fill="#65A84A" transform="translate(32.1640625,27.8046875)"/>
<path d="M0 0 C1.65 0 3.3 0 5 0 C5 0.66 5 1.32 5 2 C5.99 1.34 6.98 0.68 8 0 C12.89789627 0.08029338 17.01702016 0.54737699 20.8125 3.9921875 C23.59060237 8.68937375 23.58108959 14.6625036 24 20 C26.40575607 17.81482901 27.79535581 15.74080329 29.1875 12.8125 C29.53167969 12.09707031 29.87585938 11.38164063 30.23046875 10.64453125 C30.48441406 10.10183594 30.73835938 9.55914062 31 9 C28.69 8.34 26.38 7.68 24 7 C24.33 5.02 24.66 3.04 25 1 C32.92 0.505 32.92 0.505 41 0 C41 0.66 41 1.32 41 2 C41.66 2 42.32 2 43 2 C42.75673529 9.66283829 40.66258997 13.96857627 36 20 C38.31 20.66 40.62 21.32 43 22 C43.625 23.8125 43.625 23.8125 44 26 C43.34 26.99 42.68 27.98 42 29 C39.38623047 29.34057617 39.38623047 29.34057617 36.1171875 29.29296875 C34.95058594 29.28330078 33.78398437 29.27363281 32.58203125 29.26367188 C31.35871094 29.23853516 30.13539063 29.21339844 28.875 29.1875 C27.64394531 29.17396484 26.41289062 29.16042969 25.14453125 29.14648438 C22.09592157 29.11103543 19.048175 29.06162079 16 29 C13.94600062 25.26449079 13.84416594 22.71806689 14 18.4375 C14.28246076 13.39118762 14.28246076 13.39118762 12 9 C11.01 9 10.02 9 9 9 C6.76750501 12.5632371 6.81961766 15.41775701 6.9375 19.5625 C7.09789474 25.70631579 7.09789474 25.70631579 6 29 C4.02 29 2.04 29 0 29 C-2.4100947 25.27965541 -2.30574065 21.5965669 -2.25 17.3125 C-2.24613281 16.60222656 -2.24226562 15.89195313 -2.23828125 15.16015625 C-2.15145004 9.87310012 -1.45728295 5.10049031 0 0 Z M23 22 C24 24 24 24 24 24 Z " fill="#67A44F" transform="translate(205,35)"/>
<path d="M0 0 C2.31 0.33 4.62 0.66 7 1 C8.32 5.95 9.64 10.9 11 16 C12.98149603 13.02775596 13.48798021 11.37032887 14.125 7.9375 C14.37636719 6.62072266 14.37636719 6.62072266 14.6328125 5.27734375 C15.05305973 3.05537602 15.05305973 3.05537602 15 1 C20.625 -0.125 20.625 -0.125 24 1 C24.33 3.64 24.66 6.28 25 9 C25.66 9 26.32 9 27 9 C27.33 11.64 27.66 14.28 28 17 C29.59138085 12.82262526 30.21278058 9.46839215 30 5 C30.99 4.67 31.98 4.34 33 4 C33.73323796 1.98491642 33.73323796 1.98491642 34 0 C36.31 0.66 38.62 1.32 41 2 C41 3.65 41 5.3 41 7 C40.34 7 39.68 7 39 7 C38.67 10.63 38.34 14.26 38 18 C37.01 18.33 36.02 18.66 35 19 C34.93941406 19.56847656 34.87882812 20.13695313 34.81640625 20.72265625 C34.29823427 25.49781037 33.70756141 30.2492305 33 35 C31.3125 35.6875 31.3125 35.6875 29 36 C26.25 34.8125 26.25 34.8125 24 33 C24 31.68 24 30.36 24 29 C23.34 28.67 22.68 28.34 22 28 C21.5859375 25.93359375 21.5859375 25.93359375 21.375 23.4375 C21.30023438 22.61121094 21.22546875 21.78492187 21.1484375 20.93359375 C21.07496094 19.97646484 21.07496094 19.97646484 21 19 C17.86577425 21.51933677 17.47359613 23.6536826 16.9375 27.5625 C16.20833333 32.79166667 16.20833333 32.79166667 14 35 C10.375 34.625 10.375 34.625 7 34 C6.85900879 33.40574219 6.71801758 32.81148437 6.57275391 32.19921875 C5.9239933 29.4660291 5.27450126 26.73301374 4.625 24 C4.40328125 23.06542969 4.1815625 22.13085938 3.953125 21.16796875 C2.94708432 16.93667999 1.93033918 12.7113767 0.84375 8.5 C0.11668711 5.48403542 -0.19220902 3.07534435 0 0 Z " fill="#175E94" transform="translate(261,29)"/>
<path d="M0 0 C0.01458252 1.27641357 0.02916504 2.55282715 0.04418945 3.86791992 C0.1022354 8.61120379 0.17946828 13.35401607 0.26245117 18.09692383 C0.29567083 20.14827816 0.32371197 22.19972325 0.34643555 24.2512207 C0.3800357 27.20302949 0.43235476 30.15400886 0.48828125 33.10546875 C0.49467117 34.02023483 0.5010611 34.93500092 0.50764465 35.87748718 C0.61858165 40.70026906 0.80390379 44.12612967 4 48 C4.99 48.66 5.98 49.32 7 50 C6.67 51.65 6.34 53.3 6 55 C-7.07692308 55 -7.07692308 55 -12 51 C-16.47090154 44.29364769 -15.18614309 35.51388075 -15.18530273 27.72290039 C-15.18749689 25.44073034 -15.20570859 23.15903837 -15.22460938 20.87695312 C-15.22754254 19.41666831 -15.22952785 17.95638121 -15.23046875 16.49609375 C-15.23457764 15.17794678 -15.23868652 13.8597998 -15.24291992 12.50170898 C-14.92835685 7.96725853 -14.02135768 5.18609279 -11.0625 1.75 C-7.27042143 -1.46752121 -4.63715157 -0.92743031 0 0 Z " fill="#64A848" transform="translate(21,46)"/>
<path d="M0 0 C0.01981934 1.24612061 0.03963867 2.49224121 0.06005859 3.77612305 C0.13623654 8.40751051 0.22493532 13.03858881 0.31738281 17.66967773 C0.35562217 19.67254524 0.39048381 21.67548025 0.421875 23.6784668 C0.46763496 26.56062917 0.52561154 29.44232894 0.5859375 32.32421875 C0.59748871 33.21711105 0.60903992 34.11000336 0.62094116 35.029953 C0.73391946 42.46867417 0.73391946 42.46867417 4.625 48.5625 C6 50 6 50 6 54 C-5.94355301 54.56475645 -5.94355301 54.56475645 -10 51 C-16.30754032 44.34204077 -15.21633001 36.41208997 -15.24023438 27.76269531 C-15.24993936 25.63827337 -15.28100127 23.51482042 -15.3125 21.390625 C-15.31903167 20.02344318 -15.3242815 18.65625452 -15.328125 17.2890625 C-15.3374707 16.05881348 -15.34681641 14.82856445 -15.35644531 13.56103516 C-14.88139003 8.81503765 -13.50524362 4.96336124 -10.5625 1.125 C-6.9406818 -1.4827091 -4.18512038 -0.91161038 0 0 Z " fill="#0E5B9A" transform="translate(57,46)"/>
<path d="M0 0 C0.12719457 6.2802966 0.2145156 12.56025881 0.2746582 18.84155273 C0.29974031 20.97644463 0.33381445 23.11125118 0.37719727 25.24584961 C0.43812582 28.32166647 0.46627324 31.3963442 0.48828125 34.47265625 C0.51408768 35.42084732 0.5398941 36.36903839 0.56648254 37.34596252 C0.56922249 43.87853865 -0.63885227 47.093862 -5 52 C-9.20682517 54.76448511 -15.10836452 54.80517186 -20 54 C-20.66 53.01 -21.32 52.02 -22 51 C-21.37609375 50.75677002 -20.7521875 50.51354004 -20.109375 50.26293945 C-16.76014603 48.25766614 -16.49514275 45.7147386 -15.52734375 42.07568359 C-14.51619986 36.1782805 -14.81819598 30.27264174 -15 24.3125 C-15.49994502 7.7726523 -15.49994502 7.7726523 -10.625 1.125 C-7.07937723 -1.32966192 -3.9769006 -1.11454539 0 0 Z " fill="#105C98" transform="translate(93,46)"/>
<path d="M0 0 C4.98473506 0.10993991 8.47043674 0.78594458 12.42285156 3.83813477 C16.55090291 8.24435669 18.03668226 14.44800561 17.87207031 20.38500977 C17.03182315 25.25518023 15.6662311 29.10178335 11.87207031 32.38500977 C7.28402686 35.4437054 3.58498199 35.54011077 -1.75292969 35.51000977 C-2.44644531 35.51387695 -3.13996094 35.51774414 -3.85449219 35.52172852 C-9.00126322 35.51167623 -9.00126322 35.51167623 -10.12792969 34.38500977 C-10.22875732 31.94840531 -10.26765572 29.54076276 -10.26074219 27.10375977 C-10.26169891 26.3750769 -10.26265564 25.64639404 -10.26364136 24.89562988 C-10.26432304 23.35221267 -10.26246956 21.8087926 -10.25830078 20.26538086 C-10.25295231 17.89503577 -10.25824611 15.52488017 -10.26464844 13.15454102 C-10.26398765 11.65844684 -10.26270649 10.16235279 -10.26074219 8.66625977 C-10.26276642 7.95272339 -10.26479065 7.23918701 -10.26687622 6.50402832 C-10.22965586 -1.25825952 -7.15891029 0.03469448 0 0 Z M-2.12792969 8.38500977 C-2.12792969 14.65500977 -2.12792969 20.92500977 -2.12792969 27.38500977 C0.84207031 27.05500977 3.81207031 26.72500977 6.87207031 26.38500977 C9.48697829 20.70280126 9.48697829 20.70280126 9.30957031 14.57250977 C7.81135189 11.25037327 7.14061167 9.92848763 3.87207031 8.38500977 C1.89207031 8.38500977 -0.08792969 8.38500977 -2.12792969 8.38500977 Z " fill="#63A449" transform="translate(129.1279296875,28.614990234375)"/>
<path d="M0 0 C0.66 0.33 1.32 0.66 2 1 C2 0.34 2 -0.32 2 -1 C3.65 -1 5.3 -1 7 -1 C8.25274038 1.50548077 8.19101089 3.35499751 8.28125 6.15625 C8.31863281 7.17847656 8.35601562 8.20070313 8.39453125 9.25390625 C8.46484375 11.41796875 8.53515625 13.58203125 8.60546875 15.74609375 C8.64285156 16.76832031 8.68023437 17.79054688 8.71875 18.84375 C8.74904297 19.78412109 8.77933594 20.72449219 8.81054688 21.69335938 C8.85800096 24.02641574 8.85800096 24.02641574 10 26 C6.18398858 28.54400761 3.04585144 28.33116914 -1.375 28.3125 C-2.50808594 28.33666992 -2.50808594 28.33666992 -3.6640625 28.36132812 C-8.2862403 28.36536849 -11.2176749 27.92756236 -15 25 C-18.58102034 21.04852928 -18.50272725 16.82493738 -18.3515625 11.7265625 C-17.69290945 6.61834214 -15.63618234 3.49593814 -11.8125 0 C-7.75197918 -1.44374073 -4.16724734 -0.88420965 0 0 Z M-8.1875 8.5625 C-10.64520699 11.86769216 -10.52140959 13.97769747 -10 18 C-6.79191085 20.1387261 -5.72301503 20.47730962 -2 20 C0.32579101 16.51131349 0.41865457 15.10281481 0 11 C-1.17558668 8.59696445 -1.17558668 8.59696445 -3 7 C-6.04117104 6.7093809 -6.04117104 6.7093809 -8.1875 8.5625 Z " fill="#83AA70" transform="translate(192,36)"/>
<path d="M0 0 C2.31 0 4.62 0 7 0 C7.93423645 3.01031744 8.04449911 3.86650268 7 7 C8.19625 6.9175 9.3925 6.835 10.625 6.75 C15.10407241 6.75 17.56159946 8.05279954 21 11 C22.86053917 13.98579199 23.24816887 16.23868673 23.23046875 19.73046875 C23.22853516 20.61541016 23.22660156 21.50035156 23.22460938 22.41210938 C23.20624023 23.78592773 23.20624023 23.78592773 23.1875 25.1875 C23.18685547 26.11498047 23.18621094 27.04246094 23.18554688 27.99804688 C23.14037187 34.85962813 23.14037187 34.85962813 22 36 C19.5625 36.1875 19.5625 36.1875 17 36 C14.08520867 33.08520867 14.57778933 29.91441455 14.4375 26 C14.43198027 20.84255203 14.43198027 20.84255203 13 16 C10.97536745 15.34786708 10.97536745 15.34786708 9 15 C7.5320949 19.66059868 7.62328552 24.57795646 7.39453125 29.41992188 C7.10224581 34.89775419 7.10224581 34.89775419 6 36 C4.00041636 36.04080783 1.99954746 36.04254356 0 36 C-1.03685261 31.82116978 -1.0379136 28.02366716 -0.87890625 23.73046875 C-0.85529526 23.04946609 -0.83168427 22.36846344 -0.80735779 21.66682434 C-0.73121614 19.50681088 -0.64698181 17.34720172 -0.5625 15.1875 C-0.50922961 13.71681619 -0.45648961 12.24611307 -0.40429688 10.77539062 C-0.27566911 7.18334976 -0.13978528 3.59162595 0 0 Z " fill="#619D48" transform="translate(149,28)"/>
<path d="M0 0 C2.125 1.6875 2.125 1.6875 3.125 4.6875 C3.785 4.6875 4.445 4.6875 5.125 4.6875 C5.125 10.6875 5.125 16.6875 5.125 22.6875 C4.485625 22.81125 3.84625 22.935 3.1875 23.0625 C2.506875 23.26875 1.82625 23.475 1.125 23.6875 C0.795 24.3475 0.465 25.0075 0.125 25.6875 C-5.18869638 27.45873213 -9.27257482 27.45903805 -14.25 25.0625 C-18.39004506 21.31674495 -18.9570867 17.63228194 -19.25 12.25 C-19.12596556 7.35477416 -17.82196277 4.59023448 -14.875 0.6875 C-10.21714873 -2.20792106 -4.94359515 -2.25685865 0 0 Z M-7.875 4.6875 C-8.535 5.3475 -9.195 6.0075 -9.875 6.6875 C-9.875 7.3475 -9.875 8.0075 -9.875 8.6875 C-7.565 8.6875 -5.255 8.6875 -2.875 8.6875 C-3.205 7.6975 -3.535 6.7075 -3.875 5.6875 C-5.78208843 4.77321661 -5.78208843 4.77321661 -7.875 4.6875 Z M-7.875 15.6875 C-8.865 17.1725 -8.865 17.1725 -9.875 18.6875 C-7.4 19.1825 -7.4 19.1825 -4.875 19.6875 C-3.885 18.3675 -2.895 17.0475 -1.875 15.6875 C-4.79134129 15.4372843 -4.79134129 15.4372843 -7.875 15.6875 Z " fill="#12588A" transform="translate(320.875,37.3125)"/>
<path d="M0 0 C0.99 0 1.98 0 3 0 C3 0.66 3 1.32 3 2 C3.66 2 4.32 2 5 2 C5.33 10.91 5.66 19.82 6 29 C0 29 0 29 -3 27 C-3 27.66 -3 28.32 -3 29 C-4.41655793 29.0272415 -5.83327045 29.04650467 -7.25 29.0625 C-8.43335938 29.07990234 -8.43335938 29.07990234 -9.640625 29.09765625 C-11.90691002 29.00385306 -13.8288895 28.63241063 -16 28 C-16.33 26.68 -16.66 25.36 -17 24 C-18.32 23.67 -19.64 23.34 -21 23 C-21 22.34 -21 21.68 -21 21 C-20.34 21 -19.68 21 -19 21 C-19.33 20.34 -19.66 19.68 -20 19 C-20.87471906 15.28244402 -21.37053479 11.81274931 -21 8 C-18.65349779 4.6698955 -15.59617909 2.79808954 -12 1 C-7.83264813 0.84274144 -4.05558072 1.01682892 0 2 C0 1.34 0 0.68 0 0 Z M-8 8 C-8.33 8.66 -8.66 9.32 -9 10 C-11.0625 10.625 -11.0625 10.625 -13 11 C-13.29562367 16.32170494 -13.29562367 16.32170494 -11 21 C-8.6433774 22.08805146 -8.6433774 22.08805146 -6 22 C-3.64015534 20.2301165 -2.34458824 18.71214903 -1.0625 16.0625 C-0.96839187 12.95693181 -2.11466513 11.40542724 -4 9 C-6.08533633 8.12177688 -6.08533633 8.12177688 -8 8 Z " fill="#246491" transform="translate(348,35)"/>
<path d="M0 0 C1.32 0 2.64 0 4 0 C4 1.65 4 3.3 4 5 C5.65 4.67 7.3 4.34 9 4 C9.33 2.68 9.66 1.36 10 0 C11.32 0 12.64 0 14 0 C14.25287193 6.06892629 13.69832609 11.16200408 12 17 C9.98177083 16.96744792 7.96354167 16.93489583 5.9453125 16.90234375 C3.91814596 16.87350758 3.91814596 16.87350758 2 18 C-0.125 17.5625 -0.125 17.5625 -2 17 C-2 14.36 -2 11.72 -2 9 C-2.66 8.67 -3.32 8.34 -4 8 C-4.33 11.3 -4.66 14.6 -5 18 C-6.32 17.67 -7.64 17.34 -9 17 C-9.61875 17.185625 -10.2375 17.37125 -10.875 17.5625 C-14.06804805 18.21989225 -16.09376501 17.35624299 -19 16 C-19.875 13.875 -19.875 13.875 -20 12 C-21.20628008 14.33214148 -22.1654738 16.49642139 -23 19 C-23.763125 18.67 -24.52625 18.34 -25.3125 18 C-27.99069135 16.82563314 -27.99069135 16.82563314 -31 17 C-31.66 13.04 -32.32 9.08 -33 5 C-29.4819894 4.12049735 -27.52089836 4 -24 4 C-23.67 4.66 -23.34 5.32 -23 6 C-22.34 5.01 -21.68 4.02 -21 3 C-18.1099078 3 -15.58339497 3.13308554 -12.75 3.5 C-8.46607332 4.00440928 -4.31083755 4.07837886 0 4 C0 2.68 0 1.36 0 0 Z M-9 6 C-9 7.65 -9 9.3 -9 11 C-8.67 11 -8.34 11 -8 11 C-8 9.35 -8 7.7 -8 6 C-8.33 6 -8.66 6 -9 6 Z M9 6 C9 6.66 9 7.32 9 8 C7.02 8.99 7.02 8.99 5 10 C5.66 11.65 6.32 13.3 7 15 C7.66 14.67 8.32 14.34 9 14 C9.46523063 12.10466658 9.46523063 12.10466658 9.625 9.9375 C9.74875 8.638125 9.8725 7.33875 10 6 C9.67 6 9.34 6 9 6 Z M-15 8 C-15.33 9.65 -15.66 11.3 -16 13 C-15.34 12.67 -14.68 12.34 -14 12 C-13.34786708 9.97536745 -13.34786708 9.97536745 -13 8 C-13.66 8 -14.32 8 -15 8 Z " fill="#303030" transform="translate(282,78)"/>
<path d="M0 0 C1.4540625 0.0309375 1.4540625 0.0309375 2.9375 0.0625 C2.9375 3.0325 2.9375 6.0025 2.9375 9.0625 C4.13375 8.65 5.33 8.2375 6.5625 7.8125 C10.14030341 6.91804915 10.75659966 6.97874984 14.3125 8.625 C18.23477259 12.26711026 19.02726685 15.40303417 19.23828125 20.63671875 C19.25280338 22.34108844 19.25642208 24.04558054 19.25 25.75 C19.26611328 26.61689453 19.28222656 27.48378906 19.29882812 28.37695312 C19.29947266 29.20517578 19.30011719 30.03339844 19.30078125 30.88671875 C19.30376221 31.64041748 19.30674316 32.39411621 19.30981445 33.1706543 C19.18695068 33.79496338 19.06408691 34.41927246 18.9375 35.0625 C15.9375 37.0625 15.9375 37.0625 13.75 36.6875 C13.151875 36.48125 12.55375 36.275 11.9375 36.0625 C11.90011719 34.79792969 11.86273438 33.53335938 11.82421875 32.23046875 C11.75856167 30.5702827 11.69211424 28.91012778 11.625 27.25 C11.60244141 26.41662109 11.57988281 25.58324219 11.55664062 24.72460938 C11.52119141 23.92216797 11.48574219 23.11972656 11.44921875 22.29296875 C11.42303467 21.55457764 11.39685059 20.81618652 11.36987305 20.05541992 C10.83517037 17.59083609 9.83784653 16.66197676 7.9375 15.0625 C6.9475 15.5575 6.9475 15.5575 5.9375 16.0625 C5.9375 16.7225 5.9375 17.3825 5.9375 18.0625 C5.2775 18.3925 4.6175 18.7225 3.9375 19.0625 C3.6075 24.6725 3.2775 30.2825 2.9375 36.0625 C-0.5275 36.5575 -0.5275 36.5575 -4.0625 37.0625 C-4.0871501 31.95386104 -4.10533607 26.84525641 -4.11743164 21.73657227 C-4.12247204 19.99730832 -4.1293043 18.25804864 -4.13793945 16.51879883 C-4.15001792 14.02424063 -4.15573108 11.52973827 -4.16015625 9.03515625 C-4.16531754 8.25286148 -4.17047882 7.47056671 -4.17579651 6.66456604 C-4.17599226 4.79682886 -4.12449694 2.92920796 -4.0625 1.0625 C-3.0625 0.0625 -3.0625 0.0625 0 0 Z " fill="#2D6A97" transform="translate(389.0625,27.9375)"/>
<path d="M0 0 C3.5441867 1.28193987 4.74814939 1.9678483 6.9375 5.0625 C7.56901879 8.71372148 7.54078863 12.30263055 7.5 16 C7.52384766 16.98935547 7.54769531 17.97871094 7.57226562 18.99804688 C7.56256753 23.8050696 7.52500391 26.27230724 4.59375 30.21484375 C1.9375 32.0625 1.9375 32.0625 -1.125 32.6875 C-4.0625 32.0625 -4.0625 32.0625 -6.2109375 30.2109375 C-8.94436792 25.56295245 -8.68392927 21.35920149 -8.625 16.0625 C-8.64884766 15.07765625 -8.67269531 14.0928125 -8.69726562 13.078125 C-8.68752752 8.27399196 -8.62994878 5.8332846 -5.71875 1.87890625 C-3.0625 0.0625 -3.0625 0.0625 0 0 Z " fill="#0C5B99" transform="translate(68.0625,61.9375)"/>
<path d="M0 0 C0.33 0.66 0.66 1.32 1 2 C1.77085937 1.90460938 2.54171875 1.80921875 3.3359375 1.7109375 C4.33882812 1.60007812 5.34171875 1.48921875 6.375 1.375 C7.37273437 1.25898437 8.37046875 1.14296875 9.3984375 1.0234375 C10.25695312 1.01570313 11.11546875 1.00796875 12 1 C12.66 1.66 13.32 2.32 14 3 C15.92561958 3.0230866 15.92561958 3.0230866 18 2.625 C21.95348837 2 21.95348837 2 24 2 C24.763125 1.79375 25.52625 1.5875 26.3125 1.375 C29.55362946 0.92274938 31.15837942 1.4213219 34 3 C35.09898702 6.29696105 34.87124444 7.40494903 34.0625 10.6875 C33.86785156 11.49574219 33.67320312 12.30398437 33.47265625 13.13671875 C33.31667969 13.75160156 33.16070312 14.36648437 33 15 C32.01 15 31.02 15 30 15 C30.33 12.03 30.66 9.06 31 6 C30.34 6.33 29.68 6.66 29 7 C28.59270772 9.32156597 28.25561323 11.6568787 28 14 C16.18432203 16.50635593 16.18432203 16.50635593 12 15 C12 15.66 12 16.32 12 17 C11.34 17 10.68 17 10 17 C8.71428571 9.57142857 8.71428571 9.57142857 10 6 C9.01 6.495 9.01 6.495 8 7 C8 9.64 8 12.28 8 15 C4.37 15 0.74 15 -3 15 C-3.125 4.25 -3.125 4.25 -2 2 C-1.34 2 -0.68 2 0 2 C0 1.34 0 0.68 0 0 Z M24 4 C24 5.98 24 7.96 24 10 C24.33 10 24.66 10 25 10 C25 8.02 25 6.04 25 4 C24.67 4 24.34 4 24 4 Z M2 6 C2.33 6.66 2.66 7.32 3 8 C3.33 7.34 3.66 6.68 4 6 C3.34 6 2.68 6 2 6 Z M13 7 C12.67 8.65 12.34 10.3 12 12 C12.99 12.495 12.99 12.495 14 13 C14 11.02 14 9.04 14 7 C13.67 7 13.34 7 13 7 Z M17 8 C17.33 9.32 17.66 10.64 18 12 C18 11.34 18 10.68 18 10 C18.66 10 19.32 10 20 10 C20 9.34 20 8.68 20 8 C19.01 8 18.02 8 17 8 Z M2 10 C1.67 10.99 1.34 11.98 1 13 C1.66 13 2.32 13 3 13 C2.67 12.01 2.34 11.02 2 10 Z " fill="#474644" transform="translate(188,80)"/>
<path d="M0 0 C0.99 0 1.98 0 3 0 C3 1.32 3 2.64 3 4 C8.48946087 5.12029814 11.83430559 4.79217969 17 3 C19.24606427 4.77444972 19.95081002 5.58352485 20.29296875 8.48046875 C20.25816406 9.37378906 20.22335938 10.26710938 20.1875 11.1875 C20.16042969 12.08855469 20.13335937 12.98960938 20.10546875 13.91796875 C20.07066406 14.60503906 20.03585938 15.29210937 20 16 C17.02588876 17.23921302 14.14737182 18.30058404 11 19 C10.34 18.01 9.68 17.02 9 16 C7.35 16.33 5.7 16.66 4 17 C4.020625 15.865625 4.04125 14.73125 4.0625 13.5625 C4.41577477 10.18424326 4.41577477 10.18424326 3 9 C3 11.97 3 14.94 3 18 C0.03 17.67 -2.94 17.34 -6 17 C-7.23784389 12.04862444 -7.93248343 7.33120858 -6 2.5 C-5.67 2.005 -5.34 1.51 -5 1 C-3.68 1.33 -2.36 1.66 -1 2 C-0.67 1.34 -0.34 0.68 0 0 Z M-1 3 C-1 4.65 -1 6.3 -1 8 C-0.67 8 -0.34 8 0 8 C0 6.35 0 4.7 0 3 C-0.33 3 -0.66 3 -1 3 Z M-2 8 C-3.29633621 9.06645115 -3.29633621 9.06645115 -3.0625 11.5625 C-3.041875 12.366875 -3.02125 13.17125 -3 14 C-2.34 13.67 -1.68 13.34 -1 13 C-1 11.35 -1 9.7 -1 8 C-1.33 8 -1.66 8 -2 8 Z " fill="#2F2E2E" transform="translate(160,78)"/>
<path d="M0 0 C2.31 0 4.62 0 7 0 C7.2475 0.969375 7.495 1.93875 7.75 2.9375 C8.36875 4.4534375 8.36875 4.4534375 9 6 C11.03243548 6.96877057 11.03243548 6.96877057 13 7 C13 8.65 13 10.3 13 12 C11.35 12.33 9.7 12.66 8 13 C8 17.29 8 21.58 8 26 C9.65 26.33 11.3 26.66 13 27 C13.33 29.31 13.66 31.62 14 34 C8.97762985 34.29543354 6.0892422 34.00679573 2 31 C1 30 1 30 0.90234375 26.18359375 C0.90901911 24.60153318 0.92098125 23.01948841 0.9375 21.4375 C0.94201172 20.63119141 0.94652344 19.82488281 0.95117188 18.99414062 C0.96299482 16.99606244 0.98093086 14.99802217 1 13 C0.01 12.67 -0.98 12.34 -2 12 C-1.54177532 8.53058454 -1.10868317 5.32604951 0 2 C0 1.34 0 0.68 0 0 Z " fill="#0C5896" transform="translate(369,30)"/>
<path d="M0 0 C2.4375 1.1875 2.4375 1.1875 3.4375 3.1875 C4.0975 2.1975 4.7575 1.2075 5.4375 0.1875 C6.4275 0.1875 7.4175 0.1875 8.4375 0.1875 C8.99064717 5.85725849 7.31691841 8.50844508 4.4375 13.1875 C4.4375 13.8475 4.4375 14.5075 4.4375 15.1875 C3.7775 15.1875 3.1175 15.1875 2.4375 15.1875 C2.4375 15.8475 2.4375 16.5075 2.4375 17.1875 C1.7775 17.1875 1.1175 17.1875 0.4375 17.1875 C0.4375 17.8475 0.4375 18.5075 0.4375 19.1875 C-0.5525 18.8575 -1.5425 18.5275 -2.5625 18.1875 C-2.5625 17.5275 -2.5625 16.8675 -2.5625 16.1875 C-4.57238527 15.18255737 -6.58139951 14.40629534 -8.6875 13.625 C-9.41195312 13.35558594 -10.13640625 13.08617188 -10.8828125 12.80859375 C-11.43710938 12.60363281 -11.99140625 12.39867188 -12.5625 12.1875 C-12.6875 4.5625 -12.6875 4.5625 -11.5625 1.1875 C-10.44875 1.043125 -9.335 0.89875 -8.1875 0.75 C-1.102126 -0.34945459 -1.102126 -0.34945459 0 0 Z M-1.5625 6.1875 C-1.68625 7.156875 -1.81 8.12625 -1.9375 9.125 C-2.14375 10.135625 -2.35 11.14625 -2.5625 12.1875 C-3.5525 12.6825 -3.5525 12.6825 -4.5625 13.1875 C-3.2425 13.5175 -1.9225 13.8475 -0.5625 14.1875 C-0.5625 11.5475 -0.5625 8.9075 -0.5625 6.1875 C-0.8925 6.1875 -1.2225 6.1875 -1.5625 6.1875 Z " fill="#31302E" transform="translate(235.5625,81.8125)"/>
<path d="M0 0 C0.99 0 1.98 0 3 0 C3 0.66 3 1.32 3 2 C3.66 2 4.32 2 5 2 C5.33 10.91 5.66 19.82 6 29 C0 29 0 29 -3 27 C-3 27.66 -3 28.32 -3 29 C-5.64 28.67 -8.28 28.34 -11 28 C-10.9375 25.75 -10.9375 25.75 -10 23 C-8.2553525 21.85119035 -6.51448046 21.006172 -4.59375 20.1875 C-2.78804082 19.07511178 -2.78804082 19.07511178 -2.22265625 16.73828125 C-1.97404728 13.68082709 -2.32273007 11.18902378 -2.9375 8.1875 C-3.22947266 6.72376953 -3.22947266 6.72376953 -3.52734375 5.23046875 C-3.68332031 4.49441406 -3.83929688 3.75835937 -4 3 C-2.68 3 -1.36 3 0 3 C0 2.01 0 1.02 0 0 Z " fill="#1D5A88" transform="translate(348,35)"/>
<path d="M0 0 C1.99954746 -0.04254356 4.00041636 -0.04080783 6 0 C7.7329298 1.7329298 7.12820046 3.96214336 7.13894653 6.27148438 C7.1369223 7.00689453 7.13489807 7.74230469 7.1328125 8.5 C7.13376923 9.25087891 7.13472595 10.00175781 7.13571167 10.77539062 C7.13639338 12.36588627 7.13453972 13.95638467 7.13037109 15.546875 C7.12502267 17.98964655 7.13031634 20.43223421 7.13671875 22.875 C7.13605797 24.41666707 7.1347768 25.95833403 7.1328125 27.5 C7.13483673 28.23541016 7.13686096 28.97082031 7.13894653 29.72851562 C7.11495161 34.88504839 7.11495161 34.88504839 6 36 C3.5 36.125 3.5 36.125 1 36 C0 35 0 35 -0.11352539 31.67358398 C-0.11336629 30.19774444 -0.10767314 28.72189931 -0.09765625 27.24609375 C-0.09553383 26.08292381 -0.09553383 26.08292381 -0.09336853 24.89625549 C-0.08775345 22.40996506 -0.07519846 19.9237634 -0.0625 17.4375 C-0.05748694 15.75586067 -0.0529237 14.07421994 -0.04882812 12.39257812 C-0.03777913 8.26168434 -0.02050445 4.13085724 0 0 Z " fill="#165B8C" transform="translate(358,28)"/>
<path d="M0 0 C2.31 0.66 4.62 1.32 7 2 C7 3.65 7 5.3 7 7 C6.34 7 5.68 7 5 7 C4.67 10.63 4.34 14.26 4 18 C3.01 18.33 2.02 18.66 1 19 C0.93941406 19.56847656 0.87882812 20.13695313 0.81640625 20.72265625 C0.29823427 25.49781037 -0.29243859 30.2492305 -1 35 C-3.81822057 36.14816394 -4.85369738 36.05652601 -7.75 34.9375 C-10 33 -10 33 -10.3125 29.8125 C-10.209375 28.884375 -10.10625 27.95625 -10 27 C-9.34 27.33 -8.68 27.66 -8 28 C-7.34 27.34 -6.68 26.68 -6 26 C-5.67 26.99 -5.34 27.98 -5 29 C-4.34 28.67 -3.68 28.34 -3 28 C-2.30906104 25.42048126 -2.30906104 25.42048126 -1.875 22.4375 C-1.70742188 21.42558594 -1.53984375 20.41367187 -1.3671875 19.37109375 C-1.24601562 18.58863281 -1.12484375 17.80617188 -1 17 C-1.33 17.33 -1.66 17.66 -2 18 C-2.66 18.66 -3.32 19.32 -4 20 C-4 19.01 -4 18.02 -4 17 C-4.66 17 -5.32 17 -6 17 C-5.67 16.13375 -5.34 15.2675 -5 14.375 C-4.01268659 11.04281725 -3.83579026 8.44840462 -4 5 C-3.01 4.67 -2.02 4.34 -1 4 C-0.26676204 1.98491642 -0.26676204 1.98491642 0 0 Z " fill="#316D95" transform="translate(295,29)"/>
<path d="M0 0 C0.5775 0.185625 1.155 0.37125 1.75 0.5625 C3.9781762 1.18060548 3.9781762 1.18060548 6 0.375 C8 0 8 0 10.25 1 C12 3 12 3 12.25 6.6875 C12.1675 7.780625 12.085 8.87375 12 10 C11.34 10 10.68 10 10 10 C10 8.02 10 6.04 10 4 C8.35444301 5.22809091 8.35444301 5.22809091 7 7 C7.27036147 9.97397616 7.85446026 10.85446026 10 13 C9 14 9 14 6.4375 14.0625 C5.633125 14.041875 4.82875 14.02125 4 14 C3.34 12.35 2.68 10.7 2 9 C0.79371992 11.33214148 -0.1654738 13.49642139 -1 16 C-1.763125 15.67 -2.52625 15.34 -3.3125 15 C-5.99069135 13.82563314 -5.99069135 13.82563314 -9 14 C-9.66 10.04 -10.32 6.08 -11 2 C-7.4819894 1.12049735 -5.52089836 1 -2 1 C-1.67 1.66 -1.34 2.32 -1 3 C-0.67 2.01 -0.34 1.02 0 0 Z " fill="#161416" transform="translate(260,81)"/>
<path d="M0 0 C1.32 0.33 2.64 0.66 4 1 C4 1.99 4 2.98 4 4 C4.66 4 5.32 4 6 4 C5.835 4.928125 5.67 5.85625 5.5 6.8125 C4.92251612 9.95621353 4.92251612 9.95621353 5 13 C4.6937566 14.33981486 4.36548445 15.67511887 4 17 C2 17 0 17 -2 17 C-2.804375 17.2475 -2.804375 17.2475 -3.625 17.5 C-6.77205513 18.16253792 -9.79405949 18.0616527 -13 18 C-12.835 16.948125 -12.67 15.89625 -12.5 14.8125 C-12.10430322 11.79531204 -11.90821029 9.02906028 -12 6 C-11.01 5.67 -10.02 5.34 -9 5 C-9 4.34 -9 3.68 -9 3 C-6.03 3.33 -3.06 3.66 0 4 C0 2.68 0 1.36 0 0 Z M-1 7 C0 9 0 9 0 9 Z " fill="#2E2E2E" transform="translate(142,78)"/>
<path d="M0 0 C0.65226563 0.16757812 1.30453125 0.33515625 1.9765625 0.5078125 C7.2934679 1.74685535 10.86590915 2.43193777 16 0 C18.05882353 17.27941176 18.05882353 17.27941176 16 25 C14.68 25 13.36 25 12 25 C11.34 24.34 10.68 23.68 10 23 C10 22.01 10 21.02 10 20 C10.66 19.67 11.32 19.34 12 19 C11.67 15.04 11.34 11.08 11 7 C7.04 6.67 3.08 6.34 -1 6 C-1 7.98 -1 9.96 -1 12 C-1.66 12.66 -2.32 13.32 -3 14 C-4.625 13 -4.625 13 -6 11 C-5.79596993 8.17758406 -5.22601777 5.55515853 -4 3 C-3.01 2.67 -2.02 2.34 -1 2 C-0.67 1.34 -0.34 0.68 0 0 Z " fill="#62A348" transform="translate(182,37)"/>
<path d="M0 0 C0.02505615 1.28688721 0.0501123 2.57377441 0.07592773 3.8996582 C0.17001572 8.66880454 0.27023313 13.43780571 0.37231445 18.20678711 C0.41565803 20.27185676 0.45733352 22.33696212 0.49731445 24.40209961 C0.55503083 27.36843635 0.61872151 30.33459345 0.68359375 33.30078125 C0.70030624 34.2258699 0.71701874 35.15095856 0.73423767 36.1040802 C0.75418289 36.96474594 0.77412811 37.82541168 0.79467773 38.7121582 C0.81022202 39.46938675 0.8257663 40.2266153 0.84178162 41.00679016 C0.93632323 43.20924815 0.93632323 43.20924815 2 46 C1.67 46.66 1.34 47.32 1 48 C0.01 47.67 -0.98 47.34 -2 47 C-3.1415622 44.7168756 -3.15334372 43.36520695 -3.20532227 40.82568359 C-3.22526749 39.96494232 -3.24521271 39.10420105 -3.26576233 38.21737671 C-3.28247482 37.28712677 -3.29918732 36.35687683 -3.31640625 35.3984375 C-3.33718735 34.44683746 -3.35796844 33.49523743 -3.37937927 32.51480103 C-3.44488133 29.46827568 -3.5037628 26.42166257 -3.5625 23.375 C-3.60568459 21.31249084 -3.64929886 19.24999063 -3.69335938 17.1875 C-3.8005634 12.12509046 -3.90182902 7.06259245 -4 2 C-8.57748509 4.8795976 -8.57748509 4.8795976 -12 9 C-12.45772063 11.73872955 -12.45772063 11.73872955 -12.625 14.6875 C-12.69976562 15.68136719 -12.77453125 16.67523438 -12.8515625 17.69921875 C-12.90054687 18.45847656 -12.94953125 19.21773437 -13 20 C-15 18 -15 18 -15.265625 16.01171875 C-15.22702835 10.27046707 -14.9404663 6.25344473 -11.0625 1.75 C-7.27042143 -1.46752121 -4.63715157 -0.92743031 0 0 Z " fill="#8BB576" transform="translate(21,46)"/>
<path d="M0 0 C1.09898702 3.29696105 0.87124444 4.40494903 0.0625 7.6875 C-0.13214844 8.49574219 -0.32679688 9.30398437 -0.52734375 10.13671875 C-0.68332031 10.75160156 -0.83929688 11.36648437 -1 12 C-1.99 12 -2.98 12 -4 12 C-3.67 9.03 -3.34 6.06 -3 3 C-3.99 3.495 -3.99 3.495 -5 4 C-5.40729228 6.32156597 -5.74438677 8.6568787 -6 11 C-6.7425 11.144375 -7.485 11.28875 -8.25 11.4375 C-10.92165768 11.94746381 -10.92165768 11.94746381 -13.1875 12.625 C-15 13 -15 13 -17 12 C-17 11.34 -17 10.68 -17 10 C-16.01 9.34 -15.02 8.68 -14 8 C-14 7.01 -14 6.02 -14 5 C-14.99 5 -15.98 5 -17 5 C-17.33 6.65 -17.66 8.3 -18 10 C-18.66 10 -19.32 10 -20 10 C-20 6.7 -20 3.4 -20 0 C-12.25 -1 -12.25 -1 -10 -1 C-9.4225 -1.20625 -8.845 -1.4125 -8.25 -1.625 C-5.0330523 -2.16115795 -2.94254588 -1.30779817 0 0 Z M-10 1 C-10 2.98 -10 4.96 -10 7 C-9.67 7 -9.34 7 -9 7 C-9 5.02 -9 3.04 -9 1 C-9.33 1 -9.66 1 -10 1 Z " fill="#363533" transform="translate(222,83)"/>
<path d="M0 0 C0.66 0 1.32 0 2 0 C3.09315246 4.5838914 3.32282625 9.12511007 3.5625 13.8125 C3.60568359 14.60076172 3.64886719 15.38902344 3.69335938 16.20117188 C3.79878321 18.13394215 3.89983094 20.06695026 4 22 C4.928125 22.144375 5.85625 22.28875 6.8125 22.4375 C10 23 10 23 13 24 C13 24.66 13 25.32 13 26 C12.34 26 11.68 26 11 26 C11 26.66 11 27.32 11 28 C9.60750796 28.36708396 8.21076667 28.71806563 6.8125 29.0625 C5.64654297 29.35833984 5.64654297 29.35833984 4.45703125 29.66015625 C2 30 2 30 -3 29 C-2.67 21.41 -2.34 13.82 -2 6 C-1.34 6 -0.68 6 0 6 C0 4.02 0 2.04 0 0 Z " fill="#64A14C" transform="translate(122,34)"/>
<path d="M0 0 C0.66 0.33 1.32 0.66 2 1 C1.02885254 1.84340942 1.02885254 1.84340942 0.03808594 2.70385742 C-3.12162441 7.81397355 -2.60333378 12.84217199 -2.609375 18.73828125 C-2.62591125 19.97418503 -2.64244751 21.21008881 -2.65948486 22.48344421 C-2.6997797 25.75664951 -2.7231345 29.02939532 -2.73822021 32.30279541 C-2.75782803 35.64801053 -2.80012668 38.99285376 -2.83984375 42.33789062 C-2.91378708 48.89185689 -2.96539382 55.44571436 -3 62 C-4.485 62.495 -4.485 62.495 -6 63 C-6.10151824 55.27713258 -6.17151568 47.55443761 -6.21972656 39.83105469 C-6.23982715 37.20436167 -6.26711204 34.57771331 -6.30175781 31.95117188 C-6.35034164 28.17306488 -6.37298509 24.39555016 -6.390625 20.6171875 C-6.41127014 19.44509735 -6.43191528 18.2730072 -6.45318604 17.06539917 C-6.45492707 10.72253135 -6.31316083 6.7974139 -2 2 C-1.34 1.34 -0.68 0.68 0 0 Z " fill="#86B46E" transform="translate(30,28)"/>
<path d="M0 0 C3 2 3 2 3.73046875 5.2578125 C3.95669922 7.17207031 3.95669922 7.17207031 4.1875 9.125 C4.34605469 10.40632813 4.50460938 11.68765625 4.66796875 13.0078125 C4.83232422 14.48894531 4.83232422 14.48894531 5 16 C7.55489105 13.55961387 9.25254702 11.07884573 11 8 C11.93423645 11.01031744 12.04449911 11.86650268 11 15 C11 15.99 11 16.98 11 18 C11 18.66 11 19.32 11 20 C11.33 21.32 11.66 22.64 12 24 C15.3 23.67 18.6 23.34 22 23 C22 21.68 22 20.36 22 19 C21.01 19 20.02 19 19 19 C19 18.34 19 17.68 19 17 C20.65 17.33 22.3 17.66 24 18 C24.625 19.8125 24.625 19.8125 25 22 C24.34 22.99 23.68 23.98 23 25 C21.02880859 25.34057617 21.02880859 25.34057617 18.6484375 25.29296875 C17.79765625 25.28330078 16.946875 25.27363281 16.0703125 25.26367188 C15.18085938 25.23853516 14.29140625 25.21339844 13.375 25.1875 C12.4778125 25.17396484 11.580625 25.16042969 10.65625 25.14648438 C8.43690211 25.11106925 6.21874812 25.06168461 4 25 C4 23.68 4 22.36 4 21 C3.01 21.33 2.02 21.66 1 22 C1 21.01 1 20.02 1 19 C0.34 19 -0.32 19 -1 19 C-1.33 18.01 -1.66 17.02 -2 16 C-1.01 15.34 -0.02 14.68 1 14 C0.835 13.360625 0.67 12.72125 0.5 12.0625 C-0.15932515 8.02413348 -0.08003779 4.08192742 0 0 Z M4 18 C5 20 5 20 5 20 Z " fill="#6EAB5A" transform="translate(224,39)"/>
<path d="M0 0 C3.5441867 1.28193987 4.74814939 1.9678483 6.9375 5.0625 C7.56901879 8.71372148 7.54078863 12.30263055 7.5 16 C7.52384766 16.98935547 7.54769531 17.97871094 7.57226562 18.99804688 C7.56256753 23.8050696 7.52500391 26.27230724 4.59375 30.21484375 C1.9375 32.0625 1.9375 32.0625 -1.125 32.6875 C-4.0625 32.0625 -4.0625 32.0625 -6.2109375 30.2109375 C-8.94436792 25.56295245 -8.68392927 21.35920149 -8.625 16.0625 C-8.64884766 15.07765625 -8.67269531 14.0928125 -8.69726562 13.078125 C-8.68752752 8.27399196 -8.62994878 5.8332846 -5.71875 1.87890625 C-3.0625 0.0625 -3.0625 0.0625 0 0 Z M-5.0625 4.0625 C-5.25878414 7.85376598 -5.44303896 11.64552172 -5.625 15.4375 C-5.68107422 16.51773438 -5.73714844 17.59796875 -5.79492188 18.7109375 C-5.84326172 19.7421875 -5.89160156 20.7734375 -5.94140625 21.8359375 C-5.9885376 22.78903809 -6.03566895 23.74213867 -6.08422852 24.72412109 C-6.23333718 27.08656191 -6.23333718 27.08656191 -5.0625 29.0625 C-2.4225 29.0625 0.2175 29.0625 2.9375 29.0625 C2.9375 28.4025 2.9375 27.7425 2.9375 27.0625 C3.5975 27.0625 4.2575 27.0625 4.9375 27.0625 C4.9375 19.4725 4.9375 11.8825 4.9375 4.0625 C-2.23044971 2.41534977 -2.23044971 2.41534977 -5.0625 4.0625 Z " fill="#347097" transform="translate(68.0625,61.9375)"/>
<path d="M0 0 C2.31 0.33 4.62 0.66 7 1 C7.53414112 2.89212702 8.05178329 4.78891636 8.5625 6.6875 C8.85253906 7.74324219 9.14257812 8.79898438 9.44140625 9.88671875 C10.00124767 13.00695382 9.84690764 14.97693234 9 18 C8.67 18 8.34 18 8 18 C7.67 16.02 7.34 14.04 7 12 C6.34 12 5.68 12 5 12 C5.33 16.62 5.66 21.24 6 26 C6.66 26 7.32 26 8 26 C8.33 25.34 8.66 24.68 9 24 C9.66 24.99 10.32 25.98 11 27 C13.56282742 27.72965366 13.56282742 27.72965366 16 28 C16.125 30.375 16.125 30.375 16 33 C15.34 33.66 14.68 34.32 14 35 C10.375 34.625 10.375 34.625 7 34 C6.85900879 33.40574219 6.71801758 32.81148437 6.57275391 32.19921875 C5.9239933 29.4660291 5.27450126 26.73301374 4.625 24 C4.40328125 23.06542969 4.1815625 22.13085938 3.953125 21.16796875 C2.94708432 16.93667999 1.93033918 12.7113767 0.84375 8.5 C0.11668711 5.48403542 -0.19220902 3.07534435 0 0 Z " fill="#1F5B87" transform="translate(261,29)"/>
<path d="M0 0 C1.4540625 0.0309375 1.4540625 0.0309375 2.9375 0.0625 C2.9375 1.3825 2.9375 2.7025 2.9375 4.0625 C1.6175 4.0625 0.2975 4.0625 -1.0625 4.0625 C-0.92225781 6.54210136 -0.7755815 9.02102402 -0.625 11.5 C-0.58568359 12.20705078 -0.54636719 12.91410156 -0.50585938 13.64257812 C-0.58625562 17.14940419 -0.58625562 17.14940419 0.9375 20.0625 C1.17037008 21.74433948 1.35014166 23.4337416 1.5 25.125 C1.58378906 26.04410156 1.66757812 26.96320312 1.75390625 27.91015625 C1.81449219 28.62042969 1.87507813 29.33070312 1.9375 30.0625 C2.2675 30.0625 2.5975 30.0625 2.9375 30.0625 C2.9375 32.0425 2.9375 34.0225 2.9375 36.0625 C-0.5275 36.5575 -0.5275 36.5575 -4.0625 37.0625 C-4.0871501 31.95386104 -4.10533607 26.84525641 -4.11743164 21.73657227 C-4.12247204 19.99730832 -4.1293043 18.25804864 -4.13793945 16.51879883 C-4.15001792 14.02424063 -4.15573108 11.52973827 -4.16015625 9.03515625 C-4.16531754 8.25286148 -4.17047882 7.47056671 -4.17579651 6.66456604 C-4.17599226 4.79682886 -4.12449694 2.92920796 -4.0625 1.0625 C-3.0625 0.0625 -3.0625 0.0625 0 0 Z " fill="#356B94" transform="translate(389.0625,27.9375)"/>
<path d="M0 0 C2.125 1.6875 2.125 1.6875 3.125 4.6875 C3.785 4.6875 4.445 4.6875 5.125 4.6875 C5.125 10.2975 5.125 15.9075 5.125 21.6875 C4.465 21.3575 3.805 21.0275 3.125 20.6875 C2.78125 18.578125 2.78125 18.578125 2.625 15.9375 C2.32744412 12.16124538 1.84128923 9.12007847 0.125 5.6875 C-0.205 7.0075 -0.535 8.3275 -0.875 9.6875 C-4.505 9.6875 -8.135 9.6875 -11.875 9.6875 C-11.875 7.3775 -11.875 5.0675 -11.875 2.6875 C-12.535 2.6875 -13.195 2.6875 -13.875 2.6875 C-14.205 3.6775 -14.535 4.6675 -14.875 5.6875 C-15.5 3.8125 -15.5 3.8125 -15.875 1.6875 C-11.69610571 -2.49139429 -5.20182608 -2.37474669 0 0 Z M-7.875 4.6875 C-8.535 5.3475 -9.195 6.0075 -9.875 6.6875 C-9.875 7.3475 -9.875 8.0075 -9.875 8.6875 C-7.565 8.6875 -5.255 8.6875 -2.875 8.6875 C-3.205 7.6975 -3.535 6.7075 -3.875 5.6875 C-5.78208843 4.77321661 -5.78208843 4.77321661 -7.875 4.6875 Z " fill="#1E6092" transform="translate(320.875,37.3125)"/>
<path d="M0 0 C0.80824219 0.10183594 1.61648437 0.20367187 2.44921875 0.30859375 C3.06410156 0.39238281 3.67898437 0.47617187 4.3125 0.5625 C4.37308594 1.21476562 4.43367187 1.86703125 4.49609375 2.5390625 C4.94769991 7.24966217 5.45445039 11.90451638 6.3125 16.5625 C5.3225 17.2225 4.3325 17.8825 3.3125 18.5625 C3.3125 19.2225 3.3125 19.8825 3.3125 20.5625 C3.9725 20.5625 4.6325 20.5625 5.3125 20.5625 C5.6425 21.2225 5.9725 21.8825 6.3125 22.5625 C6.9725 22.5625 7.6325 22.5625 8.3125 22.5625 C7.9825 23.8825 7.6525 25.2025 7.3125 26.5625 C5.3325 26.5625 3.3525 26.5625 1.3125 26.5625 C-0.89203247 23.02660283 -0.86881189 20.23589149 -0.75 16.125 C-0.64216523 12.07885196 -0.73687236 8.50502547 -1.6875 4.5625 C-4.6575 4.0675 -4.6575 4.0675 -7.6875 3.5625 C-7.6875 2.5725 -7.6875 1.5825 -7.6875 0.5625 C-4.59271121 -0.46909626 -3.16118607 -0.41232862 0 0 Z " fill="#62A447" transform="translate(219.6875,37.4375)"/>
<path d="M0 0 C1.65 0 3.3 0 5 0 C3.68 0.33 2.36 0.66 1 1 C1 7.27 1 13.54 1 20 C3.97 19.67 6.94 19.34 10 19 C10.36504603 17.41913952 10.71660506 15.83516093 11.0625 14.25 C11.25972656 13.36828125 11.45695313 12.4865625 11.66015625 11.578125 C11.99825872 9.01320972 11.81158635 7.42908361 11 5 C11.66 5 12.32 5 13 5 C13 5.66 13 6.32 13 7 C13.66 7 14.32 7 15 7 C16.24752897 10.74258691 15.5279335 11.46162767 14 15 C13.31320058 17.32748694 12.64238957 19.65986656 12 22 C12.99 22 13.98 22 15 22 C15 21.01 15 20.02 15 19 C16.32 19.33 17.64 19.66 19 20 C16.11259538 24.10899888 13.77800128 26.34941774 9 28 C5.31804513 28.23361369 1.68343332 28.1769621 -2 28 C1.21639654 26.25434889 3.32013404 25.795563 7 26 C7.33 24.68 7.66 23.36 8 22 C6.6078125 22.061875 6.6078125 22.061875 5.1875 22.125 C2 22 2 22 -1 20 C-1.25019222 17.28958431 -1.32653585 14.82767218 -1.25 12.125 C-1.24484375 11.40441406 -1.2396875 10.68382812 -1.234375 9.94140625 C-1.18374394 6.50482326 -1.06623575 3.28469399 0 0 Z " fill="#96BC85" transform="translate(126,36)"/>
<path d="M0 0 C1.2380014 3.57644848 0.74926071 6.33694766 0 10 C0.99 9.67 1.98 9.34 3 9 C3.33 7.02 3.66 5.04 4 3 C5.65 3 7.3 3 9 3 C8.67 3.66 8.34 4.32 8 5 C7.34 5 6.68 5 6 5 C6 7.97 6 10.94 6 14 C8.64 15.32 11.28 16.64 14 18 C12.02 18.99 12.02 18.99 10 20 C10 20.66 10 21.32 10 22 C5.48214361 21.77027849 2.8602373 21.53764831 -1 19.125 C-3.94739556 14.51969444 -3.76654352 10.32588048 -3 5 C-1.5 1.8125 -1.5 1.8125 0 0 Z " fill="#67A250" transform="translate(177,40)"/>
<path d="M0 0 C0.66 0 1.32 0 2 0 C2.06942772 8.44037418 2.12277414 16.8806296 2.15543652 25.32121849 C2.17111071 29.24028972 2.19238048 33.15916599 2.22631836 37.078125 C2.25885001 40.85824125 2.2768398 44.63816967 2.28463173 48.41841507 C2.29018645 49.86257511 2.30103321 51.30672456 2.31719017 52.7508049 C2.33887964 54.76915257 2.34022467 56.78768817 2.34057617 58.80615234 C2.34723801 59.95642914 2.35389984 61.10670593 2.36076355 62.2918396 C2.24171158 63.18553253 2.12265961 64.07922546 2 65 C-1.35327639 67.23551759 -1.90743657 67.17283528 -5.6875 66.625 C-6.49574219 66.51414062 -7.30398437 66.40328125 -8.13671875 66.2890625 C-8.75160156 66.19367188 -9.36648437 66.09828125 -10 66 C-9.01 65.01 -9.01 65.01 -8 64 C-5.36 64 -2.72 64 0 64 C0 42.88 0 21.76 0 0 Z " fill="#7CA377" transform="translate(37,28)"/>
<path d="M0 0 C0.99 0.33 1.98 0.66 3 1 C4.04263028 3.73778602 4.10105299 6.28408301 4.02734375 9.1875 C4.01509766 9.96867187 4.00285156 10.74984375 3.99023438 11.5546875 C3.95507621 13.18498471 3.91601304 14.81520238 3.87304688 16.4453125 C3.86208984 17.22648437 3.85113281 18.00765625 3.83984375 18.8125 C3.82300537 19.52019531 3.80616699 20.22789063 3.78881836 20.95703125 C4.03896423 23.37693954 4.72344911 24.93828785 6 27 C8.29629994 28.14814997 10.07698086 28.30769809 12.625 28.5625 C13.44226562 28.64628906 14.25953125 28.73007813 15.1015625 28.81640625 C16.04128906 28.90728516 16.04128906 28.90728516 17 29 C17.33 27.68 17.66 26.36 18 25 C19.32 25.99 20.64 26.98 22 28 C21.67 29.65 21.34 31.3 21 33 C7.92307692 33 7.92307692 33 3 29 C-0.88792074 23.16811888 -0.12529809 16.39753196 -0.0625 9.625 C-0.05798828 8.69816406 -0.05347656 7.77132812 -0.04882812 6.81640625 C-0.03711574 4.54420291 -0.02071372 2.27213612 0 0 Z " fill="#93BF82" transform="translate(6,68)"/>
<path d="M0 0 C1.85064319 3.12296038 2.29356154 5.37940768 2 9 C1.67 9.33 1.34 9.66 1 10 C0.95907063 12.33297433 0.95758277 14.66705225 1 17 C1.33 17 1.66 17 2 17 C2.22171552 19.60365928 2.42784859 22.20696493 2.625 24.8125 C2.68945312 25.55048828 2.75390625 26.28847656 2.8203125 27.04882812 C3.2265625 32.66015625 3.2265625 32.66015625 1 36 C0.75892674 38.28648848 0.75892674 38.28648848 0.875 40.6875 C0.90207031 41.89986328 0.90207031 41.89986328 0.9296875 43.13671875 C0.95289062 43.75160156 0.97609375 44.36648437 1 45 C2.98 45.33 4.96 45.66 7 46 C3.76964467 48.15357022 2.68866542 48.29592637 -1.0625 48.3125 C-1.94035156 48.32925781 -2.81820312 48.34601563 -3.72265625 48.36328125 C-4.47417969 48.24339844 -5.22570312 48.12351563 -6 48 C-6.66 47.01 -7.32 46.02 -8 45 C-7.37593262 44.75652832 -6.75186523 44.51305664 -6.10888672 44.26220703 C-2.76250398 42.25933614 -2.50232474 39.72483439 -1.53613281 36.08886719 C-0.50119443 30.12618938 -0.73545997 24.1555559 -0.875 18.125 C-0.91835102 15.54433931 -0.95759955 12.96360551 -0.9921875 10.3828125 C-1.01651855 9.25246582 -1.04084961 8.12211914 -1.06591797 6.95751953 C-1.00937037 4.42041706 -0.75223225 2.40640933 0 0 Z " fill="#2B76A3" transform="translate(79,52)"/>
<path d="M0 0 C1.30476313 3.91428938 1.08382825 7.60832798 1.02734375 11.68359375 C1.01469812 13.43294074 1.00233711 15.1822898 0.99023438 16.93164062 C0.96540698 19.68797269 0.93741893 22.44419702 0.90405273 25.20043945 C0.87384317 27.86149788 0.85607397 30.5224185 0.83984375 33.18359375 C0.81965431 34.41812538 0.81965431 34.41812538 0.79905701 35.67759705 C0.6920923 41.18241809 0.6920923 41.18241809 3 46 C5.53770003 47.28254644 5.53770003 47.28254644 8 48 C6.68 48.66 5.36 49.32 4 50 C3.00906986 48.94846252 2.03272475 47.88317154 1.0625 46.8125 C0.51722656 46.22082031 -0.02804688 45.62914062 -0.58984375 45.01953125 C-4.49532281 39.42636594 -3.22211266 31.31973576 -3.24023438 24.76269531 C-3.24993936 22.63827337 -3.28100127 20.51482042 -3.3125 18.390625 C-3.31903167 17.02344318 -3.3242815 15.65625452 -3.328125 14.2890625 C-3.3374707 13.05881348 -3.34681641 11.82856445 -3.35644531 10.56103516 C-2.94177389 6.41829723 -1.80881589 3.72210135 0 0 Z " fill="#298FAF" transform="translate(45,49)"/>
<path d="M0 0 C2.31 0 4.62 0 7 0 C7.2475 0.969375 7.495 1.93875 7.75 2.9375 C8.36875 4.4534375 8.36875 4.4534375 9 6 C11.03243548 6.96877057 11.03243548 6.96877057 13 7 C13 8.65 13 10.3 13 12 C11.35 12.33 9.7 12.66 8 13 C8 17.29 8 21.58 8 26 C9.65 26.33 11.3 26.66 13 27 C13.33 29.31 13.66 31.62 14 34 C11.69 34 9.38 34 7 34 C6.505 32.515 6.505 32.515 6 31 C7.32 30.67 8.64 30.34 10 30 C8.68 29.34 7.36 28.68 6 28 C6.00523682 27.42032471 6.01047363 26.84064941 6.01586914 26.2434082 C6.03674334 23.5997833 6.04969327 20.95617579 6.0625 18.3125 C6.07087891 17.40048828 6.07925781 16.48847656 6.08789062 15.54882812 C6.09111328 14.66259766 6.09433594 13.77636719 6.09765625 12.86328125 C6.10289307 12.05157471 6.10812988 11.23986816 6.11352539 10.40356445 C5.9929791 7.85135327 5.559949 5.48973863 5 3 C3.35 2.67 1.7 2.34 0 2 C0 1.34 0 0.68 0 0 Z " fill="#255D94" transform="translate(369,30)"/>
<path d="M0 0 C0.99 0.33 1.98 0.66 3 1 C3 1.66 3 2.32 3 3 C3.66 3.33 4.32 3.66 5 4 C4.76990234 5.01126953 4.76990234 5.01126953 4.53515625 6.04296875 C3.91516143 9.46877952 3.6647426 12.83893447 3.4375 16.3125 C3.35371094 17.56675781 3.26992187 18.82101563 3.18359375 20.11328125 C3.12300781 21.06589844 3.06242188 22.01851562 3 23 C1.68 23.33 0.36 23.66 -1 24 C-1.36478928 21.29272088 -1.71709438 18.58476283 -2.0625 15.875 C-2.16626953 15.11445312 -2.27003906 14.35390625 -2.37695312 13.5703125 C-2.92606375 9.17742747 -3.1836295 5.34222937 -2 1 C-1.34 0.67 -0.68 0.34 0 0 Z " fill="#60A542" transform="translate(206,37)"/>
<path d="M0 0 C1.984375 1.17578125 1.984375 1.17578125 4 3 C4.390625 5.48046875 4.390625 5.48046875 4.25 8.1875 C4.21390625 9.08855469 4.1778125 9.98960938 4.140625 10.91796875 C4.07101563 11.94857422 4.07101563 11.94857422 4 13 C1.02588876 14.23921302 -1.85262818 15.30058404 -5 16 C-7 13 -7 13 -6.75 9.5 C-6 6 -6 6 -4 3 C-3.34 3 -2.68 3 -2 3 C-2 2.34 -2 1.68 -2 1 C-1.34 0.67 -0.68 0.34 0 0 Z " fill="#1E1E1D" transform="translate(176,81)"/>
<path d="M0 0 C0 0.66 0 1.32 0 2 C0.66 2 1.32 2 2 2 C1.75673529 9.66283829 -0.33741003 13.96857627 -5 20 C-6.00228167 17.37126126 -6.14736291 16.33864575 -5.00390625 13.7109375 C-4.52824219 12.94007812 -4.05257812 12.16921875 -3.5625 11.375 C-1.57692656 8.39141563 -1.57692656 8.39141563 -1 5 C-3.31 5 -5.62 5 -8 5 C-8 4.34 -8 3.68 -8 3 C-10.31 3.33 -12.62 3.66 -15 4 C-15 4.99 -15 5.98 -15 7 C-11.7 7 -8.4 7 -5 7 C-5.99 7.495 -5.99 7.495 -7 8 C-7 9.32 -7 10.64 -7 12 C-7.99 12 -8.98 12 -10 12 C-10 11.01 -10 10.02 -10 9 C-12.31 8.34 -14.62 7.68 -17 7 C-16.67 5.02 -16.34 3.04 -16 1 C-14.27111445 0.83044205 -12.54187557 0.66448486 -10.8125 0.5 C-9.84957031 0.4071875 -8.88664063 0.314375 -7.89453125 0.21875 C-5.24812333 0.01875156 -2.65239135 -0.03879183 0 0 Z " fill="#74A156" transform="translate(246,35)"/>
<path d="M0 0 C2.49409877 4.98819754 3.15422679 8.45582698 3.125 14.0625 C3.12886719 14.80822266 3.13273438 15.55394531 3.13671875 16.32226562 C3.12663501 21.87336499 3.12663501 21.87336499 2 23 C-0.5 23.125 -0.5 23.125 -3 23 C-3.33 22.67 -3.66 22.34 -4 22 C-3.95752089 14.17322457 -3.28124841 7.13314871 0 0 Z " fill="#629E46" transform="translate(169,41)"/>
<path d="M0 0 C4.82978133 0.44928198 7.67447217 1.38942693 11 5 C11.8125 8.75 11.8125 8.75 12 12 C10 10 10 10 9 7 C6.87063281 13.54019921 5.96086298 20.20240549 5 27 C4.67 27 4.34 27 4 27 C3.93941406 25.86820313 3.87882813 24.73640625 3.81640625 23.5703125 C3.73200083 22.08852855 3.64735283 20.6067584 3.5625 19.125 C3.52318359 18.37863281 3.48386719 17.63226563 3.44335938 16.86328125 C3.28426376 12.80013136 3.28426376 12.80013136 2 9 C-0.02463255 8.34786708 -0.02463255 8.34786708 -2 8 C-2 7.34 -2 6.68 -2 6 C0.31 5.01 2.62 4.02 5 3 C2.525 2.01 2.525 2.01 0 1 C0 0.67 0 0.34 0 0 Z " fill="#73AB5D" transform="translate(160,35)"/>
<path d="M0 0 C1.32 0 2.64 0 4 0 C4.25287193 6.06892629 3.69832609 11.16200408 2 17 C-1.66666667 17 -5.33333333 17 -9 17 C-9 15.35 -9 13.7 -9 12 C-7.68 12.33 -6.36 12.66 -5 13 C-4.67 12.34 -4.34 11.68 -4 11 C-3.01 12.485 -3.01 12.485 -2 14 C-1.67 12.02 -1.34 10.04 -1 8 C-1.99 8 -2.98 8 -4 8 C-4.33 6.68 -4.66 5.36 -5 4 C-3.68 4 -2.36 4 -1 4 C-0.67 2.68 -0.34 1.36 0 0 Z " fill="#4B4B4B" transform="translate(292,78)"/>
<path d="M0 0 C1.32 0 2.64 0 4 0 C4 1.65 4 3.3 4 5 C5.918125 4.938125 5.918125 4.938125 7.875 4.875 C10.0546875 4.8046875 10.0546875 4.8046875 12 5 C12.66 5.66 13.32 6.32 14 7 C12.3603125 7.2165625 12.3603125 7.2165625 10.6875 7.4375 C7.06877013 7.88288104 7.06877013 7.88288104 4 9 C4.02320313 10.19238281 4.04640625 11.38476562 4.0703125 12.61328125 C4.08907178 14.17968124 4.10727181 15.746088 4.125 17.3125 C4.14175781 18.09818359 4.15851563 18.88386719 4.17578125 19.69335938 C4.18222656 20.45068359 4.18867188 21.20800781 4.1953125 21.98828125 C4.20578613 22.68477783 4.21625977 23.38127441 4.22705078 24.09887695 C4 26 4 26 2 29 C1.93941406 28.07316406 1.87882812 27.14632812 1.81640625 26.19140625 C1.73261719 24.99386719 1.64882813 23.79632813 1.5625 22.5625 C1.48128906 21.36753906 1.40007812 20.17257813 1.31640625 18.94140625 C1.32343886 16.11429756 1.32343886 16.11429756 0 15 C-0.07313567 12.46950598 -0.09247527 9.96695163 -0.0625 7.4375 C-0.05798828 6.72658203 -0.05347656 6.01566406 -0.04882812 5.28320312 C-0.03700864 3.52209987 -0.01907263 1.76103964 0 0 Z " fill="#0B5189" transform="translate(388,32)"/>
<path d="M0 0 C3.16842693 0.25689948 4.60962957 0.58270747 6.8125 2.9375 C8.5043079 7.30058354 8.24243657 11.37574683 8 16 C8.66 16 9.32 16 10 16 C9.67 17.65 9.34 19.3 9 21 C7.68 21 6.36 21 5 21 C5 21.99 5 22.98 5 24 C4.01 24 3.02 24 2 24 C2.31082872 22.24970238 2.62373179 20.49977306 2.9375 18.75 C3.11152344 17.77546875 3.28554687 16.8009375 3.46484375 15.796875 C3.90379729 13.50278205 4.40348592 11.25708029 5 9 C4.34 9 3.68 9 3 9 C3 8.34 3 7.68 3 7 C2.34 7 1.68 7 1 7 C1.020625 6.21625 1.04125 5.4325 1.0625 4.625 C1.18684063 2.01885039 1.18684063 2.01885039 0 0 Z " fill="#63A347" transform="translate(136,34)"/>
<path d="M0 0 C0.99 0 1.98 0 3 0 C3.55314717 5.66975849 1.87941841 8.32094508 -1 13 C-1 13.66 -1 14.32 -1 15 C-1.66 15 -2.32 15 -3 15 C-3 15.66 -3 16.32 -3 17 C-3.66 17 -4.32 17 -5 17 C-5 17.66 -5 18.32 -5 19 C-5.99 18.67 -6.98 18.34 -8 18 C-8 17.34 -8 16.68 -8 16 C-8.66 15.67 -9.32 15.34 -10 15 C-8.68 14.67 -7.36 14.34 -6 14 C-6.185625 13.236875 -6.37125 12.47375 -6.5625 11.6875 C-7 9 -7 9 -6 6 C-5.34 6 -4.68 6 -4 6 C-4 4.35 -4 2.7 -4 1 C-3.34 1.66 -2.68 2.32 -2 3 C-1.34 2.01 -0.68 1.02 0 0 Z " fill="#363435" transform="translate(241,82)"/>
<path d="M0 0 C0 13.86 0 27.72 0 42 C-0.66 41.67 -1.32 41.34 -2 41 C-2.17002412 37.07171024 -2.33027353 33.14314446 -2.48217773 29.21411133 C-2.56064373 27.23433543 -2.64644416 25.25485453 -2.73242188 23.27539062 C-3.01904714 15.72759186 -2.86963957 8.50466737 -2 1 C-4.97 1.66 -7.94 2.32 -11 3 C-9 0 -9 0 -7.1875 -0.75 C-5 -1 -5 -1 0 0 Z " fill="#28658C" transform="translate(57,46)"/>
<path d="M0 0 C0 7.59 0 15.18 0 23 C-0.33 23 -0.66 23 -1 23 C-1.13277344 21.98679687 -1.26554687 20.97359375 -1.40234375 19.9296875 C-1.58067584 18.57811796 -1.75906425 17.22655586 -1.9375 15.875 C-2.02451172 15.20984375 -2.11152344 14.5446875 -2.20117188 13.859375 C-2.72630558 9.89169812 -3.31814014 5.94373002 -4 2 C-8.57748509 4.8795976 -8.57748509 4.8795976 -12 9 C-12.45772063 11.73872955 -12.45772063 11.73872955 -12.625 14.6875 C-12.69976562 15.68136719 -12.77453125 16.67523438 -12.8515625 17.69921875 C-12.90054687 18.45847656 -12.94953125 19.21773437 -13 20 C-15 18 -15 18 -15.265625 16.01171875 C-15.22702835 10.27046707 -14.9404663 6.25344473 -11.0625 1.75 C-7.02099532 -1.67915549 -5.49864723 -0.91644121 0 0 Z " fill="#97BB85" transform="translate(21,46)"/>
<path d="M0 0 C0.99 0 1.98 0 3 0 C3 6.93 3 13.86 3 21 C0.69 21 -1.62 21 -4 21 C-3.62875 20.071875 -3.2575 19.14375 -2.875 18.1875 C-1.34418279 13.02099193 -2.79672162 8.11856111 -4 3 C-2.68 3 -1.36 3 0 3 C0 2.01 0 1.02 0 0 Z " fill="#12639C" transform="translate(348,35)"/>
<path d="M0 0 C2.31 0.66 4.62 1.32 7 2 C7 3.65 7 5.3 7 7 C6.01 7 5.02 7 4 7 C4 7.66 4 8.32 4 9 C3.01 9.495 3.01 9.495 2 10 C1.7525 10.804375 1.505 11.60875 1.25 12.4375 C0 15 0 15 -3.125 16.3125 C-4.07375 16.539375 -5.0225 16.76625 -6 17 C-5.67 16.13375 -5.34 15.2675 -5 14.375 C-4.01268659 11.04281725 -3.83579026 8.44840462 -4 5 C-3.01 4.67 -2.02 4.34 -1 4 C-0.26676204 1.98491642 -0.26676204 1.98491642 0 0 Z " fill="#225F92" transform="translate(295,29)"/>
<path d="M0 0 C0.66 0.66 1.32 1.32 2 2 C2.66 1.67 3.32 1.34 4 1 C4.12375 1.969375 4.2475 2.93875 4.375 3.9375 C4.58125 4.948125 4.7875 5.95875 5 7 C5.66 7.33 6.32 7.66 7 8 C7 9.65 7 11.3 7 13 C8.65 13 10.3 13 12 13 C12.125 15.875 12.125 15.875 12 19 C11.34 19.66 10.68 20.32 10 21 C9.34 20.34 8.68 19.68 8 19 C6.02 18.34 4.04 17.68 2 17 C1.34 11.39 0.68 5.78 0 0 Z " fill="#0F5289" transform="translate(265,38)"/>
<path d="M0 0 C1.32 0.33 2.64 0.66 4 1 C4 1.99 4 2.98 4 4 C4.66 4 5.32 4 6 4 C5.835 4.928125 5.67 5.85625 5.5 6.8125 C4.92251612 9.95621353 4.92251612 9.95621353 5 13 C4.6937566 14.33981486 4.36548445 15.67511887 4 17 C2.35 17 0.7 17 -1 17 C-1.33 13.37 -1.66 9.74 -2 6 C-2.66 6 -3.32 6 -4 6 C-3.67 5.34 -3.34 4.68 -3 4 C-2.01 4 -1.02 4 0 4 C0 2.68 0 1.36 0 0 Z M-1 7 C0 9 0 9 0 9 Z " fill="#6A6A6A" transform="translate(142,78)"/>
<path d="M0 0 C0.99 0 1.98 0 3 0 C3.33 1.98 3.66 3.96 4 6 C3.34 6 2.68 6 2 6 C2.10169161 8.94727535 2.10169161 8.94727535 3 12 C5.46255685 13.45291273 5.46255685 13.45291273 8 14 C7.67 14.99 7.34 15.98 7 17 C3.7 17 0.4 17 -3 17 C-2.51021234 11.04091686 -1.85270299 5.6816225 0 0 Z " fill="#515151" transform="translate(122,78)"/>
<path d="M0 0 C0.66 0 1.32 0 2 0 C3.08899226 5.05932333 3.44818239 10.03083576 3.75 15.1875 C3.81832031 16.10208984 3.88664062 17.01667969 3.95703125 17.95898438 C4.00730469 18.83232422 4.05757813 19.70566406 4.109375 20.60546875 C4.16061523 21.40106201 4.21185547 22.19665527 4.26464844 23.01635742 C4.17731445 23.67095947 4.08998047 24.32556152 4 25 C3.01 25.66 2.02 26.32 1 27 C-1.58616201 23.13608996 -1.26040627 19.09146838 -1.1875 14.625 C-1.1865332 13.51125 -1.1865332 13.51125 -1.18554688 12.375 C-1.15194195 8.14824732 -0.82572878 4.16167305 0 0 Z " fill="#62A546" transform="translate(122,34)"/>
<path d="M0 0 C-0.66 1.65 -1.32 3.3 -2 5 C-1.34 5 -0.68 5 0 5 C0.33 4.34 0.66 3.68 1 3 C1 3.66 1 4.32 1 5 C1.66 5.33 2.32 5.66 3 6 C1.68 6 0.36 6 -1 6 C-1.33 6.66 -1.66 7.32 -2 8 C-5.69302176 9.23100725 -9.16019717 9.59489903 -13 9 C-15.5 7 -15.5 7 -17 5 C-14.69 5.33 -12.38 5.66 -10 6 C-10 4.68 -10 3.36 -10 2 C-6.47120856 -0.92385576 -4.34741868 -1.36633159 0 0 Z " fill="#4279A1" transform="translate(323,55)"/>
<path d="M0 0 C0 14.85 0 29.7 0 45 C-0.33 45 -0.66 45 -1 45 C-1.02505615 43.91058105 -1.0501123 42.82116211 -1.07592773 41.69873047 C-1.17041915 37.63953802 -1.27053637 33.58050012 -1.37231445 29.52148438 C-1.41550598 27.76794054 -1.45719155 26.01435892 -1.49731445 24.26074219 C-1.55540124 21.73360835 -1.61898299 19.20666196 -1.68359375 16.6796875 C-1.70030624 15.90132538 -1.71701874 15.12296326 -1.73423767 14.3210144 C-1.8472986 10.12448711 -2.19205414 6.13461263 -3 2 C-5.31 2.33 -7.62 2.66 -10 3 C-10.33 3.99 -10.66 4.98 -11 6 C-11.66 6 -12.32 6 -13 6 C-11.84826645 3.53199953 -10.95216435 1.95216435 -9 0 C-5.32807835 -1.06292469 -3.85056958 -0.9626424 0 0 Z " fill="#426D92" transform="translate(93,46)"/>
<path d="M0 0 C1.64115013 1.64115013 1.47571189 3.62191909 1.75 5.875 C1.86859375 6.75929688 1.9871875 7.64359375 2.109375 8.5546875 C2 11 2 11 0.65234375 12.83984375 C-1 14 -1 14 -3.1875 13.6875 C-3.785625 13.460625 -4.38375 13.23375 -5 13 C-5 12.34 -5 11.68 -5 11 C-4.01 10.34 -3.02 9.68 -2 9 C-2 8.01 -2 7.02 -2 6 C-2.99 6 -3.98 6 -5 6 C-5.33 7.65 -5.66 9.3 -6 11 C-6.66 11 -7.32 11 -8 11 C-8 7.7 -8 4.4 -8 1 C-5.05549278 0.01849759 -3.06481021 -0.1613058 0 0 Z " fill="#242422" transform="translate(210,82)"/>
<path d="M0 0 C0.33 0 0.66 0 1 0 C1.33 3.96 1.66 7.92 2 12 C2.66 12 3.32 12 4 12 C4.33 11.34 4.66 10.68 5 10 C5.99 11.485 5.99 11.485 7 13 C9.56282742 13.72965366 9.56282742 13.72965366 12 14 C12.125 16.375 12.125 16.375 12 19 C11.34 19.66 10.68 20.32 10 21 C6.375 20.625 6.375 20.625 3 20 C2.30415424 17.04340215 1.61801493 14.08512767 0.9375 11.125 C0.73833984 10.28324219 0.53917969 9.44148438 0.33398438 8.57421875 C0.15029297 7.76855469 -0.03339844 6.96289062 -0.22265625 6.1328125 C-0.48187866 5.01737061 -0.48187866 5.01737061 -0.74633789 3.87939453 C-1 2 -1 2 0 0 Z " fill="#2E6E9D" transform="translate(265,43)"/>
<path d="M0 0 C0.99 0.66 1.98 1.32 3 2 C3 2.66 3 3.32 3 4 C3.66 4 4.32 4 5 4 C5 9.61 5 15.22 5 21 C4.34 20.67 3.68 20.34 3 20 C2.65625 17.890625 2.65625 17.890625 2.5 15.25 C2.20244412 11.47374538 1.71628923 8.43257847 0 5 C-0.33 6.32 -0.66 7.64 -1 9 C-4.63 9 -8.26 9 -12 9 C-12 8.67 -12 8.34 -12 8 C-9.03 8 -6.06 8 -3 8 C-3.99 6.68 -4.98 5.36 -6 4 C-4.02 3.34 -2.04 2.68 0 2 C0 1.34 0 0.68 0 0 Z " fill="#41769F" transform="translate(321,38)"/>
<path d="M0 0 C3.48927692 0.31720699 5.55850854 0.66307231 8.375 2.8125 C10 5 10 5 10 9 C6.37 9 2.74 9 -1 9 C-1 8.01 -1 7.02 -1 6 C-1.66 5.34 -2.32 4.68 -3 4 C-2.34 4 -1.68 4 -1 4 C0.1490712 2.0745356 0.1490712 2.0745356 0 0 Z " fill="#10598F" transform="translate(53,91)"/>
<path d="M0 0 C0.66 0 1.32 0 2 0 C2 1.32 2 2.64 2 4 C1.34 4 0.68 4 0 4 C0 5.32 0 6.64 0 8 C0.99 8.33 1.98 8.66 3 9 C3.02690844 11.62506802 3.04679404 14.24986173 3.0625 16.875 C3.07087891 17.62136719 3.07925781 18.36773437 3.08789062 19.13671875 C3.11328125 24.7734375 3.11328125 24.7734375 2 27 C2.99 27.33 3.98 27.66 5 28 C5 28.66 5 29.32 5 30 C1.125 28.125 1.125 28.125 0 27 C-0.07325168 24.13732433 -0.09238205 21.299281 -0.0625 18.4375 C-0.05798828 17.63119141 -0.05347656 16.82488281 -0.04882812 15.99414062 C-0.03700518 13.99606244 -0.01906914 11.99802217 0 10 C-0.99 9.67 -1.98 9.34 -3 9 C-2.25 2.25 -2.25 2.25 0 0 Z " fill="#1E5D8B" transform="translate(370,33)"/>
<path d="M0 0 C1.98 0 3.96 0 6 0 C6 10.89 6 21.78 6 33 C5.34 33 4.68 33 4 33 C3.67 22.77 3.34 12.54 3 2 C2.01 2 1.02 2 0 2 C0 1.34 0 0.68 0 0 Z " fill="#537B9D" transform="translate(359,29)"/>
<path d="M0 0 C2.5 1.0625 2.5 1.0625 5 3 C5.3125 6.6875 5.3125 6.6875 5 10 C4.34 10 3.68 10 3 10 C3 8.02 3 6.04 3 4 C1.35444301 5.22809091 1.35444301 5.22809091 0 7 C0.27036147 9.97397616 0.85446026 10.85446026 3 13 C2 14 2 14 -0.5 14.125 C-3 14 -3 14 -4 13 C-4.59259259 5.88888889 -4.59259259 5.88888889 -2 2 C-1.34 1.34 -0.68 0.68 0 0 Z " fill="#252324" transform="translate(267,81)"/>
<path d="M0 0 C0.66 0 1.32 0 2 0 C2.08687496 3.12482562 2.14034568 6.24934246 2.1875 9.375 C2.22520508 10.70917969 2.22520508 10.70917969 2.26367188 12.0703125 C2.27817383 13.34648438 2.27817383 13.34648438 2.29296875 14.6484375 C2.3086792 15.43395996 2.32438965 16.21948242 2.34057617 17.02880859 C2.22818604 17.67930176 2.1157959 18.32979492 2 19 C1.01 19.66 0.02 20.32 -1 21 C-2.32 20.67 -3.64 20.34 -5 20 C-5 14.39 -5 8.78 -5 3 C-4.67 3 -4.34 3 -4 3 C-3.67 7.62 -3.34 12.24 -3 17 C-2.01 17 -1.02 17 0 17 C0 11.39 0 5.78 0 0 Z " fill="#497499" transform="translate(406,44)"/>
<path d="M0 0 C0.99 0.495 0.99 0.495 2 1 C2 4.63 2 8.26 2 12 C3.65 12.33 5.3 12.66 7 13 C7.33 15.31 7.66 17.62 8 20 C5.69 20 3.38 20 1 20 C0.67 19.01 0.34 18.02 0 17 C1.32 16.67 2.64 16.34 4 16 C2.68 15.34 1.36 14.68 0 14 C0 9.38 0 4.76 0 0 Z " fill="#42779C" transform="translate(375,44)"/>
<path d="M0 0 C1.65 0.99 3.3 1.98 5 3 C4.67 4.65 4.34 6.3 4 8 C-7.72727273 8 -7.72727273 8 -11.625 4.9375 C-12.305625 3.9784375 -12.305625 3.9784375 -13 3 C-12.34 2.67 -11.68 2.34 -11 2 C-10.34 2.33 -9.68 2.66 -9 3 C-7.46331135 3.22467831 -5.92031946 3.40796805 -4.375 3.5625 C-3.55773438 3.64628906 -2.74046875 3.73007813 -1.8984375 3.81640625 C-1.27195312 3.87699219 -0.64546875 3.93757813 0 4 C0 2.68 0 1.36 0 0 Z " fill="#7FA764" transform="translate(23,93)"/>
<path d="M0 0 C0.598125 0.185625 1.19625 0.37125 1.8125 0.5625 C4.16408762 1.22093687 4.16408762 1.22093687 7 0 C6 3 6 3 4 4.875 C1.70607434 7.31229601 1.52324839 8.77330161 1 12 C0.01 12.495 0.01 12.495 -1 13 C-1 11.68 -1 10.36 -1 9 C-1.66 8.67 -2.32 8.34 -3 8 C-3.66 8.99 -4.32 9.98 -5 11 C-5 7.7 -5 4.4 -5 1 C-4.01 1 -3.02 1 -2 1 C-1.67 1.66 -1.34 2.32 -1 3 C-0.67 2.01 -0.34 1.02 0 0 Z " fill="#4D4D4D" transform="translate(260,81)"/>
<path d="M0 0 C0 0.66 0 1.32 0 2 C-0.99 2 -1.98 2 -3 2 C-2.67 3.32 -2.34 4.64 -2 6 C0.31 6.33 2.62 6.66 5 7 C3.68 7.33 2.36 7.66 1 8 C1 8.66 1 9.32 1 10 C-1.97 9.67 -4.94 9.34 -8 9 C-6.6328125 2.06640625 -6.6328125 2.06640625 -6 0 C-3.50907189 -1.24546405 -2.58919267 -0.7767578 0 0 Z " fill="#084C80" transform="translate(312,51)"/>
<path d="M0 0 C0.99 0 1.98 0 3 0 C3.625 3.375 3.625 3.375 4 7 C3.34 7.66 2.68 8.32 2 9 C1.83328148 11.4582293 1.83328148 11.4582293 2 14 C2 14.99 2 15.98 2 17 C0.68 16.34 -0.64 15.68 -2 15 C-2.05429959 13.25034642 -2.09292823 11.50020213 -2.125 9.75 C-2.15980469 8.28820312 -2.15980469 8.28820312 -2.1953125 6.796875 C-1.99862781 3.9803502 -1.44568916 2.39050964 0 0 Z " fill="#272727" transform="translate(155,79)"/>
<path d="M0 0 C0.33 0 0.66 0 1 0 C1.33 2.31 1.66 4.62 2 7 C4.97 7.495 4.97 7.495 8 8 C4.76964467 10.15357022 3.68866542 10.29592637 -0.0625 10.3125 C-0.94035156 10.32925781 -1.81820312 10.34601563 -2.72265625 10.36328125 C-3.84994141 10.18345703 -3.84994141 10.18345703 -5 10 C-5.66 9.01 -6.32 8.02 -7 7 C-6.38125 6.7525 -5.7625 6.505 -5.125 6.25 C-2.62985717 4.78226892 -2.09872287 3.62003145 -1 1 C-0.67 0.67 -0.34 0.34 0 0 Z " fill="#286894" transform="translate(78,90)"/>
<path d="M0 0 C2.97 0 5.94 0 9 0 C8.01 0.33 7.02 0.66 6 1 C5.34 4.96 4.68 8.92 4 13 C2.35 13.33 0.7 13.66 -1 14 C-1 13.34 -1 12.68 -1 12 C-1.99 11.34 -2.98 10.68 -4 10 C-3.34 9.34 -2.68 8.68 -2 8 C-1.83312552 5.41645782 -1.83312552 5.41645782 -2 3 C-1.34 3 -0.68 3 0 3 C0 4.98 0 6.96 0 9 C0.66 9 1.32 9 2 9 C1.51515724 4.35413108 1.51515724 4.35413108 0 0 Z M3 2 C3 3.65 3 5.3 3 7 C3.33 7 3.66 7 4 7 C4 5.35 4 3.7 4 2 C3.67 2 3.34 2 3 2 Z " fill="#A7A6A6" transform="translate(270,82)"/>
<path d="M0 0 C0.66 0.33 1.32 0.66 2 1 C1.34 4.63 0.68 8.26 0 12 C-0.99 12.33 -1.98 12.66 -3 13 C-3.33 12.34 -3.66 11.68 -4 11 C-4.66 11.66 -5.32 12.32 -6 13 C-6.66 11.35 -7.32 9.7 -8 8 C-6.625 6.5 -6.625 6.5 -5 5 C-4.34 5 -3.68 5 -3 5 C-2.67 3.68 -2.34 2.36 -2 1 C-1.67 1.33 -1.34 1.66 -1 2 C-0.67 1.34 -0.34 0.68 0 0 Z " fill="#0F5B98" transform="translate(293,45)"/>
<path d="M0 0 C1.32 0 2.64 0 4 0 C4 0.99 4 1.98 4 3 C6.64 3 9.28 3 12 3 C11.01 3.495 11.01 3.495 10 4 C9.17195931 6.48412207 9 8.35220307 9 11 C8.01 11 7.02 11 6 11 C5.67 10.01 5.34 9.02 5 8 C5.99 7.67 6.98 7.34 8 7 C7.34 6.34 6.68 5.68 6 5 C4.68 5 3.36 5 2 5 C1.67 7.64 1.34 10.28 1 13 C-1.30143236 9.54785147 -1.13833854 8.76520676 -0.625 4.8125 C-0.51414062 3.91144531 -0.40328125 3.01039062 -0.2890625 2.08203125 C-0.19367188 1.39496094 -0.09828125 0.70789062 0 0 Z " fill="#155B93" transform="translate(304,46)"/>
<path d="M0 0 C0.66 0.33 1.32 0.66 2 1 C1.67 3.31 1.34 5.62 1 8 C1.99 8.33 2.98 8.66 4 9 C4 7.02 4 5.04 4 3 C4.99 4.485 4.99 4.485 6 6 C6.66 6 7.32 6 8 6 C8.33 5.34 8.66 4.68 9 4 C8.6875 5.9375 8.6875 5.9375 8 8 C7.01 8.33 6.02 8.66 5 9 C4.67 9.99 4.34 10.98 4 12 C2.68 11.67 1.36 11.34 0 11 C0 11.66 0 12.32 0 13 C-0.66 13 -1.32 13 -2 13 C-3.41791045 5.62686567 -3.41791045 5.62686567 -1 2 C-0.67 1.34 -0.34 0.68 0 0 Z " fill="#70706F" transform="translate(200,84)"/>
<path d="M0 0 C0.66 0.33 1.32 0.66 2 1 C2 1.66 2 2.32 2 3 C2.99 2.67 3.98 2.34 5 2 C5.33 4.31 5.66 6.62 6 9 C3.18177943 10.14816394 2.14630262 10.05652601 -0.75 8.9375 C-3 7 -3 7 -3.3125 3.8125 C-3.209375 2.884375 -3.10625 1.95625 -3 1 C-2.01 1.495 -2.01 1.495 -1 2 C-0.67 1.34 -0.34 0.68 0 0 Z " fill="#11558B" transform="translate(288,55)"/>
<path d="M0 0 C1.984375 1.08203125 1.984375 1.08203125 4 3 C4.390625 6.13671875 4.390625 6.13671875 4.25 9.6875 C4.21390625 10.86699219 4.1778125 12.04648437 4.140625 13.26171875 C4.09421875 14.16535156 4.0478125 15.06898437 4 16 C3.01 16.33 2.02 16.66 1 17 C0 16 0 16 -0.09765625 12.40234375 C-0.0909822 10.91403133 -0.07902183 9.42573568 -0.0625 7.9375 C-0.05798828 7.17888672 -0.05347656 6.42027344 -0.04882812 5.63867188 C-0.0370068 3.75908129 -0.01907078 1.87953101 0 0 Z " fill="#0E568F" transform="translate(402,45)"/>
<path d="M0 0 C2.475 0.495 2.475 0.495 5 1 C5.625 2.8125 5.625 2.8125 6 5 C5.01 6.485 5.01 6.485 4 8 C2.02880859 8.34057617 2.02880859 8.34057617 -0.3515625 8.29296875 C-1.20234375 8.28330078 -2.053125 8.27363281 -2.9296875 8.26367188 C-3.81914062 8.23853516 -4.70859375 8.21339844 -5.625 8.1875 C-6.5221875 8.17396484 -7.419375 8.16042969 -8.34375 8.14648438 C-10.56309789 8.11106925 -12.78125188 8.06168461 -15 8 C-15 6.68 -15 5.36 -15 4 C-14.34 4 -13.68 4 -13 4 C-13 4.66 -13 5.32 -13 6 C-11.02 5.67 -9.04 5.34 -7 5 C-7 5.66 -7 6.32 -7 7 C-3.7 6.67 -0.4 6.34 3 6 C3 4.68 3 3.36 3 2 C2.01 2 1.02 2 0 2 C0 1.34 0 0.68 0 0 Z " fill="#80A96F" transform="translate(243,56)"/>
<path d="M0 0 C0.66 0.33 1.32 0.66 2 1 C1.86177801 4.14621682 1.71314916 7.29185566 1.5625 10.4375 C1.50352539 11.78424805 1.50352539 11.78424805 1.44335938 13.15820312 C1.40146484 14.01220703 1.35957031 14.86621094 1.31640625 15.74609375 C1.26141968 16.93223267 1.26141968 16.93223267 1.20532227 18.14233398 C1 20 1 20 0 21 C-1.99958364 21.04080783 -4.00045254 21.04254356 -6 21 C-6.80967438 18.08517222 -7.21845993 16.53886783 -6.0625 13.6875 C-5.711875 13.130625 -5.36125 12.57375 -5 12 C-4.67 14.64 -4.34 17.28 -4 20 C-3.01 19.34 -2.02 18.68 -1 18 C-0.63501966 15.10391601 -0.63501966 15.10391601 -0.8125 11.875 C-0.83957031 10.77929688 -0.86664063 9.68359375 -0.89453125 8.5546875 C-0.92933594 7.71164063 -0.96414062 6.86859375 -1 6 C-1.99 6 -2.98 6 -4 6 C-2.25 1.125 -2.25 1.125 0 0 Z " fill="#729961" transform="translate(155,43)"/>
<path d="M0 0 C0 4.62 0 9.24 0 14 C-1.98 14.99 -1.98 14.99 -4 16 C-4.08075665 13.70890403 -4.13907731 11.41700733 -4.1875 9.125 C-4.22230469 7.84882812 -4.25710937 6.57265625 -4.29296875 5.2578125 C-4.19628906 4.18273438 -4.09960938 3.10765625 -4 2 C-1 0 -1 0 0 0 Z " fill="#62A148" transform="translate(155,47)"/>
<path d="M0 0 C0.80824219 0.10183594 1.61648437 0.20367187 2.44921875 0.30859375 C3.06410156 0.39238281 3.67898437 0.47617187 4.3125 0.5625 C4.3125 2.5425 4.3125 4.5225 4.3125 6.5625 C2.6625 6.8925 1.0125 7.2225 -0.6875 7.5625 C-1.0175 6.5725 -1.3475 5.5825 -1.6875 4.5625 C-4.6575 4.0675 -4.6575 4.0675 -7.6875 3.5625 C-7.6875 2.5725 -7.6875 1.5825 -7.6875 0.5625 C-4.59271121 -0.46909626 -3.16118607 -0.41232862 0 0 Z " fill="#64A04D" transform="translate(219.6875,37.4375)"/>
<path d="M0 0 C1.39456452 0.00667256 2.78911118 0.01863093 4.18359375 0.03515625 C4.89451172 0.03966797 5.60542969 0.04417969 6.33789062 0.04882812 C8.09899388 0.06064761 9.86005411 0.07858362 11.62109375 0.09765625 C11.62109375 0.42765625 11.62109375 0.75765625 11.62109375 1.09765625 C7.33109375 1.09765625 3.04109375 1.09765625 -1.37890625 1.09765625 C-2.03890625 10.33765625 -2.69890625 19.57765625 -3.37890625 29.09765625 C-3.70890625 29.09765625 -4.03890625 29.09765625 -4.37890625 29.09765625 C-4.40356506 25.12834636 -4.42174648 21.15906591 -4.43383789 17.18969727 C-4.43887682 15.83845239 -4.44570802 14.48721299 -4.4543457 13.13598633 C-4.46643044 11.19745191 -4.47160453 9.25887825 -4.4765625 7.3203125 C-4.48179932 6.15250244 -4.48703613 4.98469238 -4.49243164 3.78149414 C-4.32347323 -0.21282801 -4.10263002 0.11857312 0 0 Z " fill="#BAD1AC" transform="translate(123.37890625,28.90234375)"/>
<path d="M0 0 C0.33 0 0.66 0 1 0 C1.3396019 1.87387477 1.67138691 3.74916697 2 5.625 C2.185625 6.66914062 2.37125 7.71328125 2.5625 8.7890625 C2.98715797 11.90574865 3.07545206 14.85930812 3 18 C-2.875 16.125 -2.875 16.125 -4 15 C-4.04063832 13.33382885 -4.042721 11.66611905 -4 10 C-3.01 11.485 -3.01 11.485 -2 13 C-1.93941406 12.22914062 -1.87882813 11.45828125 -1.81640625 10.6640625 C-1.69072266 9.15972656 -1.69072266 9.15972656 -1.5625 7.625 C-1.48128906 6.62726563 -1.40007812 5.62953125 -1.31640625 4.6015625 C-1 2 -1 2 0 0 Z " fill="#737373" transform="translate(160,78)"/>
<path d="M0 0 C0.33 0 0.66 0 1 0 C1.14567407 3.56206722 1.23419196 7.12336551 1.3125 10.6875 C1.3753418 12.19860352 1.3753418 12.19860352 1.43945312 13.74023438 C1.56294834 21.22404418 1.56294834 21.22404418 -1.3125 25.1875 C-4.48722881 27.32859618 -6.24521841 27.43660251 -10 27 C-9.505 25.515 -9.505 25.515 -9 24 C-7.02 24 -5.04 24 -3 24 C-3 23.34 -3 22.68 -3 22 C-2.34 22 -1.68 22 -1 22 C-0.67 14.74 -0.34 7.48 0 0 Z " fill="#86A8C3" transform="translate(74,67)"/>
<path d="M0 0 C0 0.66 0 1.32 0 2 C-4.29 2 -8.58 2 -13 2 C-13 2.66 -13 3.32 -13 4 C-13.66 4 -14.32 4 -15 4 C-15 4.99 -15 5.98 -15 7 C-11.7 7 -8.4 7 -5 7 C-5.99 7.495 -5.99 7.495 -7 8 C-7 9.32 -7 10.64 -7 12 C-7.99 12 -8.98 12 -10 12 C-10 11.01 -10 10.02 -10 9 C-12.31 8.34 -14.62 7.68 -17 7 C-16.67 5.02 -16.34 3.04 -16 1 C-14.27111445 0.83044205 -12.54187557 0.66448486 -10.8125 0.5 C-9.84957031 0.4071875 -8.88664063 0.314375 -7.89453125 0.21875 C-5.24812333 0.01875156 -2.65239135 -0.03879183 0 0 Z " fill="#92B582" transform="translate(246,35)"/>
<path d="M0 0 C2.6875 0.3125 2.6875 0.3125 5 1 C3.68 2.65 2.36 4.3 1 6 C2.98 6.66 4.96 7.32 7 8 C7 8.33 7 8.66 7 9 C-0.42857143 9.14285714 -0.42857143 9.14285714 -4 8 C-4.12375 7.360625 -4.2475 6.72125 -4.375 6.0625 C-4.684375 5.0415625 -4.684375 5.0415625 -5 4 C-5.66 3.67 -6.32 3.34 -7 3 C-6.01 2.67 -5.02 2.34 -4 2 C-3.67 2.33 -3.34 2.66 -3 3 C-2.608125 2.484375 -2.21625 1.96875 -1.8125 1.4375 C-1.214375 0.963125 -0.61625 0.48875 0 0 Z " fill="#5485A9" transform="translate(336,55)"/>
<path d="M0 0 C0.33 0 0.66 0 1 0 C1 1.65 1 3.3 1 5 C1.78375 4.79375 2.5675 4.5875 3.375 4.375 C4.674375 4.189375 4.674375 4.189375 6 4 C6.66 4.66 7.32 5.32 8 6 C7.525625 6.391875 7.05125 6.78375 6.5625 7.1875 C4.64820367 9.40808374 4.38733012 11.13375709 4 14 C3.34 14 2.68 14 2 14 C2 12.68 2 11.36 2 10 C1.360625 9.7525 0.72125 9.505 0.0625 9.25 C-2 8 -2 8 -2.75 5.875 C-2.8325 5.25625 -2.915 4.6375 -3 4 C-2.34 3.67 -1.68 3.34 -1 3 C-0.67 2.01 -0.34 1.02 0 0 Z " fill="#4073A1" transform="translate(274,42)"/>
<path d="M0 0 C2.31 0 4.62 0 7 0 C7.93423645 3.01031744 8.04449911 3.86650268 7 7 C7.99 7.33 8.98 7.66 10 8 C8.68 8 7.36 8 6 8 C6 6.02 6 4.04 6 2 C4.68 2 3.36 2 2 2 C1.67 9.92 1.34 17.84 1 26 C-0.98003735 22.03992531 -1.21907399 20.96807256 -0.9765625 16.796875 C-0.925 15.8171875 -0.8734375 14.8375 -0.8203125 13.828125 C-0.75585938 12.81234375 -0.69140625 11.7965625 -0.625 10.75 C-0.56828125 9.71875 -0.5115625 8.6875 -0.453125 7.625 C-0.311881 5.08260795 -0.16049254 2.54123762 0 0 Z " fill="#86AD72" transform="translate(149,28)"/>
<path d="M0 0 C0.66 0 1.32 0 2 0 C2.93065133 2.60582371 3.14917407 3.64198224 2.0625 6.25 C1.5365625 7.11625 1.5365625 7.11625 1 8 C-0.32 7.67 -1.64 7.34 -3 7 C-3 8.65 -3 10.3 -3 12 C-3.99 12 -4.98 12 -6 12 C-6 9.36 -6 6.72 -6 4 C-4.7934375 3.566875 -4.7934375 3.566875 -3.5625 3.125 C-0.8673532 2.26737432 -0.8673532 2.26737432 0 0 Z " fill="#262626" transform="translate(286,83)"/>
<path d="M0 0 C1.58602877 3.17205755 1.28846656 6.53840122 1 10 C0.0625 12.375 0.0625 12.375 -1 14 C-1.33 14.66 -1.66 15.32 -2 16 C-2.66 16 -3.32 16 -4 16 C-5.72107623 6.26995516 -5.72107623 6.26995516 -3.953125 3.15625 C-2.5625 1.8125 -2.5625 1.8125 0 0 Z " fill="#2D6C95" transform="translate(332,38)"/>
<path d="M0 0 C0.99 0 1.98 0 3 0 C3 2.97 3 5.94 3 9 C4.32 8.67 5.64 8.34 7 8 C6.67 9.32 6.34 10.64 6 12 C4.68 11.67 3.36 11.34 2 11 C1.67 11.99 1.34 12.98 1 14 C0.67 14 0.34 14 0 14 C0 9.38 0 4.76 0 0 Z " fill="#67A84E" transform="translate(151,33)"/>
<path d="M0 0 C0.33 0.66 0.66 1.32 1 2 C1.66 2.33 2.32 2.66 3 3 C1.68 3 0.36 3 -1 3 C-0.896875 4.27875 -0.79375 5.5575 -0.6875 6.875 C-0.62949219 7.59429687 -0.57148438 8.31359375 -0.51171875 9.0546875 C-0.12606964 11.39519216 -0.12606964 11.39519216 3 13 C2.34 12.34 1.68 11.68 1 11 C1 10.01 1 9.02 1 8 C2.32 8 3.64 8 5 8 C4.67 10.31 4.34 12.62 4 15 C1.69 15 -0.62 15 -3 15 C-3.02696365 13.20841511 -3.04637917 11.41671527 -3.0625 9.625 C-3.07410156 8.62726563 -3.08570313 7.62953125 -3.09765625 6.6015625 C-3 4 -3 4 -2 2 C-1.34 2 -0.68 2 0 2 C0 1.34 0 0.68 0 0 Z " fill="#757473" transform="translate(188,80)"/>
<path d="M0 0 C0 1.32 0 2.64 0 4 C-2 6 -2 6 -4.3828125 6.1953125 C-5.28773438 6.17210938 -6.19265625 6.14890625 -7.125 6.125 C-8.49011719 6.09792969 -8.49011719 6.09792969 -9.8828125 6.0703125 C-10.58148438 6.04710938 -11.28015625 6.02390625 -12 6 C-11.67 4.68 -11.34 3.36 -11 2 C-9.88625 1.855625 -8.7725 1.71125 -7.625 1.5625 C-4.88109566 1.13672174 -2.67649104 0 0 0 Z " fill="#444242" transform="translate(235,81)"/>
<path d="M0 0 C0.33 0 0.66 0 1 0 C1.01981934 1.03406982 1.03963867 2.06813965 1.06005859 3.13354492 C1.13632227 6.98225619 1.22500714 10.8305996 1.31738281 14.67895508 C1.35558696 16.34229248 1.39045463 18.00571008 1.421875 19.66918945 C1.46771234 22.0649068 1.52567467 24.46007609 1.5859375 26.85546875 C1.59748871 27.5952446 1.60903992 28.33502045 1.62094116 29.09721375 C1.73581135 33.14605316 2.21350836 36.34866183 4 40 C3.01 39.67 2.02 39.34 1 39 C-0.61301773 35.77396455 -0.12053599 32.25289962 -0.09765625 28.7109375 C-0.0962413 27.89251373 -0.09482635 27.07408997 -0.09336853 26.23086548 C-0.0877629 23.61220675 -0.07520948 20.99363296 -0.0625 18.375 C-0.05748572 16.60156373 -0.05292269 14.82812613 -0.04882812 13.0546875 C-0.03779164 8.70309218 -0.02052325 4.3515605 0 0 Z " fill="#7CB261" transform="translate(18,54)"/>
<path d="M0 0 C0.33 0 0.66 0 1 0 C1.04898438 1.20398437 1.09796875 2.40796875 1.1484375 3.6484375 C1.22346343 5.22398198 1.29901133 6.79950166 1.375 8.375 C1.4059375 9.1690625 1.436875 9.963125 1.46875 10.78125 C1.51816421 15.36667375 1.51816421 15.36667375 4 19 C3.34 19 2.68 19 2 19 C2 19.99 2 20.98 2 22 C3.98 22 5.96 22 8 22 C4.28732913 24.33760758 3.80554252 23.9611085 -1 23 C-0.67 15.41 -0.34 7.82 0 0 Z " fill="#719E5D" transform="translate(120,40)"/>
<path d="M0 0 C2.475 0.495 2.475 0.495 5 1 C6.09898702 4.29696105 5.87124444 5.40494903 5.0625 8.6875 C4.86785156 9.49574219 4.67320312 10.30398437 4.47265625 11.13671875 C4.31667969 11.75160156 4.16070312 12.36648437 4 13 C3.01 13 2.02 13 1 13 C1.09539062 12.37351562 1.19078125 11.74703125 1.2890625 11.1015625 C1.39992187 10.28429687 1.51078125 9.46703125 1.625 8.625 C1.74101562 7.81289062 1.85703125 7.00078125 1.9765625 6.1640625 C1.98429688 5.44992188 1.99203125 4.73578125 2 4 C1.34 3.34 0.68 2.68 0 2 C0 1.34 0 0.68 0 0 Z " fill="#302F2E" transform="translate(217,82)"/>
<path d="M0 0 C1.25425781 0.11988281 2.50851563 0.23976562 3.80078125 0.36328125 C4.75339844 0.47027344 5.70601562 0.57726563 6.6875 0.6875 C4.52704043 3.17202851 2.99881908 4.33271581 -0.3125 4.6875 C-2.453125 4.12890625 -2.453125 4.12890625 -4.5625 3.25 C-5.62210938 2.81880859 -5.62210938 2.81880859 -6.703125 2.37890625 C-7.23421875 2.15074219 -7.7653125 1.92257813 -8.3125 1.6875 C-8.6425 2.6775 -8.9725 3.6675 -9.3125 4.6875 C-10.3025 4.6875 -11.2925 4.6875 -12.3125 4.6875 C-12.3125 4.0275 -12.3125 3.3675 -12.3125 2.6875 C-8.18432096 -0.63556573 -5.14450507 -0.52887435 0 0 Z " fill="#7AA766" transform="translate(190.3125,35.3125)"/>
<path d="M0 0 C1.32 0.33 2.64 0.66 4 1 C4.66 4.96 5.32 8.92 6 13 C3 15 3 15 0.3125 14.625 C-0.450625 14.41875 -1.21375 14.2125 -2 14 C-1.34 13.46375 -0.68 12.9275 0 12.375 C2.26038763 10.1280612 2.26038763 10.1280612 2.375 7 C2.02059186 4.16473488 1.48338437 2.41049961 0 0 Z " fill="#81B06F" transform="translate(189,43)"/>
<path d="M0 0 C1.65 0.33 3.3 0.66 5 1 C3.68 3.64 2.36 6.28 1 9 C0.34 8.67 -0.32 8.34 -1 8 C-1.33 8.99 -1.66 9.98 -2 11 C-2.66 11 -3.32 11 -4 11 C-4 9.02 -4 7.04 -4 5 C-3.01 4.67 -2.02 4.34 -1 4 C-0.26676204 1.98491642 -0.26676204 1.98491642 0 0 Z " fill="#346EA3" transform="translate(295,29)"/>
<path d="M0 0 C1.94158017 3.51624755 2.18311068 5.9715651 2 10 C2.99 9.67 3.98 9.34 5 9 C5.33 8.01 5.66 7.02 6 6 C6.66 6 7.32 6 8 6 C8.93423645 9.01031744 9.04449911 9.86650268 8 13 C6.02 13 4.04 13 2 13 C0.21590198 9.93753253 -0.22880021 7.77920727 -0.125 4.25 C-0.10695312 3.45078125 -0.08890625 2.6515625 -0.0703125 1.828125 C-0.04710937 1.22484375 -0.02390625 0.6215625 0 0 Z " fill="#8CAD7E" transform="translate(203,51)"/>
<path d="M0 0 C0.66 0 1.32 0 2 0 C2 7.59 2 15.18 2 23 C1.67 23 1.34 23 1 23 C0.63521072 20.29272088 0.28290562 17.58476283 -0.0625 14.875 C-0.16626953 14.11445312 -0.27003906 13.35390625 -0.37695312 12.5703125 C-0.93099161 8.13800459 -1.00817782 4.41342179 0 0 Z " fill="#699953" transform="translate(204,38)"/>
<path d="M0 0 C2.3125 0.0625 2.3125 0.0625 5 1 C7.80778413 5.91362223 8.50938852 10.40702911 9 16 C8.01 16.33 7.02 16.66 6 17 C5.95101562 16.32453125 5.90203125 15.6490625 5.8515625 14.953125 C5.77679688 14.06109375 5.70203125 13.1690625 5.625 12.25 C5.52058594 10.92742188 5.52058594 10.92742188 5.4140625 9.578125 C4.73927748 5.37663336 3.11876717 2.83524288 0 0 Z " fill="#75AE65" transform="translate(138,33)"/>
<path d="M0 0 C1.64826111 2.96687001 2.44271087 5.65626525 3 9 C2.01 9.495 2.01 9.495 1 10 C0.67 10.99 0.34 11.98 0 13 C-0.99 13.33 -1.98 13.66 -3 14 C-3.40652968 8.57960425 -2.03993514 4.92984325 0 0 Z " fill="#60A34A" transform="translate(169,41)"/>
<path d="M0 0 C-1.485 1.98 -1.485 1.98 -3 4 C-2.67 4.66 -2.34 5.32 -2 6 C-2.99 6 -3.98 6 -5 6 C-5.33 7.65 -5.66 9.3 -6 11 C-6.66 11 -7.32 11 -8 11 C-8 7.7 -8 4.4 -8 1 C-5.07175348 0.02391783 -3.04386724 -0.08226668 0 0 Z " fill="#31302F" transform="translate(210,82)"/>
<path d="M0 0 C4.75 0.75 4.75 0.75 7 3 C7.265625 5.8984375 7.265625 5.8984375 7.25 9.375 C7.25515625 10.51710938 7.2603125 11.65921875 7.265625 12.8359375 C7.01510533 15.82006883 6.55829924 17.48940678 5 20 C4.93941406 18.86820313 4.87882813 17.73640625 4.81640625 16.5703125 C4.73200083 15.08852855 4.64735283 13.6067584 4.5625 12.125 C4.52318359 11.37863281 4.48386719 10.63226563 4.44335938 9.86328125 C4.28426376 5.80013136 4.28426376 5.80013136 3 2 C2.01 1.34 1.02 0.68 0 0 Z " fill="#95C587" transform="translate(159,42)"/>
<path d="M0 0 C0.66 0 1.32 0 2 0 C2 1.32 2 2.64 2 4 C1.34 4 0.68 4 0 4 C0.16371094 4.54140625 0.32742188 5.0828125 0.49609375 5.640625 C1.08590587 8.40222593 1.09609308 10.92818139 1.0625 13.75 C1.05347656 14.73484375 1.04445313 15.7196875 1.03515625 16.734375 C1.02355469 17.48203125 1.01195312 18.2296875 1 19 C0.67 19 0.34 19 0 19 C0 16.03 0 13.06 0 10 C-0.99 9.67 -1.98 9.34 -3 9 C-2.25 2.25 -2.25 2.25 0 0 Z " fill="#12527F" transform="translate(370,33)"/>
<path d="M0 0 C1.32 0 2.64 0 4 0 C4 2.97 4 5.94 4 9 C3.67 9 3.34 9 3 9 C2.67 7.02 2.34 5.04 2 3 C1.67 5.31 1.34 7.62 1 10 C0.34 9.34 -0.32 8.68 -1 8 C-1.99 8 -2.98 8 -4 8 C-4.33 6.68 -4.66 5.36 -5 4 C-3.68 4 -2.36 4 -1 4 C-0.67 2.68 -0.34 1.36 0 0 Z " fill="#7E7E7E" transform="translate(292,78)"/>
<path d="M0 0 C0.99 0.33 1.98 0.66 3 1 C3 6.28 3 11.56 3 17 C4.65 17 6.3 17 8 17 C8 17.66 8 18.32 8 19 C6.02 19 4.04 19 2 19 C-0.44989101 15.25764681 -0.23086143 11.55774581 -0.125 7.25 C-0.11597656 6.55261719 -0.10695312 5.85523438 -0.09765625 5.13671875 C-0.07419888 3.42433042 -0.03833104 1.71211996 0 0 Z " fill="#82A773" transform="translate(219,45)"/>
<path d="M0 0 C1.65 0 3.3 0 5 0 C5 0.66 5 1.32 5 2 C5.99 1.34 6.98 0.68 8 0 C9.97265625 -0.046875 9.97265625 -0.046875 12.0625 0.25 C12.75472656 0.33765625 13.44695312 0.4253125 14.16015625 0.515625 C16 1 16 1 18 3 C16.68 3.33 15.36 3.66 14 4 C14 3.34 14 2.68 14 2 C13.09507812 2.23396484 13.09507812 2.23396484 12.171875 2.47265625 C11.37265625 2.66730469 10.5734375 2.86195312 9.75 3.0625 C8.96109375 3.25972656 8.1721875 3.45695312 7.359375 3.66015625 C4.07563594 4.13314515 1.92830061 3.46415031 -1 2 C-0.67 1.34 -0.34 0.68 0 0 Z " fill="#86B378" transform="translate(205,35)"/>
<path d="M0 0 C0.66 0 1.32 0 2 0 C2.66 0.99 3.32 1.98 4 3 C4.66 3.33 5.32 3.66 6 4 C6 4.66 6 5.32 6 6 C5.34 6 4.68 6 4 6 C4 6.66 4 7.32 4 8 C3.34 8 2.68 8 2 8 C2 8.66 2 9.32 2 10 C1.01 9.67 0.02 9.34 -1 9 C-1 8.34 -1 7.68 -1 7 C-1.66 6.67 -2.32 6.34 -3 6 C-1.68 5.67 -0.36 5.34 1 5 C0.67 3.35 0.34 1.7 0 0 Z " fill="#645F60" transform="translate(234,91)"/>
<path d="M0 0 C3 2 3 2 3.6875 4.0625 C4.11162815 8.04930461 4.07852899 11.9950216 4 16 C1 14 1 14 0.3125 11.9375 C-0.11162815 7.95069539 -0.07852899 4.0049784 0 0 Z " fill="#9BBE72" transform="translate(224,39)"/>
<path d="M0 0 C0.66 0 1.32 0 2 0 C2 1.98 2 3.96 2 6 C1.01 6 0.02 6 -1 6 C-1 6.66 -1 7.32 -1 8 C-2.32 8.33 -3.64 8.66 -5 9 C-5 8.34 -5 7.68 -5 7 C-5.66 7 -6.32 7 -7 7 C-7 6.01 -7 5.02 -7 4 C-5.35 4 -3.7 4 -2 4 C-1.34 2.68 -0.68 1.36 0 0 Z " fill="#161415" transform="translate(235,82)"/>
<path d="M0 0 C3.63 0.33 7.26 0.66 11 1 C9.02 1.99 9.02 1.99 7 3 C7 3.66 7 4.32 7 5 C4.36 4.67 1.72 4.34 -1 4 C-0.67 2.68 -0.34 1.36 0 0 Z " fill="#62A349" transform="translate(180,57)"/>
<path d="M0 0 C2.51083114 1.25541557 2.87125446 2.50063488 4 5 C0.32589215 6.17571451 -3.16929183 6.07366746 -7 6 C-6.67 4.35 -6.34 2.7 -6 1 C-3.03 1.495 -3.03 1.495 0 2 C0 1.34 0 0.68 0 0 Z " fill="#404040" transform="translate(136,90)"/>
<path d="M0 0 C1.85064319 3.12296038 2.29356154 5.37940768 2 9 C1.67 9.33 1.34 9.66 1 10 C0.76572222 12.01594582 0.58663876 14.038474 0.4375 16.0625 C0.35371094 17.16722656 0.26992187 18.27195312 0.18359375 19.41015625 C0.12300781 20.26480469 0.06242187 21.11945313 0 22 C-0.33 22 -0.66 22 -1 22 C-1.02700675 19.08327116 -1.04684237 16.16679323 -1.0625 13.25 C-1.07087891 12.425 -1.07925781 11.6 -1.08789062 10.75 C-1.09111328 9.95078125 -1.09433594 9.1515625 -1.09765625 8.328125 C-1.10289307 7.5949707 -1.10812988 6.86181641 -1.11352539 6.10644531 C-0.9975109 3.9538151 -0.59073271 2.0685865 0 0 Z " fill="#49809B" transform="translate(79,52)"/>
<path d="M0 0 C0.66 0 1.32 0 2 0 C2 0.66 2 1.32 2 2 C2.66 2 3.32 2 4 2 C4.33 4.64 4.66 7.28 5 10 C3.68 10 2.36 10 1 10 C0.67 6.7 0.34 3.4 0 0 Z " fill="#252525" transform="translate(136,82)"/>
<path d="M0 0 C0.66 0.33 1.32 0.66 2 1 C1.35546875 1.64324219 0.7109375 2.28648438 0.046875 2.94921875 C-2.65274213 6.97288474 -2.66261203 10.07368892 -2.75 14.8125 C-2.77964844 15.60076172 -2.80929688 16.38902344 -2.83984375 17.20117188 C-2.91011293 19.13357446 -2.95737134 21.06679015 -3 23 C-3.33 23 -3.66 23 -4 23 C-4.11644156 19.91698584 -4.18732432 16.83453877 -4.25 13.75 C-4.28351562 12.87730469 -4.31703125 12.00460938 -4.3515625 11.10546875 C-4.45112665 4.58401668 -4.45112665 4.58401668 -1.984375 1.390625 C-1.32953125 0.93171875 -0.6746875 0.4728125 0 0 Z " fill="#8AB773" transform="translate(30,28)"/>
<path d="M0 0 C0.99 0.33 1.98 0.66 3 1 C3.66 4.3 4.32 7.6 5 11 C3 9 1 7 -1 5 C-1.33 5.66 -1.66 6.32 -2 7 C-1.125 1.125 -1.125 1.125 0 0 Z " fill="#1A5A89" transform="translate(280,41)"/>
<path d="M0 0 C0 0.66 0 1.32 0 2 C-2.97851562 2.34179688 -2.97851562 2.34179688 -5.95703125 2.68359375 C-8.19396393 2.97170735 -8.19396393 2.97170735 -11 4 C-11.33 4.99 -11.66 5.98 -12 7 C-12.625 5.125 -12.625 5.125 -13 3 C-9.25711729 -0.74288271 -5.09766283 -0.09803198 0 0 Z " fill="#37678A" transform="translate(318,36)"/>
<path d="M0 0 C0.99 0.99 1.98 1.98 3 3 C3 3.99 3 4.98 3 6 C3.66 6 4.32 6 5 6 C4.67 7.65 4.34 9.3 4 11 C2.68 10.67 1.36 10.34 0 10 C0 6.7 0 3.4 0 0 Z " fill="#807F7F" transform="translate(211,84)"/>
<path d="M0 0 C0.99 0 1.98 0 3 0 C3.33 2.31 3.66 4.62 4 7 C3.01 7.495 3.01 7.495 2 8 C2 7.01 2 6.02 2 5 C1.34 4.67 0.68 4.34 0 4 C0 5.32 0 6.64 0 8 C-0.66 7.67 -1.32 7.34 -2 7 C-1.125 1.125 -1.125 1.125 0 0 Z " fill="#656564" transform="translate(155,79)"/>
<path d="M0 0 C-0.66 1.65 -1.32 3.3 -2 5 C-3.32 5 -4.64 5 -6 5 C-6 4.34 -6 3.68 -6 3 C-7.32 2.67 -8.64 2.34 -10 2 C-6.27511755 -0.66063032 -4.42132508 -1.38955931 0 0 Z " fill="#2D6CA2" transform="translate(323,55)"/>
<path d="M0 0 C0.33 0 0.66 0 1 0 C1 7.59 1 15.18 1 23 C0.67 23 0.34 23 0 23 C-0.39314715 20.48083404 -0.76475959 17.96140658 -1.125 15.4375 C-1.23714844 14.73302734 -1.34929688 14.02855469 -1.46484375 13.30273438 C-2.15894464 8.28207131 -1.69646511 4.78151834 0 0 Z " fill="#A6C190" transform="translate(20,46)"/>
<path d="M0 0 C0.33 0.99 0.66 1.98 1 3 C-2.35327639 5.23551759 -2.90743657 5.17283528 -6.6875 4.625 C-7.49574219 4.51414062 -8.30398437 4.40328125 -9.13671875 4.2890625 C-10.05904297 4.14597656 -10.05904297 4.14597656 -11 4 C-9 2 -9 2 -6.8359375 1.8046875 C-5.61777344 1.83949219 -5.61777344 1.83949219 -4.375 1.875 C-3.14910156 1.90207031 -3.14910156 1.90207031 -1.8984375 1.9296875 C-0.95871094 1.96449219 -0.95871094 1.96449219 0 2 C0 1.34 0 0.68 0 0 Z " fill="#A5BF99" transform="translate(38,90)"/>
<path d="M0 0 C0.66 0 1.32 0 2 0 C2 1.98 2 3.96 2 6 C2.99 6.33 3.98 6.66 5 7 C4.67 8.32 4.34 9.64 4 11 C3.01 11 2.02 11 1 11 C1 10.34 1 9.68 1 9 C0.01 8.34 -0.98 7.68 -2 7 C-1.34 6.34 -0.68 5.68 0 5 C0.16687448 2.41645782 0.16687448 2.41645782 0 0 Z " fill="#727272" transform="translate(268,85)"/>
<path d="M0 0 C0.33 0.66 0.66 1.32 1 2 C1.99 2.33 2.98 2.66 4 3 C3.67 5.31 3.34 7.62 3 10 C1.68 9.34 0.36 8.68 -1 8 C-1 5.16032769 -0.59732819 2.76264289 0 0 Z " fill="#242324" transform="translate(256,87)"/>
<path d="M0 0 C5.445 1.485 5.445 1.485 11 3 C9.68 3.33 8.36 3.66 7 4 C7 4.66 7 5.32 7 6 C2.25 5.25 2.25 5.25 0 3 C0 2.01 0 1.02 0 0 Z " fill="#0C5791" transform="translate(306,55)"/>
<path d="M0 0 C0.66 0 1.32 0 2 0 C2.33 0.66 2.66 1.32 3 2 C4.32 1.67 5.64 1.34 7 1 C7.33 2.32 7.66 3.64 8 5 C6.02 5.66 4.04 6.32 2 7 C0 4 0 4 0 0 Z " fill="#3F3F3D" transform="translate(169,90)"/>
<path d="M0 0 C0 0.99 0 1.98 0 3 C-0.99 3 -1.98 3 -3 3 C-3.33 5.31 -3.66 7.62 -4 10 C-4.66 9.67 -5.32 9.34 -6 9 C-6 6.36 -6 3.72 -6 1 C-3.92446352 0.4465236 -2.15634036 0 0 0 Z " fill="#161513" transform="translate(193,82)"/>
<path d="M0 0 C2.475 0.495 2.475 0.495 5 1 C5 1.33 5 1.66 5 2 C6.98 2.66 8.96 3.32 11 4 C10.67 4.99 10.34 5.98 10 7 C9.21625 6.649375 8.4325 6.29875 7.625 5.9375 C6.75875 5.628125 5.8925 5.31875 5 5 C4.01 5.495 4.01 5.495 3 6 C3 5.01 3 4.02 3 3 C2.01 2.67 1.02 2.34 0 2 C0 1.34 0 0.68 0 0 Z " fill="#74A85D" transform="translate(208,38)"/>
<path d="M0 0 C1.04449911 3.13349732 0.93423645 3.98968256 0 7 C-2.31 6.34 -4.62 5.68 -7 5 C-6.34 3.68 -5.68 2.36 -5 1 C-3.35 1.33 -1.7 1.66 0 2 C0 1.34 0 0.68 0 0 Z " fill="#1A699C" transform="translate(406,41)"/>
<path d="M0 0 C0.66 0 1.32 0 2 0 C2 0.66 2 1.32 2 2 C2.66 2 3.32 2 4 2 C5.39195915 6.17587745 3.82323219 8.13474776 2 12 C1.34 12 0.68 12 0 12 C0.185625 10.7625 0.37125 9.525 0.5625 8.25 C0.94711223 5.23720423 1.0874594 2.89989173 0 0 Z " fill="#92BB84" transform="translate(137,41)"/>
<path d="M0 0 C-0.99 0.66 -1.98 1.32 -3 2 C-3 2.99 -3 3.98 -3 5 C-6.63 5 -10.26 5 -14 5 C-14 4.67 -14 4.34 -14 4 C-11.03 4 -8.06 4 -5 4 C-5.99 2.68 -6.98 1.36 -8 0 C-4.71023192 -1.09658936 -3.28696233 -0.79953138 0 0 Z " fill="#6CA8C1" transform="translate(323,42)"/>
<path d="M0 0 C0 0.66 0 1.32 0 2 C0.66 2.33 1.32 2.66 2 3 C1 4 1 4 -0.84765625 4.09765625 C-2.8984375 4.06510417 -4.94921875 4.03255208 -7 4 C-7 3.01 -7 2.02 -7 1 C-4 0 -4 0 0 0 Z " fill="#5FA443" transform="translate(219,37)"/>
<path d="M0 0 C1.65 0.99 3.3 1.98 5 3 C4.67 4.65 4.34 6.3 4 8 C3.01 8 2.02 8 1 8 C0.67 5.36 0.34 2.72 0 0 Z " fill="#8BA370" transform="translate(23,93)"/>
<path d="M0 0 C0.99 0 1.98 0 3 0 C3.25 2.75 3.25 2.75 3 6 C1 8.375 1 8.375 -1 10 C-0.67 8.02 -0.34 6.04 0 4 C-0.99 4.495 -0.99 4.495 -2 5 C-1.34 3.35 -0.68 1.7 0 0 Z " fill="#605F5F" transform="translate(241,82)"/>
<path d="M0 0 C0.33 0.66 0.66 1.32 1 2 C2.98 1.34 4.96 0.68 7 0 C6.67 1.65 6.34 3.3 6 5 C4.35 5 2.7 5 1 5 C0.67 3.35 0.34 1.7 0 0 Z " fill="#6B9358" transform="translate(165,59)"/>
<path d="M0 0 C1.65 0 3.3 0 5 0 C5 1.65 5 3.3 5 5 C2.69 5 0.38 5 -2 5 C-1.34 3.35 -0.68 1.7 0 0 Z " fill="#2163A1" transform="translate(346,51)"/>
<path d="M0 0 C2.64 0 5.28 0 8 0 C7.01 0.495 7.01 0.495 6 1 C5.17195931 3.48412207 5 5.35220307 5 8 C4.01 8 3.02 8 2 8 C1.67 7.01 1.34 6.02 1 5 C1.99 4.67 2.98 4.34 4 4 C3.34 3.34 2.68 2.68 2 2 C1.34 1.34 0.68 0.68 0 0 Z " fill="#2169AC" transform="translate(308,49)"/>
<path d="M0 0 C0.33 0 0.66 0 1 0 C1.38873828 1.95565258 1.76060833 3.91466504 2.125 5.875 C2.33382813 6.96554688 2.54265625 8.05609375 2.7578125 9.1796875 C2.83773438 10.11039063 2.91765625 11.04109375 3 12 C2.34 12.66 1.68 13.32 1 14 C0.87625 13.030625 0.7525 12.06125 0.625 11.0625 C0.41875 10.051875 0.2125 9.04125 0 8 C-0.66 7.67 -1.32 7.34 -2 7 C-1.42415568 4.61435923 -0.77772405 2.33317216 0 0 Z " fill="#2E689C" transform="translate(268,33)"/>
<path d="M0 0 C8.57142857 -0.28571429 8.57142857 -0.28571429 12 2 C11.67 2.99 11.34 3.98 11 5 C10.278125 4.525625 9.55625 4.05125 8.8125 3.5625 C6.10524774 2.05847097 4.03805725 1.43400818 1 1 C0.67 2.32 0.34 3.64 0 5 C-0.33 4.01 -0.66 3.02 -1 2 C-0.67 1.34 -0.34 0.68 0 0 Z " fill="#7AA963" transform="translate(125,35)"/>
<path d="M0 0 C1.93681161 -0.08107583 3.8745934 -0.13922475 5.8125 -0.1875 C6.89144531 -0.22230469 7.97039062 -0.25710937 9.08203125 -0.29296875 C12 0 12 0 13.88671875 1.51171875 C14.25410156 2.00285156 14.62148437 2.49398437 15 3 C13.06183265 2.8858134 11.12444901 2.75826577 9.1875 2.625 C8.10855469 2.55539063 7.02960938 2.48578125 5.91796875 2.4140625 C3 2 3 2 0 0 Z " fill="#729F5E" transform="translate(125,30)"/>
<path d="M0 0 C0.99 0 1.98 0 3 0 C3.33 2.31 3.66 4.62 4 7 C3.34 7 2.68 7 2 7 C1.34 7.99 0.68 8.98 0 10 C0 6.7 0 3.4 0 0 Z " fill="#676767" transform="translate(255,82)"/>
<path d="M0 0 C1.32 0 2.64 0 4 0 C4 2.31 4 4.62 4 7 C3.01 7.495 3.01 7.495 2 8 C1.67 7.01 1.34 6.02 1 5 C0.67 5.66 0.34 6.32 0 7 C-0.66 7 -1.32 7 -2 7 C-2 6.01 -2 5.02 -2 4 C-1.34 4 -0.68 4 0 4 C0 2.68 0 1.36 0 0 Z " fill="#858585" transform="translate(282,78)"/>
<path d="M0 0 C0.93423645 3.01031744 1.04449911 3.86650268 0 7 C-0.33 7 -0.66 7 -1 7 C-1.33 9.97 -1.66 12.94 -2 16 C-2.33 16 -2.66 16 -3 16 C-3.55353075 4.29384966 -3.55353075 4.29384966 0 0 Z " fill="#90BC7A" transform="translate(177,40)"/>
<path d="M0 0 C1.65 0 3.3 0 5 0 C4.67 0.66 4.34 1.32 4 2 C3.34 2 2.68 2 2 2 C1.94600264 3.45792884 1.90720823 4.91642712 1.875 6.375 C1.85179687 7.18710937 1.82859375 7.99921875 1.8046875 8.8359375 C1.78629949 11.21342243 1.78629949 11.21342243 4 13 C2.68 12.67 1.36 12.34 0 12 C0 8.04 0 4.08 0 0 Z " fill="#8BB473" transform="translate(181,43)"/>
<path d="M0 0 C0.33 1.32 0.66 2.64 1 4 C0.01 4.495 0.01 4.495 -1 5 C-1 6.98 -1 8.96 -1 11 C-1.66 11 -2.32 11 -3 11 C-3.66 8.03 -4.32 5.06 -5 2 C-3.35 1.34 -1.7 0.68 0 0 Z " fill="#095285" transform="translate(349,36)"/>
<path d="M0 0 C0.99 0 1.98 0 3 0 C3 3.3 3 6.6 3 10 C2.01 10.495 2.01 10.495 1 11 C-0.20272819 8.59454362 -0.10071472 7.05003047 -0.0625 4.375 C-0.05347656 3.55773438 -0.04445313 2.74046875 -0.03515625 1.8984375 C-0.02355469 1.27195313 -0.01195312 0.64546875 0 0 Z " fill="#08589A" transform="translate(388,32)"/>
<path d="M0 0 C2.33294775 -0.04241723 4.66702567 -0.04092937 7 0 C8 1 8 1 8.0625 3.5625 C8.041875 4.366875 8.02125 5.17125 8 6 C7.608125 5.525625 7.21625 5.05125 6.8125 4.5625 C4.59191626 2.64820367 2.86624291 2.38733012 0 2 C0 1.34 0 0.68 0 0 Z " fill="#386C8C" transform="translate(369,30)"/>
<path d="M0 0 C0.99 0 1.98 0 3 0 C3.33 1.98 3.66 3.96 4 6 C2.02 6.99 2.02 6.99 0 8 C-0.38063221 5.6739143 -0.71269945 3.33944736 -1 1 C-0.67 0.67 -0.34 0.34 0 0 Z " fill="#505050" transform="translate(250,82)"/>
<path d="M0 0 C0.66 0 1.32 0 2 0 C2.125 7.75 2.125 7.75 1 10 C0.34 10 -0.32 10 -1 10 C-0.34 8.35 0.32 6.7 1 5 C-0.32 5.33 -1.64 5.66 -3 6 C-2.67 5.01 -2.34 4.02 -2 3 C-1.34 3 -0.68 3 0 3 C0 2.01 0 1.02 0 0 Z " fill="#0C5180" transform="translate(322,50)"/>
<path d="M0 0 C0.99 0.66 1.98 1.32 3 2 C1.02 4.97 -0.96 7.94 -3 11 C-4 7 -4 7 -3.22265625 5.078125 C-1.61132812 2.5390625 -1.61132812 2.5390625 0 0 Z " fill="#8AB27B" transform="translate(244,44)"/>
<path d="M0 0 C0.66 0.33 1.32 0.66 2 1 C1.67 3.64 1.34 6.28 1 9 C0.54625 8.505 0.0925 8.01 -0.375 7.5 C-1.87635519 5.77390663 -1.87635519 5.77390663 -4 6 C-2.25 1.125 -2.25 1.125 0 0 Z " fill="#72AA60" transform="translate(155,43)"/>
<path d="M0 0 C0.66 0.33 1.32 0.66 2 1 C2 2.32 2 3.64 2 5 C-1.63 5 -5.26 5 -9 5 C-5.23312136 3.11656068 -3.97041037 2.77942165 0 3 C0 2.01 0 1.02 0 0 Z " fill="#4F7C98" transform="translate(61,95)"/>
<path d="M0 0 C1.32 0.66 2.64 1.32 4 2 C3.67 3.32 3.34 4.64 3 6 C1.68 6 0.36 6 -1 6 C-1.042721 4.33388095 -1.04063832 2.66617115 -1 1 C-0.67 0.67 -0.34 0.34 0 0 Z " fill="#2E2E2E" transform="translate(143,89)"/>
<path d="M0 0 C0.33 0 0.66 0 1 0 C1.66 3.96 2.32 7.92 3 12 C1.68 12 0.36 12 -1 12 C-1.02698189 10.37509046 -1.04638757 8.75005367 -1.0625 7.125 C-1.07410156 6.22007813 -1.08570313 5.31515625 -1.09765625 4.3828125 C-1 2 -1 2 0 0 Z " fill="#6D6D6C" transform="translate(160,78)"/>
<path d="M0 0 C0.33 0.99 0.66 1.98 1 3 C2.65 3.33 4.3 3.66 6 4 C6.33 3.34 6.66 2.68 7 2 C7 2.99 7 3.98 7 5 C7.66 5.33 8.32 5.66 9 6 C7.3125 6.6875 7.3125 6.6875 5 7 C2.25 5.8125 2.25 5.8125 0 4 C0 2.68 0 1.36 0 0 Z " fill="#658BA5" transform="translate(285,58)"/>
<path d="M0 0 C0.99 0 1.98 0 3 0 C2.51855059 4.81449408 2.1991413 7.60171741 0 12 C0 8.04 0 4.08 0 0 Z " fill="#4D7FA2" transform="translate(293,49)"/>
<path d="M0 0 C0.99 0 1.98 0 3 0 C3 1.65 3 3.3 3 5 C2.01 5 1.02 5 0 5 C-0.33 5.66 -0.66 6.32 -1 7 C-1.625 4.625 -1.625 4.625 -2 2 C-1.34 1.34 -0.68 0.68 0 0 Z " fill="#094E81" transform="translate(299,31)"/>
<path d="M0 0 C1.11375 0.1546875 1.11375 0.1546875 2.25 0.3125 C2.25 0.9725 2.25 1.6325 2.25 2.3125 C0.93 1.9825 -0.39 1.6525 -1.75 1.3125 C-1.75 2.3025 -1.75 3.2925 -1.75 4.3125 C-3.57193842 6.2374647 -5.64235283 7.68785531 -7.75 9.3125 C-7.06213852 4.66943499 -4.92005947 0.55909767 0 0 Z " fill="#72A65B" transform="translate(34.75,27.6875)"/>
<path d="M0 0 C1.32 0.33 2.64 0.66 4 1 C4 1.66 4 2.32 4 3 C4.66 3.66 5.32 4.32 6 5 C5 6 5 6 2.4375 6.0625 C1.2309375 6.0315625 1.2309375 6.0315625 0 6 C0 4.02 0 2.04 0 0 Z " fill="#111111" transform="translate(264,89)"/>
<path d="M0 0 C2 3 2 3 1.625 5.6875 C1.41875 6.450625 1.2125 7.21375 1 8 C-0.9375 7.625 -0.9375 7.625 -3 7 C-3.33 6.34 -3.66 5.68 -4 5 C-2.68 4.67 -1.36 4.34 0 4 C0 2.68 0 1.36 0 0 Z " fill="#13558C" transform="translate(290,46)"/>
<path d="M0 0 C-0.66 1.32 -1.32 2.64 -2 4 C-2 3.01 -2 2.02 -2 1 C-4.97 1.66 -7.94 2.32 -11 3 C-9 0 -9 0 -7.1875 -0.75 C-4.59271 -1.04654743 -2.52136205 -0.63034051 0 0 Z " fill="#5E8FA8" transform="translate(57,46)"/>
<path d="M0 0 C2.475 0.495 2.475 0.495 5 1 C5 2.98 5 4.96 5 7 C4.01 7.495 4.01 7.495 3 8 C2.67 6.35 2.34 4.7 2 3 C1.34 3 0.68 3 0 3 C0 2.01 0 1.02 0 0 Z " fill="#84AE6B" transform="translate(15,45)"/>
<path d="M0 0 C0.66 0.66 1.32 1.32 2 2 C2.66 1.67 3.32 1.34 4 1 C4 3.31 4 5.62 4 8 C3.01 8 2.02 8 1 8 C0.67 5.36 0.34 2.72 0 0 Z " fill="#0A5794" transform="translate(265,38)"/>
<path d="M0 0 C1.32 0 2.64 0 4 0 C4.33 2.31 4.66 4.62 5 7 C3 5.625 3 5.625 1 4 C1 3.34 1 2.68 1 2 C0.34 1.67 -0.32 1.34 -1 1 C-0.67 0.67 -0.34 0.34 0 0 Z " fill="#306D9B" transform="translate(341,39)"/>
<path d="M0 0 C1.6415049 3.2830098 0.51888624 6.42545033 0 10 C-0.66 10 -1.32 10 -2 10 C-2.33 10.66 -2.66 11.32 -3 12 C-2.88648483 10.18674449 -2.75887039 8.37436643 -2.625 6.5625 C-2.55539062 5.55316406 -2.48578125 4.54382812 -2.4140625 3.50390625 C-2.27742188 2.67761719 -2.14078125 1.85132812 -2 1 C-1.34 0.67 -0.68 0.34 0 0 Z " fill="#4D809F" transform="translate(278,29)"/>
<path d="M0 0 C-3.01490557 1.00496852 -5.04181692 1.10335303 -8.1875 1.0625 C-9.53908203 1.04896484 -9.53908203 1.04896484 -10.91796875 1.03515625 C-11.60503906 1.02355469 -12.29210937 1.01195313 -13 1 C-8.2542993 -1.45328595 -4.83320421 -3.04312857 0 0 Z " fill="#587F9E" transform="translate(86,99)"/>
<path d="M0 0 C0.66 0.33 1.32 0.66 2 1 C2 1.99 2 2.98 2 4 C0.68 4 -0.64 4 -2 4 C-2 4.99 -2 5.98 -2 7 C-2.99 7 -3.98 7 -5 7 C-4.34 5.02 -3.68 3.04 -3 1 C-2.34 1.33 -1.68 1.66 -1 2 C-0.67 1.34 -0.34 0.68 0 0 Z " fill="#67A34B" transform="translate(143,51)"/>
<path d="M0 0 C0 0.99 0 1.98 0 3 C-0.99 3.495 -0.99 3.495 -2 4 C-2.33 3.01 -2.66 2.02 -3 1 C-4.87387216 0.19787372 -4.87387216 0.19787372 -7.0625 -0.1875 C-7.79597656 -0.34605469 -8.52945312 -0.50460938 -9.28515625 -0.66796875 C-9.85105469 -0.77753906 -10.41695313 -0.88710938 -11 -1 C-11 -1.33 -11 -1.66 -11 -2 C-6.38619749 -3.49270081 -4.10342037 -2.38570952 0 0 Z " fill="#58809F" transform="translate(405,38)"/>
<path d="M0 0 C0.99 0.33 1.98 0.66 3 1 C3 2.98 3 4.96 3 7 C2.67 6.01 2.34 5.02 2 4 C1.34 4 0.68 4 0 4 C-0.33 5.32 -0.66 6.64 -1 8 C-1.04241723 5.66705225 -1.04092937 3.33297433 -1 1 C-0.67 0.67 -0.34 0.34 0 0 Z " fill="#0A528B" transform="translate(360,30)"/>
<path d="M0 0 C0.66 1.32 1.32 2.64 2 4 C1.01 3.67 0.02 3.34 -1 3 C-1.66 4.32 -2.32 5.64 -3 7 C-4 6 -4 6 -4.0625 3.4375 C-4.041875 2.633125 -4.02125 1.82875 -4 1 C-2.68 1.33 -1.36 1.66 0 2 C0 1.34 0 0.68 0 0 Z " fill="#787878" transform="translate(287,89)"/>
<path d="M0 0 C0.66 0 1.32 0 2 0 C2 1.32 2 2.64 2 4 C2.99 4 3.98 4 5 4 C5 4.99 5 5.98 5 7 C3.35 6.67 1.7 6.34 0 6 C0 4.02 0 2.04 0 0 Z " fill="#1B1B18" transform="translate(161,78)"/>
<path d="M0 0 C0.33 0.66 0.66 1.32 1 2 C3.31 2 5.62 2 8 2 C7.67 2.66 7.34 3.32 7 4 C4.36 4 1.72 4 -1 4 C-0.67 2.68 -0.34 1.36 0 0 Z " fill="#151515" transform="translate(122,91)"/>
<path d="M0 0 C0 2 0 2 -1.375 3.5 C-1.91125 3.995 -2.4475 4.49 -3 5 C-3.66 5.66 -4.32 6.32 -5 7 C-5.33 5.35 -5.66 3.7 -6 2 C-2.25 0 -2.25 0 0 0 Z " fill="#929292" transform="translate(174,82)"/>
<path d="M0 0 C0.33 0 0.66 0 1 0 C1.125 2.375 1.125 2.375 1 5 C-1 7 -1 7 -3.625 7.125 C-4.40875 7.08375 -5.1925 7.0425 -6 7 C-5.071875 6.6596875 -5.071875 6.6596875 -4.125 6.3125 C-1.38589791 4.62070165 -0.94975528 3.00755839 0 0 Z " fill="#6195AA" transform="translate(276,57)"/>
<path d="M0 0 C0.94875 0.350625 1.8975 0.70125 2.875 1.0625 C2.545 1.7225 2.215 2.3825 1.875 3.0625 C0.225 3.0625 -1.425 3.0625 -3.125 3.0625 C-3.125 2.4025 -3.125 1.7425 -3.125 1.0625 C-3.785 0.7325 -4.445 0.4025 -5.125 0.0625 C-3.125 -0.9375 -3.125 -0.9375 0 0 Z " fill="#5AA542" transform="translate(233.125,58.9375)"/>
<path d="M0 0 C0.99 0.66 1.98 1.32 3 2 C3 2.66 3 3.32 3 4 C3.66 4 4.32 4 5 4 C5 5.65 5 7.3 5 9 C2 7 2 7 1 4 C0.01 3.34 -0.98 2.68 -2 2 C-1.34 2 -0.68 2 0 2 C0 1.34 0 0.68 0 0 Z " fill="#5684A8" transform="translate(321,38)"/>
<path d="M0 0 C0.99 0.33 1.98 0.66 3 1 C3.6875 3.0625 3.6875 3.0625 4 5 C2.02 5.99 2.02 5.99 0 7 C0 4.69 0 2.38 0 0 Z " fill="#59A73F" transform="translate(154,35)"/>
<path d="M0 0 C2.375 0.3125 2.375 0.3125 5 1 C7 4 7 4 7 7 C6.01 6.67 5.02 6.34 4 6 C3.67 5.01 3.34 4.02 3 3 C1.50014391 1.33289654 1.50014391 1.33289654 0 0 Z " fill="#92BF85" transform="translate(138,33)"/>
<path d="M0 0 C0.66 0.33 1.32 0.66 2 1 C2 2.32 2 3.64 2 5 C-0.4375 4.625 -0.4375 4.625 -3 4 C-3.33 3.34 -3.66 2.68 -4 2 C-2.68 2 -1.36 2 0 2 C0 1.34 0 0.68 0 0 Z " fill="#0A5D9A" transform="translate(59,93)"/>
<path d="M0 0 C0.66 0 1.32 0 2 0 C2 1.32 2 2.64 2 4 C2.66 4 3.32 4 4 4 C4 4.99 4 5.98 4 7 C2.68 7 1.36 7 0 7 C0 4.69 0 2.38 0 0 Z " fill="#5F5F5D" transform="translate(164,88)"/>
<path d="M0 0 C1.485 0.99 1.485 0.99 3 2 C3.1875 5.625 3.1875 5.625 3 9 C2.34 9 1.68 9 1 9 C0.67 6.03 0.34 3.06 0 0 Z " fill="#171616" transform="translate(269,82)"/>
<path d="M0 0 C0 0.66 0 1.32 0 2 C-0.66 2 -1.32 2 -2 2 C-2.66 2.66 -3.32 3.32 -4 4 C-4.33 3.67 -4.66 3.34 -5 3 C-5.66 3.66 -6.32 4.32 -7 5 C-7 3.68 -7 2.36 -7 1 C-3.375 -1.125 -3.375 -1.125 0 0 Z " fill="#5CA43C" transform="translate(146,50)"/>
<path d="M0 0 C1.32 0 2.64 0 4 0 C4 0.66 4 1.32 4 2 C4.66 2 5.32 2 6 2 C6 2.66 6 3.32 6 4 C4.02 4 2.04 4 0 4 C0 2.68 0 1.36 0 0 Z " fill="#055094" transform="translate(336,39)"/>
<path d="M0 0 C0.66 0.33 1.32 0.66 2 1 C1.67 3.64 1.34 6.28 1 9 C-0.41377341 6.36095629 -1.37240135 3.92879371 -2 1 C-1.34 0.67 -0.68 0.34 0 0 Z " fill="#100D0C" transform="translate(199,81)"/>
<path d="M0 0 C1.32 0.33 2.64 0.66 4 1 C2.71937515 2.7074998 1.38232443 4.37373596 0 6 C-0.66 6 -1.32 6 -2 6 C-2 5.34 -2 4.68 -2 4 C-1.34 4 -0.68 4 0 4 C0 2.68 0 1.36 0 0 Z " fill="#8EAF7B" transform="translate(141,55)"/>
<path d="M0 0 C2.0625 1.6875 2.0625 1.6875 4 4 C3.75 6.75 3.75 6.75 3 9 C2.34 8.67 1.68 8.34 1 8 C0.40644386 5.35139573 0.25790731 2.70802678 0 0 Z " fill="#3B7CA6" transform="translate(282,49)"/>
<path d="M0 0 C0.66 0 1.32 0 2 0 C1.67 0.66 1.34 1.32 1 2 C0.67 1.34 0.34 0.68 0 0 Z " fill="#555555" transform="translate(367,32)"/>
<path d="M0 0 C2 1 2 1 2 1 Z " fill="#BFBFBF" transform="translate(177,95)"/>
<path d="M0 0 C2 1 2 1 2 1 Z " fill="#7F7F7F" transform="translate(165,80)"/>
<path d="" fill="#000000" transform="translate(0,0)"/>
<path d="" fill="#7F7F7F" transform="translate(0,0)"/>
<path d="" fill="#000000" transform="translate(0,0)"/>
<path d="" fill="#FFFFFF" transform="translate(0,0)"/>
<path d="" fill="#555555" transform="translate(0,0)"/>
<path d="" fill="#000000" transform="translate(0,0)"/>
<path d="" fill="#FFFFFF" transform="translate(0,0)"/>
<path d="" fill="#3F3F3F" transform="translate(0,0)"/>
<path d="" fill="#555555" transform="translate(0,0)"/>
<path d="" fill="#000000" transform="translate(0,0)"/>
<path d="" fill="#7F7F7F" transform="translate(0,0)"/>
<path d="" fill="#FFFFFF" transform="translate(0,0)"/>
<path d="" fill="#000000" transform="translate(0,0)"/>
<path d="" fill="#FFFFFF" transform="translate(0,0)"/>
<path d="" fill="#000000" transform="translate(0,0)"/>
<path d="" fill="#FFFFFF" transform="translate(0,0)"/>
<path d="" fill="#7F7F7F" transform="translate(0,0)"/>
<path d="" fill="#000000" transform="translate(0,0)"/>
<path d="" fill="#00FFFF" transform="translate(0,0)"/>
</svg>
